<svg xmlns="http://www.w3.org/2000/svg" viewBox="0 0 3000 2571" width="3000" height="2571"><g transform="translate(471.42857142857144 745.7142857142858) rotate(0.0 356.4285714285714 203.57142857142856) scale(1.428645867033438 1.4304133995104473)"><svg width="498.974" height="284.633" viewBox="0 0 498.974 284.633"><path d="M186.338 126.454c-26.513 1.308-54.907 5.947-83.408 16.208-76.596 27.574-97.146 83.478-85.787 111.064 10.723 26.043 62.043 23.745 127.915-26.043 24.432-18.466 83.104-55.623 107.489-69.957-9.191-10.213-42.383-32.17-66.209-31.271z" fill="#fff"/><path d="M48.567 272.697c-5.034 0-9.715-.573-13.994-1.741-9.61-2.624-16.437-8.252-19.742-16.278-5.114-12.419-3.869-28.964 3.414-45.392 7.644-17.24 28.699-49.126 83.838-68.976 26.063-9.383 54.369-14.884 84.131-16.352l.029-.001c25.06-.943 59.137 22.07 68.162 32.097a2.5 2.5 0 0 1-.591 3.827c-23.641 13.897-82.316 50.952-107.249 69.797-36.642 27.694-71.979 43.019-97.998 43.019zm137.879-143.745c-29.262 1.445-57.076 6.849-82.668 16.062-53.389 19.22-73.641 49.788-80.961 66.298-6.733 15.186-7.958 30.298-3.361 41.461 2.692 6.539 8.376 11.158 16.435 13.359 3.45.942 7.521 1.461 12.159 1.462 21.222.002 54.432-10.865 95.501-41.905 24.152-18.254 79.701-53.449 104.964-68.482-10.824-10.11-40.59-29.059-62.069-28.255z" fill="#17191f"/><path d="M449.909 138.066c13.911-6.858 44.426-13.787 32.17-25.277-12.255-11.489-68.17-6.894-135.574 9.191s-135.574 55.915-201.447 105.702l-31.404 20.936c150.128-76.596 281.872-83.745 336.255-110.553z" fill="#fff"/><path d="M113.655 251.12a2.5 2.5 0 0 1-1.388-4.581l31.343-20.895c75.24-56.86 141.416-91.562 202.315-106.095 54.06-12.901 122.604-22.89 137.865-8.584 2.882 2.702 4.059 5.535 3.499 8.42-1.375 7.079-12.797 11.502-24.89 16.185-4.25 1.646-8.264 3.2-11.383 4.738-20.275 9.995-50.648 17.168-89.103 26.251-64.371 15.204-152.53 36.026-247.122 84.287a2.492 2.492 0 0 1-1.135.273zm338.004-142.19c-24.671 0-62.116 5.351-104.574 15.483-60.229 14.373-125.819 48.805-200.52 105.265-.039.03-.08.058-.121.086l-1.473.982c82.665-37.608 158.587-55.541 215.791-69.052 38.146-9.01 68.275-16.126 88.041-25.869l1.105 2.242-1.105-2.242c3.318-1.636 7.432-3.229 11.789-4.916 8.836-3.422 20.939-8.108 21.787-12.476.211-1.086-.465-2.371-2.01-3.819-4.083-3.828-14.183-5.684-28.71-5.684z" fill="#17191f"/><path d="M48.443 282.133c-5.777 0-11.17-.662-16.117-2.013-12.378-3.379-21.621-11.13-26.025-21.826-6.097-14.806-4.816-34.072 3.513-52.859 8.258-18.626 30.842-53.018 89.305-74.064 29.975-10.791 62.702-16.597 97.274-17.257 6.624-.103 15.281 3.4 20.344 7.676 8.617 7.277 9.69 13.852 3.064 13.979-31.949.61-85.045 8.282-112.552 18.184-50.065 18.023-68.789 46.087-75.494 61.211-5.603 12.638-6.822 25.346-3.261 33.994 1.573 3.82 4.894 6.375 10.152 7.811 16.274 4.445 52.079-3.069 99.431-38.857 76.33-57.692 143.68-92.954 205.897-107.801 34.253-8.174 65.51-13.441 90.392-15.233 38.806-2.797 50.646 3.775 56.175 8.959 4.895 4.589 6.898 10.72 5.495 16.821-1.918 8.338-9.54 15.108-24.713 21.952-8.828 3.981-17.248 6.609-17.602 6.719-6.329 1.963-12.81-.404-14.774-6.734 4.376-1.83 8.154-3.559 14.521-6.335 6.253-2.727 29.314-14.856 11.689-17.286-5.925-.788-15.449-1.208-30.419-.058-23.403 1.796-52.863 6.824-85.193 14.539-58.927 14.062-123.365 47.951-196.997 103.603-38.265 28.921-75.76 44.875-104.105 44.876z" fill="#fff"/><path d="M48.444 284.633c-6.025 0-11.669-.707-16.775-2.101-13.143-3.588-22.972-11.857-27.678-23.286-6.355-15.434-5.065-35.416 3.54-54.824 8.42-18.992 31.406-54.042 90.744-75.403 30.232-10.884 63.228-16.739 98.073-17.405 6.952-.109 16.206 3.368 22.005 8.265 6.395 5.4 9.278 10.707 7.911 14.559-.495 1.394-1.986 3.745-6.413 3.83-30.794.588-84.263 8.14-111.753 18.037-49.19 17.708-67.512 45.113-74.056 59.872-5.332 12.026-6.541 23.999-3.235 32.028 1.276 3.099 3.976 5.116 8.499 6.351 15.725 4.295 50.634-3.196 97.265-38.44 76.612-57.905 144.265-93.31 206.824-108.239 34.383-8.205 65.779-13.494 90.792-15.295 39.781-2.867 52.191 4.122 58.065 9.629 5.562 5.214 7.829 12.214 6.221 19.205-2.11 9.174-10.167 16.474-26.121 23.671-8.969 4.045-17.529 6.716-17.889 6.828-8.088 2.509-15.617-1.016-17.903-8.381a2.5 2.5 0 0 1 1.423-3.047c2.739-1.145 5.204-2.234 8.325-3.612 1.807-.798 3.808-1.682 6.161-2.708 7.944-3.464 16.204-9.039 16.68-11.222-.25-.217-1.23-.867-4.333-1.295-7.388-.982-17.447-.997-29.886-.042-23.273 1.786-52.597 6.792-84.804 14.478-58.584 13.98-122.719 47.726-196.07 103.166-38.156 28.839-76.65 45.38-105.612 45.382zm148.24-168.021c-.084 0-.167 0-.25.002-34.289.655-66.748 6.411-96.466 17.11-57.588 20.732-79.77 54.464-87.867 72.726-8.054 18.166-9.325 36.716-3.487 50.894 4.102 9.963 12.757 17.196 24.371 20.366 4.677 1.277 9.878 1.924 15.458 1.924 27.896-.002 65.292-16.175 102.598-44.371 73.913-55.865 138.654-89.896 197.924-104.04 32.458-7.746 62.051-12.794 85.582-14.6 12.786-.982 23.196-.958 30.94.072 1.995.275 8.032 1.107 8.637 5.491 1.011 7.328-17.538 15.641-19.656 16.565a1344.506 1344.506 0 0 0-6.14 2.699c-2.24.989-4.145 1.83-6.061 2.653 2.299 3.64 6.916 4.217 10.714 3.039.348-.108 8.624-2.69 17.315-6.61 14.391-6.491 21.578-12.731 23.304-20.234 1.199-5.21-.539-10.472-4.768-14.436-5.188-4.864-16.46-11.016-54.286-8.289-24.749 1.782-55.867 7.028-89.991 15.171-61.874 14.765-128.92 49.884-204.97 107.364-48.08 36.339-84.779 43.869-101.597 39.275-6.056-1.653-9.917-4.685-11.805-9.27-3.816-9.267-2.587-22.709 3.288-35.959 6.867-15.489 25.993-44.212 76.933-62.55 28.367-10.212 81.512-17.723 113.351-18.331 1.069-.02 1.713-.269 1.796-.503.311-.877-.874-4.378-6.425-9.066-4.82-4.07-12.696-7.088-18.442-7.088z" fill="#17191f"/><path d="M285.434 100.694C222.021 79.71 157.369 65.023 90.675 60.705c51.426-31.826 107.678-48.493 170.042-45.957 15.655 18.415 27.432 44.104 37.652 72.714 2.886 8.079-4.791 15.928-12.936 13.233z" fill="#fff"/><path d="M288.711 103.727a12.93 12.93 0 0 1-4.063-.659C215.637 80.231 152.135 67.19 90.513 63.2a2.5 2.5 0 0 1-1.154-4.621c53.627-33.188 111.314-48.775 171.46-46.33a2.498 2.498 0 0 1 1.803.879c13.942 16.399 26.049 39.752 38.101 73.492 1.658 4.642.55 9.716-2.894 13.241-2.46 2.519-5.74 3.866-9.119 3.866zm-2.492-5.407c2.898.959 5.902.229 8.034-1.953 2.129-2.179 2.787-5.194 1.762-8.065-11.637-32.576-23.254-55.214-36.499-71.099-56.223-2.078-110.278 11.901-160.791 41.567 59.58 4.587 121.014 17.554 187.493 39.552z" fill="#17191f"/><path d="M88.951 64.534C82.683 62.379 78.724 53.988 84.36 50.5 139.629 16.296 199.126.235 261.205 2.757c6.622.27 9.703 3.769 12.278 9.565 3.574 8.043 2.28 13.032-4.34 12.766-58.001-2.354-104.672 6.599-156.511 38.681-1.967 1.217-11.426 4.979-23.681.766z" fill="#fff"/><g fill="#17191f"><path d="M100.346 68.983c-3.623 0-7.759-.555-12.207-2.084-4.665-1.603-8.419-6.062-8.928-10.601-.369-3.299 1.028-6.186 3.833-7.923C138.742 13.905 198.72-2.284 261.307.259c8.549.348 12.003 5.515 14.461 11.047 2.565 5.771 2.854 10.187.86 13.124-1.043 1.537-3.212 3.33-7.585 3.155-62.121-2.521-107.054 8.578-155.095 38.309-1.859 1.15-6.834 3.089-13.602 3.089zM89.764 62.17c11.049 3.798 19.811.55 21.552-.528 48.967-30.304 94.723-41.618 157.928-39.053 1.152.046 2.647-.084 3.247-.968.339-.499 1.247-2.572-1.292-8.285-2.564-5.768-5.206-7.883-10.095-8.082C199.532 2.753 140.51 18.691 85.676 52.626c-1.161.718-1.65 1.737-1.496 3.114.258 2.306 2.418 5.341 5.584 6.43z"/><ellipse cx="123.389" cy="180.193" rx="34.939" ry="16.875" transform="matrix(.8660254 -.5 .5 .8660254 -73.565 85.836)"/><ellipse cx="236.802" cy="49.142" rx="31.356" ry="15.145" transform="matrix(.99391298 -.110168 .110168 .99391298 -3.973 26.387)"/></g></svg></g><g transform="translate(771.4285714285714 181.42857142857144) rotate(0.0 393.5714285714286 499.2857142857143) scale(1.4288307444960198 1.4294998877259744)"><svg width="550.9" height="698.546" viewBox="0 0 550.9 698.546"><path d="M28.835 696.046 212.653 474.67l-28.835-50.346L0 645.7z" fill="#17191f"/><path d="M212.653 474.67 548.4 401.342l-28.835-50.346-335.747 73.328 18.709 32.667z" fill="#17191f"/><path d="m25.66 117.19 108.765 280.48c4.11 10.598 18.713 11.601 24.233 1.665l9.088-16.358L48.638 75.828 25.659 117.19zm158.158 307.134 335.747-73.328L384.386 2.5 48.638 75.828z" fill="#fff"/><path d="M183.817 426.824a2.501 2.501 0 0 1-2.33-1.596l-26.348-67.927a2.5 2.5 0 1 1 4.662-1.808l25.575 65.932 330.803-72.248L382.828 5.399 52.025 77.647l86.993 224.269a2.5 2.5 0 1 1-4.662 1.808L46.307 76.732a2.503 2.503 0 0 1 1.797-3.347L383.852.058a2.5 2.5 0 0 1 2.864 1.538l135.18 348.496a2.503 2.503 0 0 1-1.797 3.347l-335.747 73.328a2.51 2.51 0 0 1-.535.058z" fill="#17191f"/><path d="M212.653 474.67 548.4 401.342 347.524 618.374 28.835 696.046z" fill="#fff"/><path d="M28.834 698.547a2.5 2.5 0 0 1-1.923-4.098l183.818-221.376a2.497 2.497 0 0 1 1.39-.845L547.866 398.9a2.5 2.5 0 0 1 2.369 4.14L349.359 620.071c-.333.36-.766.614-1.243.731L29.427 698.475a2.501 2.501 0 0 1-.592.071zm185.192-221.618L35.587 691.827 346.2 616.123l194.961-210.641z" fill="#17191f"/><path d="M411.658 177.373c-1.175-3.654-5.182-6.077-8.749-5.28l-93.943 20.769c-5.543 1.219-5.686 8.608-.233 11.702l91.915 52.148c3.469 1.966 7.541.96 8.881-2.223 9.543-22.741 10.918-49.753 2.129-77.116zm-91.155 147.926-36.533-93.97c-2.17-5.596-9.96-6.915-12.338-2.089l-39.919 81.028c-1.525 3.08.198 7.203 3.786 8.995 25.379 12.677 53.809 18.074 80.882 13.709 3.627-.586 5.509-4.1 4.122-7.674zm-67.896-116.971-95.387 21.085c-3.586.791-5.238 4.466-3.607 8.031 12.355 27.01 33.162 49.478 57.848 64.905 3.426 2.133 7.586 1.317 9.099-1.773l40.634-82.479c2.378-4.828-3.042-10.997-8.588-9.767zm146.111 62.526-92.422-52.417c-5.454-3.093-11.071 1.197-8.893 6.794l36.913 95.021c1.397 3.574 5.482 5.752 8.951 4.76 26.147-7.484 46.362-23.81 58.703-45.055 1.719-2.964.228-7.127-3.253-9.102z" fill="#fff" stroke="#17191f" stroke-linecap="round" stroke-linejoin="round" stroke-width="5"/><g fill="#17191f"><path d="M341.626 164.446a9.889 9.889 0 0 1-5.146-1.416c-8.207-4.927-8.943-20.334-4.117-30.818 4.906-10.658 14.436-15.156 25.802-12.35.887-2.266 1.808-5.694 2.646-8.815 2.511-9.345 4.325-16.097 9.343-15.02l1.897.407.406 1.898c3.441 16.073-4.843 37.322-11.373 51.907l-.141.315-.209.275c-8.193 10.777-14.616 13.617-19.109 13.617zm9.178-36.079c-12.578 8.356-15.119 17.116-13.447 22.114.926 2.766 3.103 4.308 5.803 4.125 3.35-.227 7.503-3.012 11.233-9.44-.06.022-.12.044-.181.064-1.506.505-3.09.301-4.463-.576l-1.489-.951.109-1.763c.203-3.278 2.118-6.75 3.97-10.108.69-1.252 1.635-2.964 2.118-4.149-.731.056-1.887.23-3.655.684z"/><path d="M277.038 188.076c-1.112 0-2.48-.388-3.944-1.69l-1.501-1.334.662-1.896c5.889-16.873 6.769-34.287 7.699-52.724.134-2.651.268-5.304.417-7.956-1.012-5.223-1.482-9.308 1.548-10.724 3.17-1.483 5.64 1.569 9.731 6.624 2.389 2.951 5.361 6.625 7.393 7.783l.119.071c9.782 6.194 18.298 8.813 22.779 7.005 1.937-.781 3.239-2.477 3.973-5.179-.238-4.227-4.751-6.196-9.764-7.993-2.751-.986-5.127-1.838-5.166-4.442-.037-2.519 2.415-3.481 3.221-3.797l.935-.367.967.27c15.844 4.422 18.897 11.748 19.307 15.722.505 4.901-2.353 9.463-7.646 12.203-5.983 3.097-15.727 3.975-26.437-1.416l1.426 1.057-1.057 2.228c-1.53 3.225-2.959 6.578-4.472 10.128-3.235 7.592-6.581 15.443-11.096 22.266l-.113.159c-.378.514-1.021 2.617-1.448 4.008-1.328 4.338-2.701 8.824-6.232 9.815a4.82 4.82 0 0 1-1.301.18zm12.359-58.123c-.116 4.585-.841 10.711-1.548 16.681a615.054 615.054 0 0 0-.641 5.562l.346-.815.168-.397.273-.334c.448-.555 1.069-2.862 1.48-4.389 1.115-4.143 2.268-8.426 5.702-9.622.785-.274 1.865-.432 3.155-.066-2.267-1.374-4.566-3.039-6.87-5.028-.678-.399-1.346-.954-2.066-1.592z"/><path d="M243.056 179.647c-3.425 0-5.472-1.421-6.696-3.09l-.216-.294-.139-.338c-5.404-13.133 1.647-26.484 10.636-39.059-1.937-1.835-2.636-2.137-2.919-2.136-.82.026-3.632 3.319-4.833 4.725l-1.903 2.229-2.272-1.851c-1.98-1.613-2.452-3.373-2.499-4.565-.126-3.204 2.406-5.619 4.854-7.955 1.137-1.085 2.525-2.409 3.004-3.323.408-8.139 2.417-15.155 6.476-22.638 4-11.822 15.511-21.133 23.436-22.128 4.475-.56 6.569 1.597 7.419 2.933 2.611 4.104.778 11.021-5.605 21.146l-.247.338c-1.46 1.726-2.824 3.499-4.268 5.376-3.478 4.522-7.072 9.196-11.976 12.986-.619.775-1.257 1.507-1.876 2.218-.979 1.124-2.42 2.78-2.702 3.581.234.208.884.669 2.482 1.221.287-.201.594-.428.884-.641 2.046-1.507 4.592-3.383 7.251-2.213 1.656.729 2.629 2.346 2.892 4.807l.061.567-.151.549c-1.238 4.49-4.496 6.668-7.371 8.589-2.398 1.603-4.468 2.987-5.466 5.588l-.14.312c-10.137 19.457-7.635 22.813-7.523 22.947.138.166 1.048.458 3.372-.208 1.598-1.019 3.402-2.014 5.304-3.062 5.737-3.163 12.878-7.099 12.373-11.399l-.286-2.432 2.325-.767c2.329-.768 8.514-2.807 10.381 1.339 3.384 7.511-19.491 21.441-19.724 21.577-6.408 3.736-11.02 5.071-14.339 5.071zm10.607-44.223.071.073.056-.037zm14.341-45.654c-3.926 2.724-11.784 11.786-13.524 17.202-.359 1.241-1.023 2.963-1.727 4.786l-.234.607c1.678-2.118 3.403-4.17 5.092-6.179 3.149-3.747 6.403-7.619 9.222-11.771.699-2.183 1.026-3.666 1.171-4.646z"/><path d="M206.094 187.624c-1.321 0-2.504-.239-3.502-.768l-.386-.204-.312-.306c-9.705-9.531-3.363-20.665 1.732-29.611 4.802-8.432 6.209-12.141 3.64-14.69-.664.577-1.242 1.258-1.905 2.037-.934 1.099-1.992 2.344-3.501 3.503l-1.874 1.441-1.839-1.485c-1.996-1.612-2.474-3.377-2.523-4.573-.132-3.212 2.412-5.636 4.872-7.98 1.144-1.09 2.54-2.42 3.021-3.337.396-8.163 2.406-15.2 6.479-22.708 4.007-11.858 15.575-21.203 23.547-22.207 4.496-.566 6.602 1.6 7.456 2.942 2.619 4.115.782 11.049-5.617 21.198-1.609 2.461-4.745 5.921-8.375 9.927-3.824 4.219-10.561 11.653-12.168 15.083 1.225-.105 5.254-1.906 8.091-2.17s3.778 1.662 3.778 1.662c2.938 6.991-2.634 10.628-6.321 13.036-2.506 1.636-4.873 3.181-5.467 5.302l-.084.302-.146.278c-10.179 19.485-7.64 22.887-7.527 23.022.141.169 1.069.47 3.424-.209 1.609-1.025 3.427-2.025 5.343-3.08 5.77-3.175 12.95-7.126 12.436-11.441l-.298-2.504 2.416-.724c3.993-1.196 8.328-2.012 10.209 1.018 2.099 3.384-1.739 7.492-3.184 9.039-5.715 6.117-22.027 18.208-31.416 18.209zm25.488-90.354c-3.937 2.7-11.879 11.834-13.634 17.299-.36 1.245-1.025 2.971-1.729 4.797l-.278.722c1.713-2.162 3.475-4.257 5.199-6.306 3.163-3.759 6.432-7.644 9.265-11.811.71-2.22 1.035-3.718 1.177-4.701z"/><path d="M158.89 194.121a4.901 4.901 0 0 1-1.95-.407c-4.139-1.774-5.012-8.269-3.193-23.914-.331-2.436-.135-5.143.072-7.998.328-4.52.667-9.193-1.176-12.347l-.229-.488c-.58-1.596-.258-2.843.115-3.609.933-1.917 2.578-2.415 4.436-3.063 2.657-.928 4.477.174 4.734 1.989 1.403 7.227 7.269 14.073 14.048 16.47 1.695-.241 4.066-2.923 4.583-6.017.48-2.875-.953-3.649-1.793-3.936-2.738-.201-4.468-1.151-5.144-2.826-.523-1.296-.234-2.75.756-3.795 1.474-1.557 4.22-1.952 6.994-1.005l.381.13.333.226c2.464 1.67 3.687 2.301 4.284 2.533.203-.336.455-.811.671-1.22.803-1.516 1.535-3.519 3.888-5.892 2.353-2.372 6.682-1.863 8.429.835 1.928 2.977-.499 6.558-3.068 10.348-.801 1.181-3.331 5.255-3.331 5.255-1.013.729-1.196 1.556-1.461 3.733-.258 2.123-.612 5.031-3.073 7.501l-.249.25-.301.186c-4.124 2.545-9.2 8.664-13.679 14.063-6.129 7.387-10.783 12.997-15.078 12.997zm4.486-30.981a380.762 380.762 0 0 1-.388 4.244c-.297 3.102-.763 7.983-.809 11.43 2.442-3.205 4.531-5.551 6.151-7.371 1.067-1.198 2.255-2.532 2.698-3.251-.92-.94-3.912-2.768-7.062-4.691l-.59-.361zm-16.405 245.596c-.375 0-.751-.013-1.131-.039-6.224-.428-11.491-4.307-13.747-10.123L23.329 118.093a2.497 2.497 0 0 1 .146-2.118l22.979-41.362a2.499 2.499 0 1 1 4.37 2.429l-22.409 40.337 108.341 279.387c1.57 4.049 5.095 6.645 9.428 6.943s8.18-1.791 10.289-5.588l9.088-16.358a2.499 2.499 0 1 1 4.37 2.429l-9.088 16.358c-2.845 5.121-8.089 8.187-13.871 8.187z"/></g></svg></g><g transform="translate(885.7142857142858 985.7142857142858) rotate(0.0 445.0 167.8571428571429) scale(1.4302243363116283 1.4337696060367195)"><svg width="622.28" height="234.148" viewBox="0 0 622.28 234.148"><path d="m14.891 231.648 269.142-98.779-14.891-59.541L0 175.108z" fill="#17191f"/><path d="M284.033 132.869 619.78 59.541 604.889 0 269.142 73.328z" fill="#17191f"/><path d="m619.78 59.541-283.234 89.617-321.655 82.49 269.142-98.779z" fill="#fff"/><path d="M14.89 234.149a2.5 2.5 0 0 1-.86-4.847l269.142-98.78c.107-.039.217-.071.328-.096l335.747-73.328a2.499 2.499 0 0 1 1.288 4.826l-283.234 89.617a2.02 2.02 0 0 1-.133.038L15.512 234.07a2.52 2.52 0 0 1-.622.079zm269.844-98.875-222.412 81.63 273.536-70.15 231.057-73.108-282.181 61.629z" fill="#17191f"/></svg></g><g transform="translate(205.71428571428572 1684.2857142857142) rotate(0.0 707.8571428571429 398.57142857142867) scale(1.4291194259295046 1.430350394833103)"><svg width="990.62" height="557.306" viewBox="0 0 990.62 557.306"><linearGradient id="a" gradientUnits="userSpaceOnUse" x1="-.031" x2="990.62" y1="278.657" y2="278.657"><stop offset="0" stop-color="#3ec7f0"/><stop offset="1" stop-color="#a1d638"/></linearGradient><path d="M990.395 557.306c-1.408-.004-141.724-.392-219.31-.397l-730.89-.046-.609-.382c-19.747-12.393-32.282-30.138-37.258-52.742-7.446-33.827 4.267-68.254 13.957-83.141 19.71-30.284 60.735-40.992 82.772-37.077 28.239 5.016 41.552 19.315 53.298 31.931 9.056 9.726 16.876 18.126 30.029 21.135 19.935 4.562 39.072.169 53.885-12.368 14.388-12.177 23.046-30.88 22.058-47.648-1.734-29.424-16.309-53.558-38.038-62.985-18.707-8.116-39.297-4.036-57.979 11.485l-4.141 3.441.044-5.384c.208-25.63 9.582-46.457 27.859-61.901 33.453-28.268 90.755-33.333 138.576-28.288-23.623-15.647-36.986-49.912-32.808-88.394 3.851-35.465 21.868-68.674 50.731-93.509C377.849 20.683 426.849 3.664 488.211.455c54.182-2.835 104.535 7.866 145.615 30.944 38.232 21.478 67.506 52.806 84.656 90.597 15.763 34.734 20.31 73.042 13.149 110.783-7.021 37.002-25.327 72.601-53.133 103.494 19.414-5.405 40.105-5.285 59.22.471 20.849 6.277 37.53 18.589 45.766 33.78 12.466 22.992 4.009 47.763-23.183 68.145 6.93 32.893 53.542 75.919 81.133 87.066 42.288 17.085 148.122 26.489 149.186 26.582l-.225 4.99zM41.64 551.863l729.446.046c49.561.003 124.713.163 172.913.278-34.415-4.447-79.542-11.76-104.437-21.818-28.916-11.683-78.219-56.6-84.475-92.345l-.269-1.534 1.259-.917c25.96-18.921 34.348-41.762 23.013-62.667-7.612-14.039-23.216-25.475-42.812-31.375-21.181-6.377-44.401-5.49-65.382 2.498l-10.547 4.016 7.865-8.094c60.414-62.179 77.931-144.902 45.717-215.888C678.272 45.49 591.884.039 488.472 5.448 357.596 12.293 303.653 82.069 296.81 145.087c-4.754 43.785 14.018 81.68 44.637 90.108l-1.061 4.879c-49.357-7.94-114.967-5.548-151.088 24.975-15.846 13.39-24.545 31.146-25.902 52.842 18.884-13.774 40.089-17.042 58.882-8.889 23.469 10.182 39.194 35.961 41.039 67.277 1.077 18.284-8.272 38.601-23.82 51.758-16.043 13.578-36.723 18.346-58.23 13.425-14.65-3.352-23.355-12.703-32.573-22.602-11.76-12.631-23.92-25.692-50.513-30.415-20.67-3.671-59.174 6.407-77.707 34.881-8.878 13.64-20.33 47.241-13.264 79.339 4.626 21.015 16.207 37.564 34.429 49.199z" fill="url(#a)"/></svg></g><g transform="translate(1052.857142857143 87.14285714285714) rotate(0.0 870.7142857142857 1198.5714285714284) scale(1.4327780838315047 1.431748921410124)"><svg width="1215.421" height="1674.276" viewBox="0 0 1215.421 1674.276"><linearGradient id="b" gradientUnits="userSpaceOnUse" x1="337.372" x2="891.391" y1="931.075" y2="377.057"><stop offset="0" stop-color="#3ec7f0"/><stop offset="1" stop-color="#a1d638"/></linearGradient><linearGradient xmlns:xlink="http://www.w3.org/1999/xlink" id="c" x1="151.872" x2="681.396" xlink:href="#b" y1="740.151" y2="210.627"/><linearGradient xmlns:xlink="http://www.w3.org/1999/xlink" id="d" x1="109.266" x2="633.935" xlink:href="#b" y1="697.618" y2="172.949"/><linearGradient xmlns:xlink="http://www.w3.org/1999/xlink" id="e" x1="131.51" x2="659.531" xlink:href="#b" y1="720.101" y2="192.08"/><linearGradient xmlns:xlink="http://www.w3.org/1999/xlink" id="f" x1="215.594" x2="755.479" xlink:href="#b" y1="804.544" y2="264.66"/><clipPath id="g"><path d="M563.778 184.921c-.892 7.094 7.977 14.28 19.668 16.05 11.541 1.748 21.547-2.444 22.487-9.363.943-6.941-7.575-14.125-19.162-16.048-11.74-1.948-22.098 2.242-22.993 9.36z"/></clipPath><clipPath id="h"><path d="M646.389 198.406c-.983 6.749 6.963 13.527 17.623 15.139 10.53 1.592 19.796-2.459 20.817-9.049 1.024-6.611-6.614-13.389-17.181-15.139-10.699-1.773-20.273 2.279-21.259 9.05z"/></clipPath><path d="M1105.869 599.305s-48.255 58.213-90.128 56.681c-41.872-1.532-25.277-58.723-25.277-58.723l115.404 2.043z" fill="#fff"/><path d="M1017.385 658.516c-.582 0-1.155-.01-1.735-.032-10.715-.392-18.813-4.278-24.07-11.55-12.792-17.696-3.901-49.043-3.517-50.368a2.488 2.488 0 0 1 2.445-1.803l115.404 2.043a2.501 2.501 0 0 1 1.881 4.095c-1.975 2.383-48.253 57.615-90.409 57.615zm-24.994-58.719c-1.646 6.794-6.488 30.76 3.247 44.216 4.308 5.954 11.103 9.142 20.195 9.475 33.868 1.237 72.866-38.793 84.603-51.778l-108.044-1.912zM671.826 373.093c0 1.532-143.489 210.894-143.489 210.894l-40.34-231.83 183.83 20.936z" fill="#17191f"/><path d="M478.805 237.773c-15.83 57.191 21.447 165.957 86.298 172.085 58.135 5.493 93.447-50.043 93.447-50.043S494.635 180.581 478.805 237.772z" fill="#fff"/><path d="M573.006 412.732c-2.71 0-5.422-.128-8.139-.384-22.475-2.124-43.306-16.239-60.241-40.82-26.613-38.628-38.75-96.417-28.231-134.421 1.914-6.915 5.903-11.145 11.858-12.573 17.258-4.138 51.562 17.212 101.958 63.458 37.136 34.078 69.856 69.78 70.182 70.137a2.5 2.5 0 0 1 .265 3.029c-.37.581-9.229 14.375-25.448 27.673-19.181 15.728-40.534 23.901-62.206 23.901zM481.214 238.44c-9.997 36.121 2.095 93.334 27.53 130.251 11.206 16.264 30.12 36.177 56.594 38.678 2.62.248 5.2.366 7.726.366 46.1.003 76.344-39.262 82.3-47.687-6.512-7.032-35.813-38.351-68.554-68.393-61.138-56.099-86.706-64.822-97.39-62.26-4.11.986-6.794 3.944-8.206 9.044zM49.559 1317.7l228.182-34.012 10.341-68.553z" fill="#17191f"/><path d="m530.89 770.114-1.532-10.723-308.75 46.999a115.036 115.036 0 0 0-46.56 17.965l-50.302 31.097c-92.713 57.316-138.894 167.11-115.024 273.465l40.837 188.784 208.829-71.006-67.552-342.539C303.503 882.319 530.89 770.114 530.89 770.114z" fill="#fff"/><path d="M49.56 1320.2a2.495 2.495 0 0 1-2.443-1.971L6.28 1129.445c-24.085-107.308 22.592-218.28 116.154-276.12l50.302-31.097c14.155-9.416 30.604-15.763 47.501-18.311l308.746-46.999a2.5 2.5 0 0 1 2.851 2.118l1.532 10.723a2.5 2.5 0 0 1-1.369 2.596c-2.261 1.115-225.691 110.988-338.225 133.766l67.069 340.089a2.501 2.501 0 0 1-1.648 2.851l-208.829 71.006a2.502 2.502 0 0 1-.805.133zm477.68-557.958-306.255 46.62c-16.182 2.44-31.932 8.517-45.551 17.575l-50.372 31.142c-91.75 56.72-137.523 165.542-113.9 270.791l40.249 186.061 204.102-69.399-67.129-340.393a2.501 2.501 0 0 1 1.977-2.938c106.066-20.558 317.099-122.914 337.798-133.032l-.918-6.427z" fill="#17191f"/><path d="M615.111 1149.766 530.89 770.113l-300.282 45.276c-36.718 5.536-68.605 28.439-85.267 61.625-64.93 129.323-91.695 278.968-95.782 440.686l207.887-70.686 2.295 11.78z" fill="#fff"/><path d="M49.56 1320.2a2.498 2.498 0 0 1-2.499-2.563c4.484-177.455 35.901-321.95 96.047-441.745 16.951-33.763 49.523-57.305 87.128-62.975l300.282-45.276a2.501 2.501 0 0 1 2.813 1.931l84.221 379.653a2.498 2.498 0 0 1-1.707 2.931l-355.37 109.028a2.503 2.503 0 0 1-3.188-1.912l-1.747-8.969-205.176 69.764a2.5 2.5 0 0 1-.804.133zm479.395-547.266-297.974 44.928c-36.002 5.428-67.182 27.961-83.406 60.275-59.403 118.315-90.627 260.979-95.423 436.042l204.489-69.531a2.5 2.5 0 0 1 3.258 1.889l1.764 9.053 350.506-107.536-83.215-375.12z" fill="#17191f"/><path d="M211.493 1439.902a7.99 7.99 0 0 1-6.57-3.426l-68.508-98.294c-6.107-8.762-7.658-19.595-4.254-29.719s11.183-17.819 21.343-21.113l106.834-34.633a8 8 0 0 1 10.077 5.144 8 8 0 0 1-5.143 10.077l-106.834 34.634c-5.289 1.714-9.339 5.721-11.111 10.991-1.772 5.271-.964 10.91 2.215 15.472l68.508 98.294a8 8 0 0 1-6.556 12.575z" fill="#17191f"/><path d="M501.443 1442.331c30.853 119.463-17.279 222.31-99.975 229.098-75.408 6.189-152.986-71.103-179.086-172.159s5.787-200.683 76.682-224.345c77.747-25.949 171.526 47.943 202.379 167.406z" fill="#fff"/><path d="M393.011 1674.274c-34.304 0-69.957-16.434-101.319-46.914-33.415-32.476-58.889-77.743-71.73-127.464-12.848-49.745-12.131-100.394 2.018-142.615 14.42-43.029 41.514-73.119 76.292-84.727 29.691-9.91 62.211-6 94.043 11.305 51.561 28.031 93.261 87.04 111.548 157.847 18.169 70.349 9.792 139.385-22.407 184.672-20.25 28.481-47.839 44.921-79.784 47.543-2.875.236-5.764.353-8.661.353zm-61.701-402.062c-10.744 0-21.278 1.688-31.455 5.085-68.258 22.782-101.225 120.01-75.052 221.348 25.222 97.659 97.987 170.619 168.275 170.626 2.737 0 5.459-.11 8.186-.334 30.429-2.497 56.75-18.216 76.119-45.457 31.355-44.099 39.445-111.585 21.641-180.524-17.947-69.49-58.73-127.323-109.096-154.705-19.602-10.656-39.439-16.04-58.617-16.04z" fill="#17191f"/><path d="M418.263 1463.156c18.537 71.774-8.145 135.228-56.926 141.392-46.064 5.821-95.109-42.139-111.817-106.833s3.881-126.914 48.172-139.599c46.904-13.433 102.035 33.266 120.572 105.04z" fill="#fff"/><path d="M353.693 1607.526c-44.566 0-90.294-46.069-106.595-109.186-17.306-67.007 4.615-129.657 49.905-142.627 17.74-5.081 37.045-2.089 55.825 8.653 31.227 17.861 56.593 54.558 67.855 98.165 11.225 43.462 6.469 86.295-12.722 114.577-11.686 17.223-27.7 27.569-46.312 29.921a63.444 63.444 0 0 1-7.957.498zm-39.448-249.217c-5.402 0-10.71.733-15.866 2.21-20.502 5.871-36.583 23.166-45.283 48.699-8.749 25.679-9.16 56.885-1.157 87.872 8.009 31.011 23.711 58.954 44.213 78.683 20.432 19.661 43.471 28.999 64.87 26.295 17.145-2.166 31.945-11.768 42.801-27.767 18.395-27.11 22.886-68.429 12.018-110.519-10.932-42.328-35.417-77.87-65.497-95.075-12.06-6.898-24.303-10.397-36.1-10.397z" fill="#17191f"/><path d="M337.23 1477.045c3.932 15.225-1.331 29.149-11.637 31.078-10.176 1.904-21.446-8.631-25.289-23.511s1.126-28.743 11.213-30.991c10.216-2.276 21.781 8.199 25.713 23.424zm-91.404-313.229 117.575-21.702-40.341-70.468z" fill="#17191f"/><path d="m240.848 1141.093-10.377-42.139c-3.778-15.341 3.654-31.239 17.846-38.18l156.285-76.425a33.573 33.573 0 0 1 11.096-3.213l222.937-24.384 66.894 134.298z" fill="#fff"/><path d="M240.846 1143.593a2.502 2.502 0 0 1-2.426-1.902l-10.377-42.139c-4.031-16.366 4.034-33.619 19.176-41.023l156.285-76.425a35.98 35.98 0 0 1 11.922-3.453l222.938-24.384a2.501 2.501 0 0 1 2.51 1.371l66.894 134.298a2.5 2.5 0 0 1-1.97 3.601l-464.681 50.042c-.09.01-.18.015-.27.015zm396.328-184.166-221.205 24.194a30.988 30.988 0 0 0-10.27 2.974l-156.285 76.425c-13.042 6.378-19.989 21.239-16.517 35.336l9.855 40.017 458.937-49.424z" fill="#17191f"/><path d="M254.124 1223.305c-8.177-33.752 9.819-68.359 42.145-81.048l159.813-62.732a111.311 111.311 0 0 1 25.567-6.668l172.815-23.68 116.553 387.702-429.319 70.851-87.574-284.426z" fill="#17191f"/><path d="M244.935 1163.777c-5.646 0-10.964-3.439-13.089-9.03-2.747-7.228.885-15.313 8.113-18.06l211.084-80.223a125.536 125.536 0 0 1 28.706-7.477l172.815-23.68c7.662-1.051 14.721 4.309 15.771 11.97 1.05 7.66-4.309 14.721-11.97 15.771l-172.815 23.68a97.47 97.47 0 0 0-22.494 5.884l-211.15 80.248a13.971 13.971 0 0 1-4.971.917zm43.831 34.84s-57.416 24.55-78.812 64.774c-19.149 36-18.383 179.234 3.308 267.237l233.181-41.569c-22.021-129.923-79.51-297.881-157.677-290.442z" fill="#17191f"/><path d="M446.44 1491.559a2.501 2.501 0 0 1-2.462-2.083c-12.376-73.022-33.365-144.493-57.582-196.087-20.775-44.26-54.471-96.154-97.141-92.307-2.523.794-25.894 8.471-48.49 26.83a2.5 2.5 0 1 1-3.153-3.881c24.615-19.999 49.399-27.502 50.442-27.811.155-.046.314-.077.475-.092 19.288-1.836 38.305 6.472 56.522 24.694 16.019 16.022 31.452 39.723 45.871 70.443 24.402 51.986 45.537 123.927 57.986 197.376a2.5 2.5 0 0 1-2.468 2.919z" fill="#fff"/><path d="M668.189 1430.19a463.695 463.695 0 0 0-2.291-17.003c-.407-2.657-2.187-4.933-4.701-5.884-.528-.2-1.077-.368-1.614-.554-2.1-4.504-5.269-9.601-10.055-14.653-13.787-14.553-60.127-19.532-60.127-19.532-84.986-57.101-152.621-3.704-214.468 86.553l15.8 35.88a3858.915 3858.915 0 0 0-3.928 2.034l2.521 13.864a4.653 4.653 0 0 0 3.615 3.728c8.139 1.716 32.24 5.31 69.821-1.634 15.855-2.93 61.757-22.58 73.021-25.532 64.386-16.874 117.188-45.203 129.866-52.305a5.023 5.023 0 0 0 2.54-4.963z" fill="#fff"/><path d="M420.628 1519.6c-13.887 0-23.41-1.52-28.202-2.53a7.129 7.129 0 0 1-5.559-5.727l-2.521-13.864a2.5 2.5 0 0 1 1.307-2.666l1.847-.956-14.854-33.732a2.5 2.5 0 0 1 .226-2.421c34.926-50.969 67.475-83.471 99.509-99.362 38.678-19.188 77.251-15.328 117.906 11.806 5.835.674 47.523 5.942 61.058 20.229 4.136 4.366 7.509 9.185 10.039 14.339.235.08.47.162.7.249 3.33 1.259 5.74 4.265 6.288 7.844a466.127 466.127 0 0 1 2.303 17.096 7.513 7.513 0 0 1-3.802 7.429c-14.441 8.09-66.528 35.789-130.454 52.542-4.339 1.137-14.139 4.89-25.485 9.236-17.778 6.809-37.929 14.527-47.716 16.336-16.977 3.137-31.241 4.152-42.589 4.152zm-31.032-21.198 2.19 12.046a2.149 2.149 0 0 0 1.671 1.729c8.418 1.775 31.978 5.168 68.852-1.646 9.335-1.725 30.128-9.689 46.836-16.088 11.484-4.398 21.401-8.197 26.006-9.404 63.352-16.603 114.967-44.05 129.278-52.067a2.524 2.524 0 0 0 1.277-2.497 461.072 461.072 0 0 0-2.278-16.91c-.275-1.798-1.468-3.301-3.114-3.923-.307-.116-.621-.22-.935-.324l-.613-.206a2.497 2.497 0 0 1-1.447-1.306c-2.348-5.034-5.579-9.741-9.604-13.99-12.996-13.718-58.125-18.717-58.58-18.765a2.486 2.486 0 0 1-1.127-.411c-71.801-48.242-136.671-22.115-210.225 84.745l15.239 34.606a2.5 2.5 0 0 1-1.14 3.228l-2.286 1.184z" fill="#17191f"/><path d="M397.846 677.38s3.031 88.009 33.306 132.472 229.249 185.137 229.249 185.137c-15.065 27.3-14.625 44.527 3.064 50.553 2.98 131.414 8.253 219.97 17.851 285.574 0 0-6.799 9.252-9.192 15.319-3.077 7.803-4.596 94.979 9.192 101.106 0 0 98.042-117.957 150.127-125.617 40.285-5.924 62.809-1.532 62.809-1.532s4.596-52.766-5.519-61.946l-18.992-10.054s-29.106-309.362-58.213-353.787c-35.31-53.894-289.532-269.617-289.532-269.617l-124.151 52.391z" fill="#fff"/><path d="M681.315 1450.043c-.342 0-.687-.07-1.014-.216-6.947-3.087-11.12-20.619-12.403-52.108-.9-22.073.024-47.442 1.9-52.2 2.079-5.272 7.139-12.578 8.897-15.044-9.197-63.391-14.661-150.857-17.691-283.179-6.161-2.475-10.325-6.426-12.39-11.765-3.594-9.291-.804-22.32 8.53-39.785-21.271-15.093-199.073-141.919-228.059-184.487-30.333-44.549-33.613-130.17-33.738-133.793a2.5 2.5 0 0 1 1.526-2.389l124.15-52.391a2.5 2.5 0 0 1 2.59.397c10.391 8.818 254.901 216.572 290.006 270.153 28.433 43.397 56.099 328.515 58.483 353.579l17.8 9.423c.184.098.356.218.51.358 10.723 9.732 6.811 58.486 6.329 64.014a2.502 2.502 0 0 1-2.967 2.238c-.222-.043-22.667-4.229-61.968 1.551-50.546 7.433-147.595 123.569-148.569 124.742a2.5 2.5 0 0 1-1.923.902zM400.423 679.006c.631 12.456 5.583 89.473 32.796 129.438 29.677 43.584 226.639 183.099 228.625 184.503a2.5 2.5 0 0 1 .746 3.249c-9.296 16.845-12.429 29.473-9.312 37.531 1.71 4.42 5.306 7.511 10.994 9.448a2.5 2.5 0 0 1 1.693 2.31c3.034 133.759 8.531 221.74 17.825 285.269.095.65-.07 1.312-.459 1.842-.066.09-6.636 9.064-8.881 14.756-1.284 3.255-2.53 26.262-1.556 50.163 1.166 28.6 4.812 42.474 8.061 46.566 13.22-15.669 100.694-117.36 150.125-124.63 32.732-4.813 53.704-2.918 60.898-1.945 1.509-19.927 1.482-50.725-4.721-57.012l-18.686-9.892a2.501 2.501 0 0 1-1.319-1.975c-.291-3.088-29.378-309.248-57.815-352.651-33.49-51.116-269.083-252.083-287.887-268.085z" fill="#17191f"/><path d="M174.252 626.521s-15.319 76.596 3.064 127.149 179.234 263.489 179.234 263.489c-15.065 27.3-14.625 44.527 3.064 50.553 2.98 131.414 7.253 249.97 16.851 315.574 0 0-6.799 9.252-9.192 15.319-2.293 5.814-3.72 55.692 1.404 83.278 1.644 8.85 12.735 11.938 18.682 5.18 26.979-30.656 97.71-106.862 139.233-112.969 40.285-5.924 62.809-1.532 62.809-1.532s-4.213-13.021-4.596-23.362c-.246-6.643 2.353-19.134 4.243-27.218a10.221 10.221 0 0 0-5.166-11.366l-18.992-10.054s-.234-291.447-16.319-329.362-106.234-180.766-106.234-180.766l-121.32-188.067-146.766 24.152z" fill="#fff"/><path d="M379.325 1493.228c-1.183 0-2.38-.159-3.564-.485-4.946-1.364-8.603-5.349-9.541-10.402-4.93-26.543-3.973-77.801-1.271-84.651 2.079-5.272 7.139-12.579 8.898-15.044-9.974-69.14-14.043-196.85-16.692-313.179-6.161-2.475-10.325-6.426-12.39-11.765-3.631-9.386-.746-22.587 8.819-40.324-14.682-19.475-160.86-214.022-178.617-262.853-18.411-50.629-3.797-125.338-3.166-128.494a2.5 2.5 0 0 1 4.902.98c-.152.759-14.966 76.504 2.962 125.805 18.046 49.626 177.273 260.71 178.879 262.837a2.5 2.5 0 0 1 .194 2.715c-9.296 16.845-12.429 29.472-9.312 37.53 1.71 4.42 5.306 7.511 10.994 9.448a2.5 2.5 0 0 1 1.693 2.31c2.658 117.196 6.735 246.301 16.825 315.269.095.65-.07 1.312-.459 1.842-.066.09-6.636 9.064-8.881 14.756-1.911 4.847-3.656 53.951 1.536 81.904.595 3.203 2.821 5.631 5.954 6.495 3.119.86 6.254-.079 8.394-2.51 28.295-32.151 98.651-107.6 140.747-113.791 31.028-4.563 51.492-3.097 59.666-2.103-1.31-4.728-3.321-13.024-3.588-20.224-.25-6.749 2.205-18.886 4.307-27.88a7.728 7.728 0 0 0-3.901-8.587l-18.992-10.054a2.502 2.502 0 0 1-1.33-2.208c-.002-2.909-.416-291.368-16.121-328.387-15.823-37.297-105.146-178.981-106.047-180.408l-13.373-20.729a2.5 2.5 0 1 1 4.202-2.71l13.386 20.75c3.699 5.861 90.455 143.476 106.435 181.145 15.672 36.941 16.476 303.726 16.516 328.832l17.664 9.351a12.732 12.732 0 0 1 6.43 14.145c-2.874 12.292-4.358 21.723-4.179 26.556.366 9.864 4.436 22.558 4.477 22.685a2.5 2.5 0 0 1-2.856 3.223c-.222-.043-22.667-4.228-61.968 1.551-40.458 5.95-109.79 80.41-137.721 112.147-2.57 2.92-6.168 4.512-9.911 4.512z" fill="#17191f"/><path d="M616.836 315.901s27.574-58.213 121.021-30.638c49.483 14.602 171.714 105.344 197.756 134.45 26.043 29.106 70.468 81.191 73.532 91.915 3.064 10.723-2.298 29.872-2.298 29.872s21.957 7.66 26.426 21.83c4.468 14.17-76.979 85.915-82.723 87.319-5.745 1.404-19.532-9.191-19.532-9.191s-41.362-.383-68.936-8.043-51.277-46.982-75.841-80.442c0 0-14.553-2.681-22.213-13.021-7.209-9.732-8.426-23.745-8.426-23.745s-6.255 6.128-22.468 3.83-77.538-15.293-127.022 8.8c27.175-49.018 67.946-139.459 61.884-188.426-2.729-22.045-49.138-2.022-51.16-24.511z" fill="url(#b)"/><path d="M681.699 434.649c-31.787 61.66-72.383 139.021-86.17 171.191-4.128 43.252-28.639 51.678-82.256 64.699-78.47 19.057-314.127-16.444-314.127-16.444-105.604-68.542 18.711-244.797 114.894-407.872 0 0 109.188 28.947 197.656-25.436-61.787 17.617-37.06 57.774-33.614 124.372 2.211 42.728 66.043 83.745 70.383 118.979-2.592 34.562-11.022 55.124-16.383 75.422 15.702-17.617 40.447-71.278 44.724-76.954 28.085-37.277 95.844-106.71 97.923-101.04 10.181 27.77 13.134 53.797 6.971 73.082z" fill="url(#c)"/><g fill="#17191f"><path d="M634.378 528.876a2.5 2.5 0 0 1-2.224-3.639c9.032-17.669 18.793-36.554 28.835-55.964a2.5 2.5 0 0 1 4.441 2.297c-10.039 19.404-19.797 38.284-28.824 55.942a2.5 2.5 0 0 1-2.228 1.363zm-102.297 13.185a2.499 2.499 0 0 1-2.416-3.139c1.243-4.705 2.63-9.359 4.098-14.287 4.782-16.044 10.199-34.222 12.19-60.433-2.042-15.552-16.489-32.696-31.78-50.842-18.367-21.797-37.359-44.336-38.587-68.072a2.5 2.5 0 1 1 4.993-.259c1.142 22.058 19.583 43.943 37.418 65.108 15.862 18.824 30.844 36.604 32.95 53.694.02.163.024.328.012.493-2.016 26.884-7.535 45.401-12.403 61.738l-.312 1.048c9.267-14.056 19.762-34.369 27.302-48.965 5.13-9.929 7.872-15.197 9.264-17.045a2.5 2.5 0 1 1 3.993 3.009c-1.203 1.596-4.73 8.424-8.815 16.331-9.959 19.277-25.009 48.408-36.039 60.782a2.498 2.498 0 0 1-1.867.837zm223.521-23.354a2.5 2.5 0 0 1-2.499-2.462c-.428-27.954 2.657-70.377 12.594-105.608a2.5 2.5 0 0 1 4.813 1.358c-9.791 34.712-12.829 76.573-12.407 104.174a2.5 2.5 0 0 1-2.461 2.538h-.039zm165.456 120.272a2.502 2.502 0 0 1-2.449-2.01c-8.623-43.116 4.253-79.385 34.444-97.02 19.585-11.44 42.377-11.581 55.426-.344a2.5 2.5 0 0 1-3.263 3.789c-11.457-9.866-31.871-9.508-49.642.873-28.262 16.508-40.248 50.796-32.062 91.721a2.5 2.5 0 0 1-2.454 2.991z"/><ellipse cx="1111.222" cy="430.953" rx="64.617" ry="56.22" transform="matrix(.40001314 -.9165094 .9165094 .40001314 271.747 1277.012)"/><path d="M953.704 605.338a4.5 4.5 0 0 1-4.414-5.402c5.192-25.384 30.19-46.196 44.667-56.364l130.93-97.241a4.5 4.5 0 1 1 5.366 7.226l-130.979 97.277a3.496 3.496 0 0 1-.098.071c-13.375 9.387-36.496 28.473-41.07 50.835a4.502 4.502 0 0 1-4.404 3.599z"/></g><path d="M1031.252 564.454c-21.255-12.447-56.125 15.153-73.957 40.909-17.833 25.756-4.876 46.279 8.489 57.855 22.545 19.529 51.956 21.765 45.829-2.748-3.061-12.246-13.923-16.721-20.332-20.377s54.725-19.256 54.725-19.256 2.922-46.033-14.754-56.383z" fill="#fff"/><path d="M999.27 680.858c-10.181 0-23.59-5.759-35.124-15.75-9.634-8.345-29.787-31.011-8.907-61.168 17.263-24.934 53.764-55.412 77.276-41.643 18.789 11.003 16.109 56.757 15.986 58.699a2.5 2.5 0 0 1-1.877 2.264c-21.448 5.473-44.746 12.438-51.731 15.968 6.444 3.488 16.177 8.76 19.145 20.636 2.913 11.653-1.995 16.675-5.179 18.631-2.604 1.6-5.883 2.363-9.589 2.363zm20.004-117.003c-19.778 0-45.83 22.575-59.924 42.931-17.907 25.863-2.63 45.274 8.069 54.542 15.334 13.283 32.09 17.041 38.822 12.906 4.466-2.744 4.067-8.67 2.945-13.158-2.435-9.743-10.333-14.019-16.68-17.454-.871-.471-1.699-.92-2.465-1.357-1.243-.709-1.88-1.912-1.704-3.217.284-2.106.607-4.492 29.598-13.068 10.727-3.173 21.516-6.022 25.67-7.104.579-13.579-.825-44.773-13.617-52.264-3.243-1.899-6.861-2.757-10.715-2.757z" fill="#17191f"/><path d="M476.028 246.59c-22.979-27.574-72.875-38.921-128.809-33.327-61.277 6.128-217.712 88.957-250.329 202.62-25.277 88.085 53.617 191.489 53.617 191.489s23.745 75.064 55.915 101.106c32.17 26.043 114.894 17.617 114.894 17.617l24.51 22.213c37.197 21.807 108.766-53.106 88.851-90.383l-16.851-14.553s6.128-13.787 3.83-32.936-55.799-94.376-93.447-114.128c8.146-11.585 5.619-22.244-5.362-32.17 0 0 17.617 4.596 25.277-22.213s56.617-63.489 56.617-63.489 94.752-103.688 71.287-131.846z" fill="url(#d)"/><path d="M434.677 660.426a2.49 2.49 0 0 1-1.633-.608l-16.851-14.553a2.5 2.5 0 0 1-.65-2.907c.057-.129 5.812-13.452 3.632-31.623-1.08-9.001-14.941-32.385-32.959-55.603-21.27-27.407-42.834-48.041-59.166-56.609a2.497 2.497 0 0 1-.884-3.652c7.146-10.163 5.56-19.339-4.993-28.878a2.5 2.5 0 0 1 2.308-4.273c.609.15 15.394 3.485 22.242-20.48a2.5 2.5 0 0 1 1.236-1.524c19.417-10.259 39.382-20.248 39.581-20.348a2.5 2.5 0 1 1 2.236 4.472c-.196.098-19.482 9.748-38.55 19.805-5.296 17.431-14.953 22.014-21.426 23.007 7.871 9.227 8.872 18.873 2.972 28.764 16.605 9.551 37.712 30 58.395 56.651 18.809 24.237 32.779 48.117 33.974 58.073 1.904 15.869-1.741 28.1-3.338 32.499l15.511 13.396a2.5 2.5 0 0 1-1.635 4.392z" fill="#17191f"/><rect fill="#17191f" height="42.383" rx="21.191" transform="matrix(.99374455 -.11167706 .11167706 .99374455 -62.162 121.028)" width="167.763" x="965.321" y="594.172"/><path d="M509.143 228.104c-72.712-23.829-87.468 55.189-97.544 190.757-.357 4.8 3.712 8.758 8.499 8.262 21.981-2.278 77.397-7.046 98.068.249 26.043 9.191 30.298 36.766 30.298 36.766s.341-38.298-14.979-64.34c-64.256-91.939-71.832-153.311-24.343-171.694z" fill="url(#e)"/><path d="M668.973 320.785c-2.345 11.974-8.881 28.161-18.638 44.936-25.607 44.023-58.264 72.167-73.529 96.885 0 0 44-32.936 59.319-33.702 18.061-.903 35.058 7.51 45.968 14.569 5.24 3.39 12.109-.528 11.897-6.765-2.183-64.364-13.919-157.089-28.376-196.23 0 0 10.636 43.157 3.359 80.306z" fill="url(#f)"/><path d="M548.462 466.639a2.502 2.502 0 0 1-2.468-2.119c-.041-.258-4.39-26.224-28.659-34.79-20.104-7.095-74.518-2.448-96.979-.12a10.197 10.197 0 0 1-8.176-2.836 10.207 10.207 0 0 1-3.074-8.098c7.728-103.973 18.427-168.335 50.248-189.639 13.414-8.981 29.956-10.063 50.568-3.309a2.5 2.5 0 1 1-1.557 4.751c-19.055-6.244-34.176-5.357-46.229 2.712-30.128 20.171-40.43 83.42-48.043 185.854a5.22 5.22 0 0 0 1.572 4.141 5.208 5.208 0 0 0 4.177 1.449c22.799-2.362 78.099-7.054 99.158.379 27.141 9.579 31.753 37.556 31.937 38.742a2.5 2.5 0 0 1-2.473 2.882zm28.345-1.532a2.501 2.501 0 0 1-1.5-4.502c1.821-1.364 44.794-33.403 60.692-34.198 18.655-.933 36.103 7.624 47.451 14.967 1.658 1.072 3.672 1.132 5.387.16 1.729-.979 2.721-2.752 2.654-4.742-2.138-63.038-13.537-155.687-28.223-195.448a2.5 2.5 0 1 1 4.69-1.732c14.859 40.228 26.378 133.586 28.53 197.011a10.212 10.212 0 0 1-5.187 9.262 10.17 10.17 0 0 1-10.567-.313c-10.731-6.943-27.161-15.038-44.485-14.172-11.938.597-45.876 24.173-57.946 33.207a2.49 2.49 0 0 1-1.496.499z" fill="#17191f"/><path d="M1094.171 584.977c5.042 11.563 15.076 25.17 14.891 34.127-.503 24.284 27.48 30.146 29.433.01.557-8.593-2.92-25.158-6.328-34.464-8.787-24-23.953-31.211-36.015-26.672-9.463 3.561-6.147 17.445-1.98 27z" fill="#fff"/><path d="M1123.996 642.075c-.192 0-.382-.004-.573-.012-8.397-.359-17.161-8.545-16.861-23.011.109-5.284-4.215-13.171-8.397-20.798-2.236-4.078-4.548-8.295-6.285-12.278-2.528-5.797-6.298-16.637-3.146-24.097 1.261-2.985 3.461-5.085 6.537-6.242 5.757-2.166 11.879-1.899 17.704.773 6.313 2.895 15.174 9.995 21.539 27.38 3.526 9.63 7.052 26.572 6.475 35.486-1.094 16.881-9.706 22.799-16.993 22.8zm-20.866-82.878c-2.064 0-4.111.373-6.098 1.12-1.768.665-2.976 1.813-3.692 3.509-1.746 4.13-.578 11.664 3.123 20.152 1.646 3.776 3.903 7.892 6.086 11.872 4.705 8.581 9.149 16.685 9.012 23.305-.233 11.289 6.047 17.654 12.076 17.912 5.164.219 11.474-4.394 12.363-18.116.521-8.055-2.833-24.3-6.181-33.443-5.773-15.767-13.479-22.055-18.928-24.554-2.553-1.171-5.17-1.758-7.761-1.758z" fill="#17191f"/><path d="M1069.552 579.196c6.122 11.724 12.498 34.17 11.453 43.505-2.833 25.309 25.829 34.089 30.732 2.807 1.398-8.919 1.005-33.254-2.48-43.044-8.856-24.879-24.723-31.92-34.432-27.567-8.93 4.004-10.909 13.504-5.272 24.299z" fill="#fff"/><path d="M1095.701 648.043a14.16 14.16 0 0 1-1.866-.124c-8.677-1.165-16.993-10.497-15.314-25.496.925-8.263-4.825-29.888-11.185-42.07-3.485-6.675-4.356-13.003-2.518-18.299 1.455-4.191 4.561-7.455 8.984-9.438 4.499-2.017 9.879-1.886 15.154.366 9.476 4.047 17.522 14.22 22.657 28.644 3.757 10.556 3.937 35.706 2.595 44.27-2.582 16.471-11.191 22.148-18.506 22.148zm-15.058-91.849c-1.708 0-3.329.327-4.795.984-3.179 1.425-5.3 3.617-6.306 6.515-1.355 3.905-.564 9 2.227 14.346 6.209 11.893 12.838 34.966 11.721 44.94-1.326 11.842 4.684 19.135 11.011 19.984 5.41.726 12.521-3.51 14.767-17.842 1.439-9.186.828-32.847-2.366-41.819-6.289-17.667-15.173-23.699-19.91-25.722-2.161-.923-4.316-1.386-6.349-1.386zM838.805 739.731l-3.179-18.521c-4.717-27.483 13.892-53.535 41.42-57.984l112.398-15.409c10.301-2.482 13.437-17.272 12.128-28.404-1.532-13.021-10.904-22.149-23.106-22.149l-134.553 8.681s-40.34-55.149-89.872-42.894-54.128 45.957-88.34 61.787c-34.213 15.83-138.638 38.043-138.638 38.043-13.004 2.98-16.54 18.412-13.249 31.667 3.547 14.29 12.868 21.059 22.696 19.141l87.463-14.912c38.261-6.523 74.923 18.079 83.387 55.958l5.32 23.805 126.128-38.809z" fill="#17191f"/><path d="M1041.354 589.93c6.079 11.746 12.361 28.405 11.07 37.71-3.499 25.225 24.921 34.758 30.647 3.617 1.633-8.879.04-26.846-2.112-37.012-7.111-33.596-22.471-39.015-31.17-37.432-8.699 1.582-19.584 11.575-8.435 33.118z" fill="#fff"/><path d="M1066.82 653.366c-.762 0-1.509-.061-2.235-.178-8.643-1.393-16.71-10.941-14.637-25.891 1.158-8.346-4.597-24.204-10.814-36.217-6.86-13.255-5.424-21.891-3.011-26.802 2.541-5.171 7.482-8.881 13.219-9.925 4.135-.752 25.222-2.39 34.062 39.374 2.044 9.654 3.919 28.224 2.125 37.982-2.964 16.119-11.476 21.656-18.71 21.657zm-14.122-94.316c-.836 0-1.658.076-2.461.222-4.184.761-7.782 3.456-9.626 7.21-2.732 5.562-1.708 13.273 2.964 22.299 6.099 11.784 12.725 29.122 11.326 39.202-1.637 11.803 4.178 19.251 10.48 20.268 5.384.868 12.608-3.18 15.231-17.446 1.516-8.24.11-25.608-2.099-36.042-5.599-26.452-16.578-35.712-25.815-35.712zm-553.71 920.641c97.918-17.456 163.659-110.322 147.582-208.476l-56.539-345.187c-13.165-80.376 41.777-156.052 122.279-168.425l128.508-19.751c60.363-9.277 116.911 31.868 126.655 92.158l26.823 166.06-84.255 441.957-193.584 53.705a604.632 604.632 0 0 1-70.314 15.069l-200.361 30.613c-62.687 9.578-104.08-29.684-104.08-29.684" fill="#17191f"/><path d="M341.686 1518.733c-5.229 0-9.866-3.743-10.816-9.071-1.066-5.981 2.918-11.694 8.898-12.76l157.29-28.04c91.475-16.307 153.676-104.173 138.657-195.869l-56.54-345.187c-6.845-41.793 3.087-83.684 27.968-117.954 24.881-34.271 61.636-56.688 103.495-63.121l128.508-19.751c32.081-4.93 64.205 2.871 90.453 21.969 26.23 19.086 43.532 47.227 48.722 79.246l27.577 159.103c1.038 5.986-2.974 11.679-8.96 12.717-5.984 1.038-11.68-2.974-12.717-8.96l-27.588-159.167-.021-.124c-8.745-54.116-59.939-91.367-114.124-83.041L713.98 768.474c-36.01 5.534-67.629 24.819-89.034 54.301-21.404 29.482-29.949 65.519-24.06 101.473l56.54 345.187c8.246 50.342-3.446 100.997-32.92 142.633-29.475 41.636-73.365 69.497-123.586 78.45l-157.29 28.04c-.653.117-1.303.173-1.943.173z" fill="#fff"/><path d="M341.686 1521.233a13.477 13.477 0 0 1-13.277-11.133 13.415 13.415 0 0 1 2.217-10.092 13.412 13.412 0 0 1 8.704-5.568l157.29-28.04c90.137-16.069 151.428-102.649 136.629-193.003l-56.54-345.187c-6.954-42.457 3.137-85.012 28.413-119.827s62.615-57.588 105.138-64.123l128.508-19.751c32.741-5.031 65.52 2.93 92.304 22.419 26.765 19.475 44.422 48.195 49.719 80.868l27.573 159.076c.616 3.553-.189 7.133-2.266 10.081s-5.178 4.911-8.73 5.526c-3.553.617-7.133-.188-10.081-2.265s-4.911-5.178-5.527-8.731l-27.612-159.308c-8.528-52.774-58.45-89.096-111.278-80.978l-128.508 19.751c-35.345 5.432-66.381 24.361-87.391 53.299-21.009 28.938-29.396 64.31-23.616 99.6l56.54 345.187c8.353 50.994-3.491 102.305-33.347 144.481-29.857 42.176-74.317 70.398-125.188 79.466l-157.29 28.04c-.786.14-1.587.212-2.382.212zm516.259-793.194c-6.113 0-12.266.467-18.419 1.413l-128.508 19.751c-41.194 6.331-77.366 28.392-101.852 62.119-24.486 33.726-34.261 74.951-27.524 116.081l56.54 345.187c15.239 93.037-47.873 182.188-140.686 198.734l-157.291 28.04a8.436 8.436 0 0 0-5.479 3.506 8.445 8.445 0 0 0-1.396 6.354 8.484 8.484 0 0 0 9.858 6.876l157.291-28.04c49.57-8.837 92.892-36.336 121.985-77.433s40.632-91.095 32.494-140.784l-56.54-345.187c-5.998-36.617 2.705-73.319 24.504-103.346 21.8-30.026 54.003-49.667 90.677-55.304l128.508-19.751c55.533-8.533 108.009 29.648 116.972 85.113l27.605 159.262c.388 2.237 1.623 4.189 3.479 5.497s4.109 1.814 6.347 1.427c4.619-.801 7.725-5.209 6.924-9.827l-27.577-159.103c-5.088-31.39-22.038-58.957-47.729-77.652-20.675-15.044-45.076-22.933-70.183-22.933z" fill="#17191f"/><path d="M1205.407 1319.473c33.155 163.598-47.096 298.117-168.216 300.261-110.445 1.955-215.817-108.771-243.864-247.161-28.047-138.391 28.224-269.945 133.82-295.829 115.802-28.385 245.105 79.131 278.261 242.729z" fill="#fff"/><path d="M1034.332 1622.259c-52.762 0-106.542-25.39-151.762-71.73-45.357-46.481-77.921-109.504-91.693-177.46-13.78-67.995-7.757-136.046 16.959-191.617 25.122-56.48 67.282-94.529 118.715-107.136 23.428-5.743 47.805-6.132 72.457-1.157 23.857 4.815 47.419 14.529 70.033 28.872 32.779 20.79 62.659 50.991 86.41 87.338 25.143 38.477 42.775 82.083 52.406 129.609 9.552 47.132 10.113 92.614 1.667 135.183-7.984 40.244-24.113 76.346-46.643 104.402-32.278 40.196-76.9 62.809-125.646 63.672-.967.017-1.936.026-2.903.026zm-69.737-547.486c-12.5 0-24.844 1.455-36.853 4.398-49.897 12.231-90.858 49.276-115.336 104.312-24.298 54.63-30.204 121.607-16.628 188.592 13.583 67.025 45.678 129.16 90.372 174.961 45.077 46.193 98.733 71.12 150.998 70.197 47.235-.836 90.504-22.785 121.836-61.803 45.845-57.092 62.284-145.115 43.974-235.462-18.505-91.312-69.568-171.206-136.594-213.717-32.724-20.755-67.826-31.479-101.769-31.479z" fill="#17191f"/><path d="M1082.198 1340.492c19.92 98.29-25.202 181.54-96.863 185.716-67.668 3.943-134.374-64.839-152.329-153.433-17.955-88.595 18.172-170.698 83.935-184.041 69.643-14.13 145.337 53.469 165.257 151.759z" fill="#fff"/><path d="M979.788 1528.869c-31.491 0-63.606-15.089-91.041-42.921-28.701-29.118-49.367-69.134-58.192-112.677-8.833-43.583-5.017-86.826 10.745-121.765 16.003-35.475 42.69-58.639 75.144-65.223 34.676-7.035 71.415 5.155 103.455 34.323 32.068 29.194 55.063 71.594 64.75 119.389 11.494 56.716 1.637 112.284-26.367 148.642-18.899 24.537-44.073 38.392-72.8 40.066-1.894.11-3.793.165-5.692.165zm-43.96-339.527c-6.177 0-12.316.609-18.39 1.841-30.835 6.256-56.256 28.41-71.58 62.379-15.334 33.991-19.028 76.152-10.402 118.716 8.634 42.603 28.825 81.725 56.853 110.16 28.063 28.471 61.045 43.126 92.881 41.274 27.237-1.587 51.142-14.771 69.13-38.126 27.131-35.224 36.635-89.286 25.428-144.598-9.477-46.761-31.927-88.201-63.215-116.685-25.168-22.913-53.25-34.962-80.705-34.962z" fill="#17191f"/><path d="M962.8 1352.348c4.225 20.85-4.815 39.168-20.015 40.894-15.009 1.705-30.386-13.448-34.516-33.824-4.13-20.377 4.476-38.638 19.39-40.813 15.104-2.202 30.916 12.893 35.142 33.743zm142.941-273.17c10.34 18.383 15.191 32.553 19.787 59.362 3.845 22.427-24.288 20.748-29.745 16.085-21.064-18-49.742-36.849-76.596-42.894-39.447-10.468-109.915-17.617-167.745 32.17-61.043 52.554-71.362 152.426-67.787 194.17-10.723 3.702-21.83 5.745-21.83 5.745-22.596-75.064-50.17-265.021 59.783-337.964 70.431-25.48 129.142-27.438 129.142-27.438 69.488-2.858 131.204 58.477 154.99 100.764z" fill="#17191f"/><path d="M761.824 1346.317a2.5 2.5 0 0 1-.623-4.921c.119-.031 12.05-3.107 25.699-6.393a2.5 2.5 0 1 1 1.17 4.861c-13.607 3.276-25.501 6.343-25.62 6.373a2.5 2.5 0 0 1-.626.08z" fill="#fff"/><path d="M761.825 1346.317a2.5 2.5 0 0 1-2.393-1.78c-4.64-15.416-19.844-71.012-20.657-139.184-.787-66.034 12.089-119.297 38.271-158.312 17.151-25.558 43.248-44.457 73.482-53.216 56.187-16.277 99.705-17.896 100.138-17.91 1.37-.041 2.536 1.035 2.582 2.415s-1.035 2.536-2.415 2.582c-.427.014-43.366 1.623-98.914 17.715-29.108 8.433-54.225 26.616-70.723 51.2-57.477 85.648-36.238 229.284-16.978 293.268a2.5 2.5 0 0 1-2.395 3.222z" fill="#fff"/><path d="M898.763 987.795c-3.342.314-5.986-2.799-5.132-6.045 9.539-36.231 50.057-35.636 74.67-21.431 18.041 10.412 48.421 37.722 61.015 59.701 1.549 2.704-1.808 5.551-4.222 3.581-57.305-46.746-107.827-37.545-126.331-35.805z" fill="#fff"/><path d="M1026.87 1026.751a5.295 5.295 0 0 1-3.356-1.214c-52.722-43.007-100.161-37.872-120.418-35.68-1.501.163-2.87.311-4.099.426a7.346 7.346 0 0 1-6.281-2.561 7.335 7.335 0 0 1-1.502-6.61c3.607-13.699 11.88-23.594 23.924-28.615 15.736-6.56 37.094-4.34 54.414 5.655 19.219 11.091 49.381 38.716 61.935 60.623 1.293 2.256.809 5.008-1.177 6.693a5.305 5.305 0 0 1-3.439 1.283zm-101.445-43.322c25.079 0 61.721 5.988 101.25 38.234.099.08.199.163.4-.008.201-.17.136-.284.073-.393-11.808-20.606-41.466-48.028-60.096-58.779-13.125-7.575-33.673-12.173-49.99-5.37-10.703 4.461-17.772 12.964-21.013 25.273a2.304 2.304 0 0 0 .48 2.102 2.306 2.306 0 0 0 2 .817c1.208-.114 2.553-.259 4.029-.419 5.691-.616 13.469-1.458 22.867-1.458zm-26.662 4.366h.01z" fill="#17191f"/><path d="M383.06 677.816c-32.17 28.596-50.043 58.936-27.574 79.362 24.522 22.293 65.362-4.596 74.043-15.83s-14.298-92.128-46.468-63.532z" fill="#fff"/><path d="M378.572 768.263c-9.7 0-18.016-3.097-24.768-9.235-7.256-6.596-10.909-14.5-10.859-23.491.118-21.104 20.977-44.053 38.454-59.589 10.015-8.902 20.775-8.909 30.296-.02 11.033 10.299 16.905 28.519 18.918 35.875 3.148 11.506 5.037 25.712.893 31.074-5.858 7.582-26.81 23.276-48.694 25.196a48.69 48.69 0 0 1-4.24.19zm6.149-88.579c-23.974 21.31-36.691 40.633-36.776 55.88-.042 7.513 3.061 14.162 9.222 19.764 6.641 6.037 15.121 8.649 25.207 7.764 19.423-1.705 39.432-15.839 45.176-23.273 1.985-2.569 2.043-12.799-1.76-26.697-3.958-14.462-10.502-27.001-17.507-33.54-7.695-7.183-15.403-7.15-23.562.102z" fill="#17191f"/><path d="M407.257 756.201s15.411 3.376 43.694-5.479c10.501-3.288 41.445-20.008 65.641-25.289 26.64-5.814 25.791-36.05-7.983-33.108-9.63.839-31.821 5.389-42.383 8.886-37.985 12.578-74.944 8.244-74.944 8.244z" fill="#fff"/><path d="M415.728 759.343c-5.665 0-8.724-.638-9.005-.7a2.499 2.499 0 0 1 1.064-4.885c.229.048 15.326 3.06 42.418-5.421 3.385-1.06 9.32-3.725 16.191-6.811 14.07-6.319 33.34-14.972 49.664-18.535 12.272-2.678 17.692-10.666 16.703-17.172-.906-5.958-7.719-12.416-23.936-11.002a2.5 2.5 0 0 1-.434-4.982c19.663-1.712 28.082 7.134 29.313 15.232 1.339 8.81-5.299 19.474-20.58 22.809-15.816 3.452-34.812 11.982-48.682 18.211-7.306 3.281-13.077 5.873-16.746 7.021-16.313 5.107-28.442 6.235-35.971 6.235z" fill="#17191f"/><rect fill="#17191f" height="42.383" rx="21.191" transform="matrix(.98222178 -.18772419 .18772419 .98222178 -123.979 97.65)" width="180.622" x="363.255" y="682.195"/><path d="M503.356 671.125a2.5 2.5 0 0 1-2.099-3.854c9.28-14.409 6.669-22.713 4.145-30.743-1.235-3.929-2.513-7.991-2.241-12.48.796-13.134 13.242-48.779 26.573-85.343a2.5 2.5 0 1 1 4.697 1.713c-12.568 34.474-25.52 71.405-26.279 83.933-.216 3.567.87 7.021 2.02 10.678 2.601 8.274 5.838 18.57-4.711 34.95a2.498 2.498 0 0 1-2.104 1.147z" fill="#17191f"/><circle cx="622.612" cy="138.242" fill="#f8b098" r="88.066"/><path d="M661.373 343.155c-22.579 57.521-61.39 43.801-95.81 33.882-38.224-11.015-81.361-44.545-74.818-77.57 18.848-45.173 33.399-112.44 46.976-184.721 46.276-75.204 107.143-26.842 170.628 43.689-7.884 73.619-26.273 132.479-46.976 184.721z" fill="#fff"/><path d="M521.203 225.218c-.206 0-.414-.025-.622-.079a58.37 58.37 0 0 1-11.447-4.246 2.5 2.5 0 1 1 2.223-4.479 53.348 53.348 0 0 0 10.465 3.881 2.501 2.501 0 0 1-.618 4.922z" fill="#a13727"/><path d="M563.777 184.934c-.896 7.129 7.969 14.343 19.659 16.113 11.54 1.747 21.551-2.473 22.495-9.426.948-6.976-7.566-14.188-19.154-16.111-11.74-1.948-22.102 2.271-23.001 9.424z" fill="#fff"/><path d="M588.591 203.94c-1.803 0-3.656-.139-5.529-.422-13.285-2.011-22.845-10.311-21.766-18.896.383-3.043 2.07-5.759 4.881-7.854 4.953-3.693 12.807-5.085 21.009-3.724 13.047 2.165 22.369 10.473 21.222 18.914-.405 2.982-2.08 5.652-4.842 7.721-3.701 2.771-9.067 4.262-14.976 4.262zm-7.48-26.403c-4.798 0-9.123 1.136-11.945 3.24-1.718 1.281-2.697 2.785-2.909 4.469-.714 5.677 7.324 11.78 17.553 13.329 6.615 1.001 13.035-.109 16.759-2.898 1.691-1.266 2.662-2.744 2.886-4.392.754-5.552-7.07-11.646-17.086-13.308a32.172 32.172 0 0 0-5.258-.44zm-17.334 7.397h.01z" fill="#17191f"/><g clip-path="url(#g)"><path d="M598.086 188.558c-.951 7.508-5.468 13.037-10.114 12.37-4.67-.671-7.722-7.344-6.792-14.928.933-7.611 5.513-13.194 10.205-12.447 4.667.743 7.656 7.47 6.701 15.006z" fill="#17191f"/></g><path d="M646.387 198.417c-.988 6.783 6.954 13.587 17.614 15.198 10.529 1.592 19.8-2.486 20.826-9.109s-6.605-13.449-17.172-15.2c-10.699-1.773-20.277 2.306-21.268 9.11z" fill="#fff"/><path d="M668.561 216.464c-1.6 0-3.25-.122-4.934-.377-12.257-1.853-20.917-9.773-19.714-18.03.438-3.006 2.149-5.676 4.949-7.722 4.664-3.407 11.84-4.714 19.201-3.495 12.044 1.996 20.493 9.924 19.234 18.049-1.079 6.962-8.919 11.575-18.737 11.575zm-5.844-25.067c-4.312 0-8.264 1.045-10.905 2.975-1.179.861-2.648 2.325-2.951 4.405-.774 5.315 6.33 10.978 15.513 12.366 8.951 1.353 17.184-1.862 17.982-7.02.806-5.204-6.113-10.86-15.11-12.35a27.766 27.766 0 0 0-4.529-.376zm-16.33 7.02h.01z" fill="#17191f"/><g clip-path="url(#h)"><path d="M677.709 201.642c-1.045 7.15-5.311 12.438-9.551 11.832-4.261-.609-6.899-6.939-5.871-14.157 1.032-7.243 5.354-12.581 9.632-11.903 4.257.675 6.839 7.053 5.79 14.228z" fill="#17191f"/></g><path d="M624.855 243.577c-.58 0-1.163-.029-1.75-.089-4.686-.478-8.938-2.813-11.974-6.573-3.255-4.033-4.783-9.401-4.191-14.729a4.502 4.502 0 0 1 8.946.995c-.329 2.958.49 5.904 2.249 8.082 1.516 1.878 3.606 3.041 5.885 3.273 5.075.519 9.737-3.675 10.407-9.344a4.5 4.5 0 1 1 8.937 1.056c-1.17 9.898-9.285 17.33-18.508 17.33zm54.563-59.85c-8.016-1.622-17.374-.347-24.485 4.167-8.131 4.612-13.514-8.809-4.915-12.462 10.626-3.986 21.523-3.354 31.461.75 3.942 1.78 2.094 8.426-2.062 7.545zm-101.569-27.221c5.738-.018 11.433 1.046 16.911 3.015 5.433 1.983 10.702 4.834 15.449 9.082 2.894 2.447 3.393 7.003 1.091 10.055-2.496 3.396-7.433 3.416-10.019.05-2.67-3.414-6.344-6.448-10.425-8.819-4.136-2.399-8.731-4.175-13.471-5.038-4.693-.942-4.268-8.266.464-8.344zm.806 66.081c-.793 6.05-6.093 10.328-11.882 9.57-5.838-.765-9.988-6.356-9.223-12.503.768-6.171 6.186-10.486 12.052-9.623 5.817.856 9.85 6.484 9.053 12.557zm83.602 11.624c-.917 6.111 2.825 11.637 8.317 12.356 5.449.714 10.594-3.577 11.533-9.597.942-6.041-2.694-11.602-8.165-12.407-5.514-.811-10.765 3.515-11.685 9.648z" fill="#17191f"/><path d="M736.997 138.074C736.997 63.198 676.298 2.5 601.423 2.5S465.849 63.199 465.849 138.074c-1.042 61.553 12.745 107 15.809 112.106s11.234 14.809 22.468 15.319c7.214.328 20.426-6.638 25.021-17.362 4.048-9.446 10.213-80.681 10.213-80.681 62.773-35.975 136.565-30.306 162.894 12.255-.381 33.407-9.553 71.273-18.362 99.279 0 0 12.179 7.628 26.021-5.321 14.996-14.029 24.95-77.087 26.843-127.339.16-2.481.242-5.225.242-8.257z" fill="#fff"/><path d="M692.974 283.671c-6.194 0-10.336-2.514-10.411-2.561a2.501 2.501 0 0 1-1.058-2.869c6.591-20.956 17.681-61.409 18.237-97.825-12.409-19.539-35.621-31.53-65.459-33.789-30.116-2.281-62.933 5.655-92.548 22.355-1.023 11.661-6.385 71.026-10.292 80.141-5.164 12.048-19.725 19.224-27.432 18.874-11.063-.503-20.112-9.219-24.499-16.53-3.105-5.175-17.218-51.228-16.165-113.435C463.348 61.94 525.288 0 601.422 0s138.074 61.94 138.074 138.074c0 3.04-.083 5.872-.247 8.417-1.617 42.941-10.313 112.805-27.63 129.004-6.861 6.419-13.47 8.175-18.646 8.175zm-6.052-6.002c3.48 1.324 11.841 3.007 21.282-5.824 13.833-12.94 24.109-74.026 26.053-125.608.16-2.506.24-5.23.24-8.163C734.497 64.696 674.8 5 601.423 5S468.348 64.697 468.348 138.074c-1.036 61.192 12.478 105.862 15.452 110.82.832 1.387 8.475 13.564 20.438 14.108 6.254.284 18.495-6.246 22.61-15.849 3.191-7.445 8.315-60.209 10.02-79.912a2.503 2.503 0 0 1 1.248-1.954c30.77-17.634 65.054-26.032 96.546-23.647 31.784 2.407 56.543 15.461 69.717 36.757.25.403.379.869.374 1.344-.412 36.076-11.057 76.043-17.83 97.927z" fill="#17191f"/><path d="M711.316 173.129c-28.484-46.047-102.299-59.042-170.213-20.122 0 0-1.021 8.298-1.744 14.45 62.773-35.975 136.565-30.306 162.894 12.255-.38 33.335-9.514 71.109-18.305 99.097 7.987.212 11.977-13.66 14.092-20.991 8.074-27.992 12.952-56.192 13.277-84.689z" fill="#17191f"/><path d="M684.138 281.312c-.086 0-.171-.001-.257-.003-.784-.021-1.513-.408-1.968-1.047s-.585-1.453-.351-2.202c6.571-20.918 17.625-61.297 18.181-97.644-12.409-19.539-35.621-31.53-65.459-33.789-30.499-2.31-63.771 5.858-93.682 23a2.5 2.5 0 0 1-3.726-2.461c.724-6.158 1.746-14.464 1.746-14.464a2.5 2.5 0 0 1 1.238-1.864c32.645-18.708 68.681-26.56 101.472-22.11 32 4.343 57.609 19.644 72.11 43.086.25.403.379.869.374 1.344-.312 27.315-4.687 55.234-13.375 85.353-2.31 8.01-6.577 22.801-16.302 22.801zm-60.102-140.069c3.572 0 7.114.132 10.625.398 31.784 2.407 56.543 15.461 69.717 36.757.25.403.379.869.374 1.344-.393 34.395-10.092 72.333-16.845 94.703 3.855-3.889 6.443-12.861 7.72-17.286 8.494-29.444 12.804-56.701 13.18-83.327-13.768-21.801-37.938-36.049-68.147-40.149-31.343-4.254-65.825 3.158-97.229 20.876-.209 1.711-.606 4.962-1.012 8.335 26.175-14.125 54.641-21.651 81.617-21.651z" fill="#17191f"/><circle cx="811.582" cy="621.869" fill="#fff" r="81.223"/><path d="M811.582 705.593c-46.166 0-83.724-37.558-83.724-83.723s37.558-83.723 83.724-83.723 83.723 37.558 83.723 83.723-37.558 83.723-83.723 83.723zm0-162.447c-43.408 0-78.724 35.315-78.724 78.723s35.315 78.723 78.724 78.723 78.723-35.315 78.723-78.723-35.315-78.723-78.723-78.723z" fill="#17191f"/><circle cx="828.465" cy="614.624" fill="#fff" r="67.787"/><path d="M828.464 684.912c-38.756 0-70.287-31.531-70.287-70.287s31.531-70.287 70.287-70.287 70.288 31.531 70.288 70.287-31.531 70.287-70.288 70.287zm0-135.575c-36 0-65.287 29.288-65.287 65.287s29.288 65.287 65.287 65.287 65.288-29.288 65.288-65.287-29.288-65.287-65.288-65.287zM594.38 362.586c-.305 0-.615-.047-.921-.146-22.779-7.348-42.273-20.723-57.94-39.752-13.557-16.467-23.985-36.76-30.993-60.315a3 3 0 1 1 5.751-1.711c10.305 34.638 33.422 79.421 85.024 96.068a3 3 0 0 1-.92 5.856zm37.999.932a3 3 0 1 1 0-6c8.811 0 21.276-9.165 33.347-24.516 12.615-16.045 23.252-36.68 29.183-56.613a3 3 0 1 1 5.751 1.711c-6.138 20.631-17.152 41.993-30.217 58.61-13.592 17.287-27.11 26.807-38.063 26.807z" fill="#17191f"/><path d="m622.712 370.223-20.694-.135c-6.385-.042-9.013-6.385-5.072-12.276 2.329-3.481 6.365-5.784 10.158-5.784h20.9c6.577 0 9.204 6.479 5.064 12.452-2.419 3.491-6.534 5.768-10.357 5.743z" fill="#17191f"/><path d="M476.428 670.087c7.969 10.344 14.103 25.526 14.966 34.759 2.34 25.032 31.806 27.769 30.269-3.452-.438-8.902-3.057-26.348-6.2-36.113-8.152-25.33-26.552-37.004-41.169-30.674-6.517 2.822-20.492 16.493-18.851 24.444 1.081 5.235 14.883 3.116 20.985 11.037z" fill="#fff"/><path d="M507.852 726.715c-8.385 0-17.612-7.355-18.947-21.637-.768-8.223-6.386-22.989-14.458-33.466-2.714-3.523-7.55-4.751-11.817-5.834-4.532-1.15-8.812-2.237-9.635-6.224-2.02-9.784 13.207-24.168 20.306-27.243 6.277-2.719 13.173-2.535 19.94.531 10.721 4.857 19.688 16.4 24.603 31.671 3.137 9.746 5.847 27.193 6.317 36.756.88 17.886-7.693 24.866-15.303 25.409-.333.024-.669.036-1.006.036zm-29.443-58.154c7.854 10.195 14.507 25.694 15.475 36.052 1.093 11.693 8.358 17.525 14.619 17.079 5.358-.382 11.367-5.895 10.664-20.176-.454-9.234-3.152-26.365-6.083-35.47-4.483-13.931-12.468-24.372-21.906-28.648-5.447-2.468-10.941-2.64-15.89-.497-5.982 2.591-18.671 15.466-17.396 21.644.19.921 3.668 1.804 5.969 2.388 4.802 1.219 10.779 2.737 14.548 7.629z" fill="#17191f"/><path d="M450.376 677.412c8.578 10.067 13.594 26.005 14.44 35.36 2.296 25.363 32.135 28.223 30.671-3.407-.417-9.018.041-24.375-5.557-36.706-11.43-25.177-32.317-32.095-42.827-27.414-5.545 2.47-18.086 13.039-19.234 24.146-.459 4.433 17.576 2.234 22.507 8.022z" fill="#fff"/><path d="M481.464 734.941c-8.49 0-17.827-7.468-19.137-21.943-.869-9.603-6.02-24.77-13.854-33.964-1.928-2.262-7.616-3.077-12.187-3.731-5.849-.838-11.374-1.629-10.904-6.169 1.31-12.657 15.152-23.7 20.704-26.172 11.545-5.142 33.997 1.959 46.121 28.664 4.982 10.974 5.356 23.88 5.63 33.304.045 1.556.087 3.006.148 4.32.837 18.097-7.851 25.133-15.546 25.659-.323.022-.649.033-.975.033zm-29.185-59.15c8.595 10.087 14.065 26.126 15.027 36.756 1.074 11.868 8.437 17.806 14.792 17.373 5.444-.372 11.563-5.948 10.892-20.439-.062-1.34-.105-2.819-.151-4.406-.261-8.999-.618-21.324-5.185-31.382-10.644-23.442-30.131-30.352-39.534-26.164-5.391 2.401-16.297 12.065-17.688 21.512 1.199.544 4.378 1 6.563 1.312 5.686.814 12.131 1.737 15.284 5.438z" fill="#17191f"/><path d="M421.207 679.979c8.614 10.036 15.031 31.589 16.124 40.919 2.964 25.294 32.869 27.365 30.571-4.215-.655-9.004-2.245-31.693-8.279-42.499-10.428-18.675-26.902-25.577-38.391-20.598-7.149 3.098-19.022 16.571-20.554 27.295-.331 2.314 18.913-2.785 20.53-.901z" fill="#fff"/><path d="M454.174 742.625c-8.388 0-17.66-7.218-19.326-21.436-1.002-8.548-7.062-29.281-15.161-39.132-1.577-.131-6.089.551-8.872.971-7.563 1.141-10.257 1.458-11.798-.071a2.83 2.83 0 0 1-.815-2.43c1.71-11.974 14.546-25.99 22.035-29.235 11.79-5.109 29.854.695 41.568 21.673 6.237 11.17 7.871 33.637 8.568 43.23l.022.306c1.315 18.068-7.185 25.331-14.864 26.06-.449.043-.902.064-1.357.064zm-34.963-65.577c1.993 0 3.11.39 3.894 1.302 9.067 10.564 15.6 32.785 16.71 42.256 1.387 11.835 8.889 17.579 15.245 16.976 5.432-.516 11.402-6.251 10.349-20.719l-.022-.306c-.616-8.466-2.25-30.954-7.947-41.155-10.267-18.386-25.487-23.739-35.214-19.523-5.871 2.544-15.972 13.599-18.586 23.058 1.811-.157 4.464-.557 6.431-.854 4.282-.646 7.149-1.036 9.141-1.036zm.803 5.058h.01zm-60.399 388.108a2.5 2.5 0 0 1-2.368-3.303l27.149-80.209a2.501 2.501 0 0 1 4.736 1.603l-27.149 80.209a2.502 2.502 0 0 1-2.368 1.699zm7.658 330.893a2.5 2.5 0 0 1-2.35-3.354c10.752-29.651 96.942-108.555 124.625-114.092 24.809-4.961 44.488 1.918 67.276 9.884 2.547.89 5.146 1.799 7.812 2.713a2.501 2.501 0 0 1-1.622 4.73c-2.675-.917-5.284-1.829-7.84-2.723-23.005-8.042-41.178-14.394-64.646-9.701-26.019 5.204-110.766 82.933-120.906 110.893a2.5 2.5 0 0 1-2.35 1.648zm-97.274-895.404a2.5 2.5 0 0 1-1.12-4.737c37.493-18.746 59.589-7.355 60.511-6.861a2.5 2.5 0 0 1-2.352 4.412c-.227-.119-20.951-10.565-55.923 6.921-.359.179-.74.264-1.116.264zm30.836 198.137c-2.874 0-4.465-1.37-5.293-2.52-2.799-3.883-1.774-11.968 3.538-27.904 6.355-19.065 49.93-49.729 51.782-51.025a2.5 2.5 0 1 1 2.867 4.097c-.44.308-44.07 31.003-49.906 48.509-5.512 16.537-5.341 21.853-4.226 23.4.106.147.298.413 1.098.441 3.034-.951 16.5-13.644 27.339-23.861 16.682-15.725 33.931-31.985 42.516-35.826 30.22-13.519 48.17 1.684 48.92 2.338a2.499 2.499 0 1 1-3.287 3.767c-.651-.559-16.42-13.697-43.591-1.541-7.812 3.495-26.285 20.908-41.128 34.9-19.823 18.687-27.077 25.225-30.629 25.225z" fill="#17191f"/><path d="M393.62 693.61c7.526 10.124 17.008 28.705 18.853 37.472 5.002 23.769 33.586 23.151 28.673-6.647-1.401-8.496-6.327-30.79-10.588-39.738-9.71-20.39-27.327-24.475-38.05-17.326-5.009 3.339-37.022 29.593-44.937 56.146 23.682-18.461 16.788-32.44 46.049-29.908z" fill="#fff"/><path d="M429.063 750.437c-7.717 0-16.361-6.129-19.036-18.84-1.738-8.256-10.858-26.334-18.413-36.496a2.5 2.5 0 1 1 4.013-2.983c8.031 10.802 17.407 29.488 19.293 38.449 2.325 11.05 9.887 15.83 15.813 14.717 5.064-.95 10.183-6.873 7.946-20.442-1.52-9.221-6.424-30.765-10.378-39.07-4.623-9.707-11.501-16.249-19.368-18.419-5.425-1.496-10.765-.751-15.038 2.098-4.516 3.011-36.211 28.894-43.927 54.78a2.501 2.501 0 0 1-4.792-1.428c8.156-27.36 40.359-53.787 45.946-57.512 5.42-3.614 12.396-4.618 19.141-2.758 9.287 2.562 17.297 10.052 22.553 21.089 4.506 9.464 9.482 32.425 10.797 40.406 2.824 17.131-4.676 24.804-11.958 26.17-.845.158-1.713.238-2.592.238z" fill="#17191f"/><path d="M1013.108 600.864c6.329 11.421 15.121 27.35 14.592 36.608-1.436 25.101 27.288 32.22 30.445 1.12.9-8.867-2.076-27.585-4.721-36.634-7.149-24.458-16.63-40.148-32.557-39.85-13.938.262-19.965 16.73-7.758 38.756z" fill="#fff"/><path d="M1042.789 661.719c-.368 0-.733-.015-1.093-.043-8.631-.685-17.345-9.45-16.493-24.346.492-8.595-8.399-24.638-14.282-35.254a2.5 2.5 0 1 1 4.373-2.423c6.531 11.784 15.476 27.923 14.901 37.963-.671 11.724 5.628 18.579 11.896 19.076 5.351.422 12.122-4.126 13.566-18.351.828-8.153-1.858-26.186-4.633-35.681-7.764-26.56-17.049-38.298-30.11-38.052a2.509 2.509 0 0 1-.367-.02c-3.726-.481-8.607.228-14.514 2.107a2.5 2.5 0 1 1-1.515-4.764c6.609-2.103 12.006-2.864 16.486-2.324a33.5 33.5 0 0 1 .316-.002c19.777 0 28.825 22.226 34.503 41.652 2.61 8.929 5.781 28.011 4.809 37.588-1.723 16.971-10.445 22.874-17.842 22.874z" fill="#17191f"/></svg></g></svg>