<svg xmlns="http://www.w3.org/2000/svg" viewBox="0 0 3000 2800" width="3000" height="2800"><g transform="translate(95.0 1326.0) rotate(0.0 1402.5 693.5) scale(0.99922128423268 0.9992154681724299)"><svg width="2807.186" height="1388.089" viewBox="0 0 2807.186 1388.089"><path d="M2802.465 860.136c-2.014-18.268-9.471-28.473-23.465-32.115-2.292-.597-17.788-2.885-27.017-4.188a4 4 0 0 1-3.44-4.028c.025-1.481 2.475-148.384-.699-178.338-2.833-19.871-14.279-31.94-34.99-36.895-121.598-29.087-242.615-57.318-334.458-78.663-58.693-13.641-117.856-26.731-173.425-38.971-12.454-2.744-46.425-9.98-46.425-9.98L415.02 470.286s-169.022-4.26-218.055 2.945c-22.38 3.289-39.629 6.131-57.841 12.793-28.698 10.499-50.669 32.095-61.864 60.81-7.877 20.205-11.402 38.187-10.774 54.974 2.344 62.652 7.897 215.053 7.897 221.343a3.999 3.999 0 0 1-3.761 3.993c-10.072.601-30.559 2.007-36.007 3.02-8.734 1.625-24.002 6.668-28.126 22.19-3.875 14.581-2.503 30.077-.65 43.312 1.492 10.66 2.803 21.511 4.07 32.005 2.014 16.673 4.096 33.914 6.947 50.686 4.576 26.917 17.787 39.113 45.6 42.095 7.844.837 119.394-1.876 161.714-2.994l.105-.001a4 4 0 0 1 3.607 5.728c-.063.133-6.386 13.335-8.306 17.681-17.813 40.311-24.096 84.397-18.673 131.034 4.748 40.825 22.61 79.812 53.091 115.879 61.802 73.128 141.596 104.868 237.166 94.341 80.271-8.843 151.827-56.077 191.412-126.353 38.468-68.293 40.427-147.265 5.518-222.369-1.23-2.645-2.275-5.299-3.597-8.659a569.616 569.616 0 0 0-2.382-5.979 4 4 0 0 1 3.706-5.505c.599 0 4.794.03 12.104.083 172.333 1.242 590.114 3.623 747.117-1.059 31.549-.941 533.85-2.04 538.92-2.051a4.053 4.053 0 0 1 3.257 1.665 4.002 4.002 0 0 1 .541 3.618c-.898 2.654-2.211 5.878-3.481 8.997-1.331 3.267-2.706 6.645-3.515 9.153-26.097 80.916-15.258 156.377 32.214 224.289 67.483 96.536 194.884 134.888 309.819 93.265 74.64-27.031 121.636-79.899 139.681-157.138 10.865-46.506 7.329-95.83-10.81-150.791-1.756-5.319-3.468-10.681-5.282-16.358-.884-2.768-1.798-5.627-2.76-8.62a4.002 4.002 0 0 1 3.516-5.214c10.189-.747 74.826-.569 143.259-.381 78.933.216 168.395.461 181.65-.73 15.621-1.405 22.656-8.186 24.284-23.407 1.309-12.252 9.273-99.967 6.134-128.44z" fill="#fff"/><path d="M685.816 1017.257c2.633 6.484 4.086 10.554 5.9 14.456 79.974 172.053-42.887 337.063-200.118 354.383-96.641 10.646-177.816-21.376-240.658-95.735-28.639-33.887-48.81-73.287-54.009-117.999-5.311-45.673.165-90.519 18.987-133.113 1.968-4.453 8.358-17.792 8.358-17.792s-152.419 4.026-162.246 2.972c-29.328-3.144-44.164-16.266-49.117-45.402-4.664-27.434-7.175-55.228-11.036-82.807-2.124-15.175-3.126-30.323.745-44.895 3.902-14.687 16.708-22.388 31.26-25.096 6.334-1.178 30.041-2.695 36.5-3.08 0-6.061-5.343-153.004-7.894-221.194-.736-19.667 4.142-38.872 11.044-56.576 11.676-29.948 34.223-52.14 64.216-63.113 19.299-7.06 37.958-9.957 58.634-12.995 49.824-7.321 218.502-12.986 218.502-12.986S596.502 191.246 676.63 75.237C690.928 54.536 732.723 0 841.379 0c11.34 0 897.334 12.301 915.243 13.17 34.361 1.669 79.591 9.739 108.784 41.427 7.013 7.612 300.242 390.385 315.196 412.09 6.448 9.359 14.485 13.977 25.228 16.343 57.877 12.748 115.744 25.565 173.47 38.981 111.564 25.928 223.09 52.023 334.484 78.669 20.506 4.905 34.717 16.865 38.03 40.292 3.248 30.396.728 178.899.728 178.899s24.097 3.401 27.466 4.278c17.325 4.509 24.501 18.023 26.433 35.548 3.138 28.454-4.548 114.473-6.134 129.303-1.841 17.214-10.66 25.415-27.903 26.966-24.851 2.235-303.116-.484-324.975 1.117 2.946 9.161 5.433 17.073 8.032 24.949 16.525 50.07 23.066 100.91 10.907 152.955-18.449 78.97-65.727 132.29-142.214 159.989-115.348 41.773-245.779 3.515-314.459-94.734-48.84-69.868-58.954-146.538-32.743-227.809 1.64-5.086 5.219-12.902 7.015-18.205 0 0-506.95 1.099-538.809 2.049-189.242 5.646-751.909.98-759.342.98zM485.782 490.873c-3.187 98.401-2.156 194.271 3.371 290.431 4.357 1.183 7.614 2.263 10.952 2.943 47.414 9.649 91.26 27.994 131.918 54.093 51.239 32.891 92.98 75.315 127.02 125.21 1.915 2.806 13.155 19.949 13.155 19.949s68.055-.473 94.959-.521c164.415-.29 450.767-1.122 457.874-1.288 0 0-11.835-480.301-12.75-482.721-293.182-2.693-530.968-5.382-826.499-8.096zm1416.687 486.806c21.97-55.178 46.877-95.016 78.624-128.02 70.981-68.942 147.001-90.07 147.001-90.07s-2.564-90.889-2.97-115.275c-.414-24.902-4.15-122.955-6.274-147.283-4.153-.443-223.484 3.861-294.203 3.844-135.509-.033-473.988-1.654-481.356-1.462 1.298 12.367 6.949 116.618 8.552 158.427 2.347 61.214 4.753 122.426 6.77 183.651 1.295 39.292 1.771 131.638 1.054 140.615 6.29 0 520.477-4.427 542.802-4.427zm-590.938-514.256c0-6.449-7.749-384.94-8.339-390.545-5.424-.38-486.884 1.335-488.877 1.363-28.61.407-50.651 12.759-66.625 36.381-5.851 8.653-234.626 336.215-237.168 340.312 3.61.538 269.651 7.343 351.823 9.896 79.174 2.459 443.695 2.882 449.186 2.593zm29.86.775h759.408c-3.524-5.714-6.066-10.331-9.07-14.624-14.546-20.783-29.24-41.461-43.834-62.21-16.615-23.622-32.386-47.885-49.914-70.806-50.531-66.076-101.672-131.689-152.869-197.252-4.783-6.124-11.138-11.406-17.663-15.717-27.45-18.137-58.053-25.053-90.729-25.151-33.861-.101-67.719-1.181-101.579-1.851-34.352-.679-68.701-1.697-103.057-1.989-40.834-.347-136.673-.101-177.51-.012-2.328.005-11.654.917-15.193 1.663-7.827 129.093 2.01 246.058 2.01 387.949zM163.066 982.909c5.241-15.687 9.086-29.636 14.496-42.949 18.865-46.42 51.502-82.483 88.686-114.742 25.396-22.032 55.266-35.376 88.401-40.786 31.004-5.062 62.284-6.907 93.723-6.307 11.914.228 15.648.368 15.648.368s-.097-34.937-.119-44.897c-.163-73.189-1.016-243.548-1.016-243.548s-155.59.618-221.798.236c-29.81-.172-58.455 4.627-86.179 15.265-40.282 15.455-64.431 49.723-65.123 92.764-.168 10.429.637 20.888 1.317 31.312 1.069 16.388 3.132 32.742 3.511 49.139 1.481 64.22 2.008 128.465 3.81 192.675 1.057 37.641 3.852 75.232 5.934 114.131 21.16-.161 44.582-.529 58.709-2.661zm2565.23-164.107-2.647-61.428c-4.498-.484-6.883-.823-9.28-.985-44.69-3.015-89.395-5.825-134.065-9.103-16.826-1.235-26.43-9.503-30.82-25.635-1.415-5.198-1.951-10.778-1.977-16.188-.146-30.878-.524-104.338-.761-109.446-128.601-27.216-397.706-84.954-397.706-84.954s2.196 163.251 7.931 241.081c27.652-3.212 47.853-1.544 67.344.167 66.426 5.83 124.687 29.25 176.078 70.179 46.921 37.369 83.536 83.833 112.572 136.281 3.837 6.93 7.99 13.686 12.523 21.421h54.626s-4.8-3.492-4.8-13.771c-.167-34.321-1.875-64.582.083-98.785 2.05-35.801 12.886-44.638 48.777-46.332 23.86-1.126 47.745-1.776 71.624-2.458 9.408-.268 18.832-.044 30.498-.044zM736.825 983.552c-4.8-9.406-7.696-16.663-11.893-23.069-60.956-93.025-143.955-150.682-256.91-161.546-37.407-3.598-73.857-.836-108.947 11.604-77.198 27.37-134.333 76.342-161.541 155.871-2.338 6.835-3.535 17.697-3.535 17.697 11.04 0 51.404.375 51.404.375s16.148-17.963 19.964-22.319c24.224-27.654 53.771-48.749 88.213-63.279 98.687-41.635 217.445-15.067 291.78 65.233 4.057 4.383 17.595 19.166 17.595 19.166s48.564.267 73.87.267zm1758.248-4.498c-7.011-12.076-11.606-21.949-17.927-30.554-35.923-48.906-77.72-91.913-127.985-126.407-44.864-30.788-95.246-42.695-148.561-41.591-63.012 1.305-118.478 24.059-166.317 65.128-36.384 31.234-63.693 69.438-87.468 110.325-2.894 4.976-12.888 22.03-12.888 22.03l67.83.331s21.219-33.071 43.367-54.295c22.215-21.288 49.427-41.611 79.36-50.47 28.276-8.368 57.145-12.379 86.969-9.951 60.623 4.935 116.405 22.317 163.136 62.499 15.372 13.218 51.818 53.06 51.818 53.06s44.652-.105 68.666-.105zM543.398 1130.691c-.129-67.026-55.292-112.086-118.633-96.685-43.951 10.687-98.279 64.105-81.788 125.059 4.409 16.296 7.514 38.251 46.323 61.54 24.94 14.966 51.746 20.433 80.24 11.596 44.161-13.696 73.948-54.821 73.858-101.51zm1772.224 6.764c-2.709-16.623-3.262-33.969-8.537-49.734-15.251-45.582-73.099-75.549-119.304-62.594-9.809 2.75-18.997 8.533-27.767 14.039-48.954 30.732-58.576 90.907-21.836 135.177 3.484 4.198 7.063 8.483 11.282 11.878 21.658 17.431 46.3 28.936 73.477 34.402 14.648 2.947 28.725-.658 41.583-8.185 16.155-9.457 29.311-22.155 39.27-38.022 7.03-11.201 10.649-23.481 11.832-36.961zm441.266-152.625c24.267 1.693 27.939-10.911 28.224-18.343 1.279-33.296 3.032-66.58 3.752-99.888.296-13.691-7.63-22.094-21.482-24.341-10.263-1.665-20.769-2.91-31.132-2.693-33.84.71-67.66 2.304-101.494 3.306-21.643.641-34.852 3.358-36.705 24.671-.344 3.961.632 69.608 1.437 95.967.377 12.372 5.137 17.062 17.467 18.167 33.168 2.974 126.531 3.737 139.933 3.154zm-186.469-384.578c-.558 10.936-.574 74.309.018 95.711.151 5.463.165 10.986 1.023 16.357.918 5.75 4.208 10.941 10.233 11.492 12.103 1.107 37.051 4.503 37.051 4.503l-.399-118.008zM77.707 986.397l-8.496-128.396c-6.52.623-21.451 1.258-31.379 4.082-6.238 1.775-8.612 6.568-8.241 12.562.398 6.426 1.337 12.828 2.232 19.214 2.887 20.61 7.071 41.123 8.521 61.831 2.223 31.766 1.435 31.821 37.363 30.707zm551.723-429.01c-27.761-1.279-55.565-1.616-83.353-2.286-2.469-.06-5.248-.312-7.346.671-2.406 1.128-5.303 3.158-6.096 5.45-3.991 11.541 5.285 24.63 17.685 24.779 19.859.239 39.736.308 59.583-.286 9.372-.28 18.716-1.449 28.217-2.498 4.466-.493 7.899-4.17 8.106-8.659.615-13.274-3.31-16.549-16.796-17.171zm887.805 7.293c-32.493-.26-93.526 2.596-114.832 3.653-4.831.24-8.694 4.057-9.061 8.88-1.148 15.097 7.383 23.631 24.775 23.2 30.333-.751 60.641-2.538 90.953-4.018 6.014-.294 12.018-.768 18.153-1.263 6.488-.524 11.631-5.792 11.88-12.297.518-13.56-5.551-18.024-21.868-18.155z"/></svg></g><g transform="translate(838.0 1971.0) rotate(0.0 221.0 88.5) scale(1.0189285574323002 1.0188692278467897)"><svg width="433.789" height="173.722" viewBox="0 0 433.789 173.722"><path d="M261.095 99.828c-23.281-1.227-76.474-4.731-76.474-4.731s-.787 44.397-2.428 59.727c-1.33 12.418-2.248 13.198-13.939 15.397-20.697 3.893-48.351 5.004-69.236.927-14.211-2.775-19.242-7.514-18.188-22.034 1.041-14.334 1.86-59.632 1.86-59.632s-49.89-2.31-66.285-3.235C2.122 85.442.349 83.861.177 69.35-.011 53.418-.089 37.479.142 21.548.365 6.192 2.585 3.272 18.287 2.181 38.625.767 59.045.323 79.439.011c13.953-.214 16.252 2.857 16.766 16.6.651 17.376 3.026 60.085 3.026 60.085l70.905 1.672s3.798-46.541 4.02-55.982c.355-15.06 6.942-22.085 21.641-22.164 15.933-.086 35.871.444 51.801.24 8.367-.107 13.354 3.465 14.83 11.488 2.508 13.624 3.979 52.565 4.395 57.483h76.324c.933-17.358 2.147-32.678 2.461-48.016.268-13.074 6.396-20.847 19-20.937 16.399-.117 34.822.143 51.199.945 12.426.609 19.061 6.828 17.836 19.071.144 21.412-1.568 35.691-.049 53.526 1.284 15.084-4.106 20.728-19.815 21.536-12.906.664-52.542.019-60.743.019-1.009 10.384-2.542 43.578-2.715 52.884-.345 18.449-2.845 21.261-27.261 21.849-13.376.322-26.874-1.016-40.191-2.635-12.534-1.524-24.294-3.444-22.59-20.163.708-6.92.816-40.761.816-47.684z"/></svg></g><g transform="translate(707.0 80.0) rotate(0.0 836.0 1056.5) scale(1.000865581118599 1.0006217777539947)"><svg width="1670.554" height="2111.687" viewBox="0 0 1670.554 2111.687"><path d="M1664.022 1401.043c-3.509-8.302-7.66-15.237-12.337-20.613a2147.099 2147.099 0 0 1-5.259-6.074c-11.043-12.786-22.463-26.007-35.266-36.93-17.78-15.168-35.476-31.005-52.589-46.321-36.137-32.341-73.503-65.784-113.558-94.601-5.909-4.251-14.353-10.942-14.71-11.225a4 4 0 0 1-.711-5.538c17.306-23.017 23.777-41.189 23.878-67.052.058-14.977-3.493-28.984-7.253-43.814-1.396-5.505-2.839-11.197-4.059-16.877-12.393-57.706-27.276-107.558-45.501-152.406-11.632-28.626-25.183-58.645-45.396-84.237-29.208-36.983-67.203-67.961-116.156-94.703-22.751-12.428-46.888-21.013-71.739-25.515-7.759-1.406-17.773-2.478-27.459-3.513-3.7-.396-7.288-.78-10.58-1.166a4 4 0 0 1-1.777-7.284c4.72-3.197 11.956-8.263 13.263-9.513 24.386-23.323 42.758-52.827 57.816-92.848 20.791-55.258 28.626-116.96 24.656-194.18-1.15-22.385-6.598-54.613-18.434-77.935-3.619-7.13-15.606-24.694-15.727-24.871a3.999 3.999 0 0 1-.696-2.365c.999-36.994 6.533-79.209 15.184-115.822 7.825-33.119 12.229-63.798 13.464-93.79.02-.484.046-.973.073-1.464.276-5.101-.002-6.76-2.374-7.933-3.84-1.897-7.259-1.34-10.755 1.755-1.27 1.125-2.602 2.021-4.288 3.155-.843.568-1.801 1.212-2.916 1.997a3.999 3.999 0 0 1-6.287-2.912c-.252-2.808-.407-5.391-.557-7.888-.312-5.2-.581-9.69-1.617-13.832-1.012-4.043-3.41-8.02-5.703-9.455-.877-.548-3.545-2.219-9.499 3.983-2.795 2.912-5.281 6.12-8.159 9.833a361.412 361.412 0 0 1-4.244 5.404 3.999 3.999 0 0 1-7.029-1.678c-.57-2.69-1.07-5.23-1.547-7.66-1.013-5.154-1.887-9.604-3.135-13.97-1.694-5.923-5.378-8.948-11.594-9.521-4.21-.389-6.002 1.316-8.336 7.931-2.924 8.286-5.662 16.824-8.31 25.081-2.431 7.58-4.944 15.418-7.608 23.085l-1.089 3.136c-5.605 16.144-11.401 32.837-18.219 48.855-.353.828-.764 1.847-1.224 2.985-4.607 11.404-8.593 20.197-14.409 21.086-1.344.207-3.935.142-6.184-2.599-3.466-4.225-5.809-8.784-7.875-12.808-1.198-2.331-2.329-4.532-3.535-6.393-.857-1.322-1.701-2.663-2.547-4.007-3.144-4.997-6.114-9.718-9.848-13.65-5.229-5.507-11.473-8.171-17.581-7.499-6.291.692-11.995 4.805-16.06 11.579-4.564 7.608-6.396 15.699-5.599 24.734 2.622 29.721 8.367 53.139 18.079 73.7 6.146 13.011 12.078 25.843 18.358 39.428 2.787 6.028 5.602 12.118 8.469 18.294a4 4 0 0 1-.902 4.612c-11.354 10.569-12.975 24.826-13.915 42.365-1.434 26.779-2.199 50.175-2.341 71.522-.17 25.598-5.958 50.715-17.693 76.788-9.822 21.82-24.147 39.897-42.579 53.727-12.316 9.242-25.267 13.832-39.592 14.032-1.494.021-2.987.031-4.467.031-51.11.001-93.973-12.463-130.926-38.046-11.465-7.938-22.838-16.364-33.837-24.513-13.407-9.934-27.27-20.204-41.321-29.601a2112.316 2112.316 0 0 1-7.037-4.731c-24.21-16.32-49.244-33.196-78.98-38.376-6.304-1.098-12.801-1.502-19.68-1.932-3.281-.204-6.673-.416-10.152-.71a4 4 0 0 1-3.659-3.815c-.178-4.16-.314-8.302-.45-12.429-.313-9.527-.61-18.525-1.387-27.657-1.219-14.335 4.667-24.094 17.995-29.833 11.096-4.778 22.352-10.285 32.284-15.145 8.694-4.253 12.402-10.878 11.336-20.254-.385-3.383-.732-6.776-1.08-10.169-1.049-10.237-2.133-20.823-4.281-30.891-2.72-12.751-3.516-27.657 11.212-41.529 4.251-4.003 6.449-8.538 6.532-13.479.094-5.579-2.657-11.475-7.745-16.601-3.871-3.9-8.575-7.217-12.242-9.67-12.772-8.547-18.376-19.617-17.131-33.84 1.095-12.505-1.171-25.378-7.131-40.513-12.997-33.003-35.734-57.401-67.58-72.516C533.1 7.156 501.524 1.611 469.327 4.952c-36.63 3.801-64.922 17.706-86.491 42.51-1.542 1.773-9.071 9.704-11.483 11.836a4 4 0 0 1-4.684.446c-2.838-1.677-5.596-3.372-8.263-5.011-5.646-3.469-10.979-6.746-16.534-9.555-26.647-13.478-55.523-16.059-81.308-7.265-25.277 8.62-46.066 27.759-58.535 53.892-20.845 43.683-15.703 88.024 14.869 128.229 29.848 39.252 67.722 54.423 112.571 45.093 3.879-.807 9.362-2.835 9.417-2.856a4.003 4.003 0 0 1 5.283 2.819c.046.169 6.346 22.007 56.22 49.599 20.918 11.573 40.876 13.072 41.075 13.086a4.003 4.003 0 0 1 3.703 3.552c.042.378 4.191 38.034 5.659 54.26a4.002 4.002 0 0 1-3.984 4.361c-2.242 0-4.491-.023-6.746-.046-5.002-.051-10.175-.104-15.211.111l-.162.007c-7.182.307-14.609.624-21.625 1.85-68.956 12.052-126.687 47.562-171.59 105.544-46.17 59.617-76.939 129.221-91.453 206.878-6.637 35.515-8.729 71.695-9.9 102.402-.424 11.137-16.92 184.729-23.808 234.645-3.183 23.067-6.526 46.502-9.76 69.165-1.283 8.988-2.565 17.976-3.841 26.965-5.938 41.825-4.964 75.705 2.894 100.699a4.003 4.003 0 0 1-.562 3.527c-.038.052-3.802 5.326-7.423 11.175-3.458 5.587-7.019 11.238-10.462 16.703-10.627 16.869-21.615 34.311-31.029 52.117-17.58 33.251-30.213 65.161-38.619 97.552-4.307 16.596-4.698 34.5-1.196 54.735 1.164 6.728 3.748 11.299 7.472 13.22 3.941 2.031 8.514.662 11.658-.846 2.884-1.383 5.87-4.708 6.777-5.872a4.001 4.001 0 0 1 6.984 1.28c.027.089 2.738 8.927 3.658 11.657 1.909 5.663 5.261 8.551 10.549 9.087 4.097.417 6.47-1.405 9.766-7.494l1.045-1.917c1.57-2.87 3.053-5.581 4.278-8.402 2.843-6.546 5.694-13.225 8.452-19.684 2.381-5.577 4.761-11.153 7.167-16.719 1.529-3.537 8.46-16.625 10.301-19.451a4 4 0 0 1 7.206 1.113c.081.292 8.235 29.364 18.833 43.001 5.039 6.484 9.989 11.203 14.712 14.024 6.529 3.901 13.469 3.344 19.041-1.527 4.954-4.331 6.448-10.353 4.44-17.898-.922-3.467-2.244-6.837-3.642-10.406-.611-1.56-1.222-3.119-1.8-4.687-6.792-18.447-2.856-42.271 9.155-55.417a4 4 0 0 1 6.791 1.571c.328 1.117.631 2.226.931 3.327.619 2.268 1.203 4.409 1.964 6.427.665 1.76 1.288 3.546 1.892 5.274 2.867 8.208 5.574 15.959 12.487 21.208 7.726 5.865 15.498 7.815 21.886 5.493 6.071-2.208 10.515-8.258 12.515-17.036 2.271-9.967 3.516-20.457 4.72-30.601.234-1.971.468-3.94.708-5.906 4.219-34.442 13.847-63.797 24.04-94.874 1.182-3.604 2.377-7.247 3.577-10.939a4 4 0 0 1 1.028-1.643c4.848-4.673 13.782-15.129 28.817-38.408l.478-.739c13.034-20.083 22.164-42.606 27.91-68.857 10.968-50.098 12.989-100.628 14.229-152.301.087-3.638.366-7.278.636-10.798.125-1.622.249-3.243.354-4.865a4.001 4.001 0 0 1 7.149-2.195c13.273 17.062 35.837 35.329 51.185 45.081a3.999 3.999 0 0 1 1.849 3.593c-.003.052-.287 5.275-.792 13.049-1.908 29.388.154 53.427 6.486 75.653 15.024 52.729 42.081 98.287 80.42 135.407 16.899 16.361 35.634 31.527 53.752 46.193 6.601 5.343 13.426 10.868 20.075 16.379 9.872 8.183 20.022 16.388 29.837 24.323 13.431 10.858 27.319 22.085 40.737 33.45 17.63 14.931 32.837 32.818 45.199 53.165 10.551 17.366 11.282 35.443 2.174 53.73-3.797 7.624-12.036 20.21-18.249 26.795-19.133 20.284-39.842 32.267-71.479 41.361-27.022 7.769-54.967 13.773-81.992 19.58l-4.037.868c-42.978 9.242-73.338 21.766-98.441 40.608-3.736 2.804-12.29 9.496-13.339 10.387a4.013 4.013 0 0 1-3.104 1.092c-3.802-.327-7.709-.469-11.626-.469-21.579 0-43.522 4.311-50.578 5.83-25.541 5.5-44.203 12.177-60.509 21.648-24.344 14.14-38.16 34.306-41.064 59.938-1.947 17.188-2.15 31.992-.621 45.259l.438 3.8c8.76 76.02 17.818 154.628 38.718 229.793 2.497 8.98 4.592 18.185 6.618 27.086 2.215 9.734 4.506 19.799 7.309 29.48 3.608 12.465 7.608 21.568 12.586 28.649 6.748 9.597 16.975 14.98 28.052 14.773 11.162-.21 21.248-6.013 27.672-15.922 6.066-9.357 10.477-18.483 13.11-27.125 6.399-21.001 11.156-39.801 14.54-57.474 3.027-15.808 5.605-32.008 8.099-47.675 2.281-14.336 4.641-29.16 7.344-43.695 6.461-34.603 21.46-60.118 22.096-61.187a3.998 3.998 0 0 1 5.03-1.626c88.152 38.239 187.387 22.384 255.111 2.349 66.261-19.601 123.123-57.731 180.357-98.403 5.479-3.894 10.415-7.89 14.668-11.88 58.271-54.653 97.486-118.793 116.556-190.638 8.709-32.811 10.256-66.205 4.73-102.09-3.704-24.053-12.635-48.499-28.105-76.93-10.619-19.516-21.895-39.125-32.8-58.09a7640.763 7640.763 0 0 1-12.129-21.144c-13.578-23.783-22.732-46.22-27.986-68.59-5.407-23.021-5.295-44.284.332-63.199 5.807-19.519 17.688-37.25 35.314-52.703 12.872-11.285 25.645-23.162 37.998-34.648 12.412-11.542 25.246-23.477 38.225-34.853 26.855-23.54 55.802-41.395 86.035-53.068 22.577-8.718 44.905-8.28 62.869 1.229 17.93 9.491 30.814 27.65 36.279 51.132 4.479 19.25 8.256 38.962 11.908 58.025 1.608 8.395 3.271 17.074 4.97 25.589 4.535 22.723 13.646 40.906 27.854 55.589 3.019 3.119 18.733 17.279 18.892 17.422a4.004 4.004 0 0 1 1.323 2.993c-.002.436-.199 43.795 2.405 61.468 8.325 56.51 39.15 94.666 91.618 113.405 22.337 7.978 46.807 14.999 72.731 20.868 35.229 7.975 72.155 15.256 109.751 21.639 28.562 4.849 57.767 8.983 86.009 12.98 11.512 1.63 23.417 3.314 35.12 5.026 3.121.457 5.712.743 8.216.658 9.917-.337 18.189-4.576 22.696-11.63 4.424-6.919 4.802-15.599 1.067-24.437zm-775.108-626.34c-10.88 9.945-23.035 21.399-35.903 33.525-12.775 12.039-25.985 24.487-37.724 35.217a3.998 3.998 0 0 1-4.274.724 4 4 0 0 1-2.424-3.593c-.593-28.434-7.469-62.145-13.133-85.419a4.002 4.002 0 0 1 4.679-4.867l86.872 17.54a4 4 0 0 1 1.907 6.873z" fill="#fff"/><path d="M375.151 1637.909c-.489.267 9.73-7.724 13.687-10.694 29.511-22.151 63.863-33.548 100.002-41.319 28.728-6.177 57.552-12.271 85.764-20.381 28.227-8.115 49.46-18.832 69.674-40.261 5.734-6.079 13.857-18.364 17.578-25.834 8.328-16.721 7.91-33.539-2.012-49.87-12.018-19.782-26.785-37.301-44.366-52.19-23.186-19.636-47.147-38.354-70.542-57.746-24.922-20.657-50.856-40.316-74.056-62.778-39.357-38.105-66.401-84.244-81.485-137.184-7.203-25.281-8.314-51.07-6.631-77.009.509-7.844.789-13.007.789-13.007-16.911-10.746-39.278-29.396-52.197-46.001-.337 5.166-.859 10.327-.983 15.498-1.233 51.352-3.273 102.598-14.321 153.061-5.57 25.443-14.702 48.975-28.463 70.179-2.498 3.849-18.338 28.73-29.875 39.849-11.688 35.95-22.801 67.106-27.451 105.063-1.513 12.349-2.743 24.815-5.498 36.91-4.919 21.595-22.947 27.332-40.72 13.841-9.468-7.188-11.864-18.082-15.702-28.256-1.212-3.213-1.979-6.595-2.991-10.038-11.006 12.045-14.577 34.436-8.354 51.337 1.892 5.137 4.151 10.178 5.553 15.446 2.188 8.225 1 16.104-5.673 21.938-7.219 6.311-16.05 6.536-23.725 1.95-6.147-3.672-11.561-9.523-15.82-15.004-11.218-14.436-19.528-44.385-19.528-44.385-1.676 2.573-8.503 15.438-9.98 18.855-5.24 12.122-10.36 24.296-15.622 36.409-1.584 3.648-3.577 7.125-5.475 10.63-2.955 5.459-6.448 10.303-13.687 9.568-7.285-.739-11.669-5.064-13.936-11.789-.948-2.814-3.692-11.761-3.692-11.761s-3.799 4.911-8.207 7.026c-12.083 5.796-22.085.397-24.801-15.299-3.246-18.758-3.565-37.809 1.266-56.422 8.923-34.382 22.42-67.144 38.955-98.417 12.544-23.725 27.477-46.199 41.626-69.055a232.706 232.706 0 0 1 7.57-11.396c-9.882-31.433-7.521-70.887-3.038-102.461 4.548-32.036 9.176-64.061 13.599-96.114 6.672-48.355 23.342-222.937 23.774-234.25 1.315-34.49 3.593-68.894 9.965-102.985 14.352-76.794 44.46-146.92 92.222-208.592 44.261-57.152 101.902-94.423 174.064-107.035 7.325-1.28 14.852-1.595 22.304-1.913 7.389-.316 14.802-.069 22.128-.069-1.481-16.375-5.651-54.182-5.651-54.182s-20.71-1.39-42.739-13.577c-52.664-29.135-58.174-52.168-58.174-52.168s-5.763 2.142-9.995 3.022c-48.934 10.18-87.671-8.583-116.57-46.589-30.654-40.313-37.598-85.633-15.295-132.373 27.135-56.866 88.971-76.944 145.259-48.473 8.401 4.249 16.283 9.524 25.027 14.692 2.19-1.936 9.52-9.632 11.113-11.464C403.12 18.04 433.569 4.641 468.914.973c33.477-3.474 65.539 2.397 95.98 16.845 33.057 15.69 56.169 40.592 69.587 74.664 5.381 13.665 8.677 27.668 7.394 42.327-1.184 13.528 4.547 22.924 15.371 30.167 4.534 3.034 9.03 6.322 12.856 10.177 10.931 11.014 12.378 25.204 1.117 35.81-11.921 11.227-13.19 23.029-10.043 37.782 2.898 13.583 3.849 27.594 5.423 41.443 1.275 11.218-3.513 19.387-13.553 24.299-10.735 5.252-21.488 10.501-32.46 15.225-11.566 4.981-16.674 13.08-15.591 25.821 1.131 13.297 1.267 26.679 1.848 40.254 10.712.907 20.583 1.015 30.181 2.687 33.455 5.827 60.317 25.509 87.554 43.723 25.664 17.161 49.816 36.567 75.212 54.149 39.95 27.658 84.973 37.978 133.06 37.304 14.114-.198 26.092-4.862 37.247-13.232 18.409-13.813 31.972-31.374 41.332-52.169 10.739-23.859 17.165-48.714 17.341-75.172.159-23.91 1.068-47.831 2.347-71.71.879-16.422 2.223-33.015 15.183-45.079-9.221-19.864-17.905-38.834-26.816-57.698-11.237-23.789-16.154-49.071-18.447-75.057-.865-9.803 1.09-18.704 6.154-27.144 9.556-15.927 27.062-18.372 39.971-4.776 5.068 5.338 8.802 11.991 12.851 18.235 3.467 5.348 5.996 12.563 11.146 18.839s12.101-13.586 15.045-20.502c7.197-16.909 13.17-34.357 19.21-51.737 5.552-15.977 10.296-32.236 15.925-48.185 1.935-5.483 4.494-11.32 12.476-10.583 7.999.739 12.971 5.061 15.072 12.406 1.903 6.654 2.977 13.545 4.749 21.899 4.732-5.88 8.336-11.022 12.633-15.499 3.858-4.019 9.221-7.913 14.507-4.604 3.621 2.267 6.36 7.473 7.461 11.874 1.641 6.562 1.491 13.572 2.277 22.333 3.254-2.292 5.205-3.416 6.856-4.877 4.599-4.072 9.724-5.041 15.179-2.346 5.63 2.782 4.727 8.237 4.525 13.147-1.316 31.972-6.211 63.412-13.567 94.545-8.495 35.95-14.08 78.041-15.079 115.01 0 0 12.211 17.87 15.99 25.317 11.339 22.341 17.561 54.233 18.862 79.54 3.426 66.637-1.088 132.489-24.907 195.794-13.37 35.534-31.298 68.031-58.796 94.33-2.14 2.046-13.785 9.934-13.785 9.934 11.771 1.38 27.332 2.731 38.286 4.716 25.685 4.654 50.102 13.464 72.943 25.941 45.014 24.59 85.39 55.23 117.378 95.733 20.228 25.612 33.79 55.256 45.963 85.211 20.111 49.49 34.492 100.854 45.706 153.072 4.379 20.392 11.484 40.189 11.401 61.547-.109 28.164-7.923 47.152-24.681 69.44 0 0 8.659 6.866 14.561 11.112 59.218 42.604 111.076 93.924 166.407 141.126 15.055 12.844 27.888 28.412 40.946 43.421 5.459 6.274 9.745 13.972 13.004 21.682 8.979 21.244-4.129 40.838-27.309 41.626-2.967.101-5.98-.266-8.931-.698-40.422-5.911-80.954-11.185-121.22-18.021-36.825-6.252-73.537-13.435-109.965-21.681-24.726-5.598-49.328-12.478-73.193-21.002-54.738-19.551-85.808-59.428-94.23-116.589-2.679-18.182-2.448-62.073-2.448-62.073s-15.94-14.359-19.089-17.612c-15.317-15.827-24.466-35.355-28.903-57.588-5.556-27.844-10.418-55.85-16.851-83.49-10.753-46.207-49.419-66.675-93.811-49.535-31.398 12.123-59.583 30.207-84.839 52.344-25.852 22.66-50.372 46.839-76.222 69.501-34.745 30.46-44.772 67.775-34.389 111.979 5.648 24.047 15.406 46.222 27.565 67.522 15.067 26.392 30.447 52.616 44.969 79.305 13.377 24.585 24.235 50.244 28.545 78.233 5.376 34.91 4.276 69.463-4.818 103.725-20.139 75.874-60.794 139.17-117.686 192.53-4.71 4.418-9.82 8.48-15.088 12.223-56.585 40.21-114.238 79.069-181.539 98.978-80.829 23.911-176.664 32.697-257.838-2.516 0 0-15.197 25.575-21.602 59.875-5.648 30.371-9.637 61.054-15.446 91.391-3.739 19.525-8.845 38.864-14.642 57.889-3.005 9.862-7.946 19.444-13.58 28.135-14.924 23.019-46.466 23.868-62.352 1.274-6.146-8.741-10.15-19.453-13.157-29.838-5.399-18.65-8.734-37.892-13.938-56.607-21.327-76.702-30.202-155.489-39.276-234.208-1.75-15.184-1.107-30.929.62-46.167 3.191-28.168 18.666-48.796 43.03-62.947 19.207-11.156 40.176-17.469 61.676-22.099 13.145-2.829 40.298-7.422 63.402-5.434zM744.059 613.815c3.484 6.35 6.723 11.295 9.039 16.639 11.675 26.932 24.165 53.584 34.208 81.123 5.463 14.981 13.697 23.025 29.182 25.704 37.379 6.467 74.667 11.243 112.867 8.533 61.458-4.361 118.194-21.598 169.466-56.329 44.821-30.361 74.73-71.703 89.004-123.45 14.236-51.609 21.49-104.454 18.626-158.199-1.544-28.972-6.045-57.38-18.778-84.06-9.647-20.213-23.665-34.899-44.412-44.206-18.783-8.426-37.8-7.897-57.067-5.204-11.89 1.662-20.756 8.846-26.918 19.466-6.913 11.913-10.833 24.562-11.23 38.299-.691 23.89-.873 47.804-2.101 71.666-1.702 33.083-7.691 65.35-22.029 95.543-17.566 36.99-46.803 55.925-87.97 55.377-9.925-.132-19.919-1.043-29.734-2.555-42.865-6.605-80.016-26.879-115.894-49.748-17.218-10.975-33.344-23.675-50.644-34.508-21.083-13.201-41.974-27.303-64.58-37.34-27.236-12.093-55.064-17.896-81.919-7.647-7.656 2.922-25.776 28.247-75.511 23.971-27.839-2.393-52.645-15.74-68.862-40.546-3.466-5.301-7.63-7.06-13.772-6.476-40.684 3.863-79.731 13.366-114.394 35.828-65.594 42.504-108.471 103.263-136.208 175.09-23.011 59.588-31.332 122.468-35.891 185.685-4.156 57.631-5.948 115.429-9.231 173.127-2.35 41.304-6.275 82.383-16.32 122.773-6.967 28.014-12.259 56.465-17.679 84.839-5.555 29.084 3.349 65.532 36.11 83.073 14.2 7.603 28.482 14.289 44.505 16.598 38.989 5.617 71.294-8.156 86.172-45.474 8.073-20.249 14.695-41.234 19.992-62.382 3.968-15.841 5.097-32.439 6.933-48.762 8.576-76.269 17.276-152.61 15.942-229.489-1.174-67.623 9.22-133.534 23.654-198.927 2.214-10.031 13.879-47.53 18.183-55.874 1.179-2.284 11.577-12.133 10.671-6.656-1.295 7.827-2.38 11.968-3.59 16.028-13.877 46.544-21.704 94.129-24.261 142.576-1.995 37.803-3.95 75.616-5.14 113.449-.514 16.351.015 32.762.494 49.15 1.29 44.205 58.446 105.449 115.738 102.687 39.355-1.897 78.643-4.397 117.178-12.995 51.81-11.56 98.327-35.318 141.784-65.011 17.19-11.745 33.163-25.509 48.465-39.678 7.447-6.896 13.58-16.175 17.689-25.527 10.974-24.972 15.613-51.593 13.47-78.78-3.221-40.853-11.866-80.832-23.584-120.031-7.555-25.271-16.762-50.048-25.246-75.041-2.413-7.104-5.465-14.233 3.593-22.329zm506.915 596.555c-.651 2.955-1.706 14.25-1.676 18.07.211 26.739 6.258 52.437 16.346 77.382 6.511 16.101 16.834 29.165 31.041 39.306 17.792 12.7 37.816 20.014 58.875 24.586 39.901 8.663 79.963 16.587 119.84 25.355 36.956 8.126 73.704 17.198 110.654 25.355 15.535 3.429 31.312 5.854 47.062 8.174 6.778.999 14.714 2.106 18.835-5.248 4.069-7.26-.737-13.684-4.997-19.035-7.735-9.716-15.572-19.526-24.552-28.047-55.29-52.466-111.702-103.689-171.778-150.697-12.445-9.738-25.6-18.567-37.994-27.502-52.489 32.75-105.782 36.445-161.656 12.301zm-892.297 445.092c-.864-1.089-24.11 2.535-34.837 5.529-24.4 6.808-48.346 14.855-69.487 30.417-12.43 9.149-20.969 21.574-24.289 36.619-2.556 11.581-4.621 23.628-4.319 35.401.522 20.356 1.853 40.844 4.942 60.954 12.943 84.239 33.416 166.919 53.201 249.723 1.493 6.246 3.843 12.395 6.641 18.179l.048.097c2.97 5.975 11.17 6.961 15.676 2.041 7.314-7.985 11.749-17.236 16.175-26.355 11.212-23.099 16.77-47.953 20.146-73.169 17.072-106.93 40.053-153.818 40.053-153.818-8.356-16.403-23.709-43.697-31.014-60.584-16.133-37.294-14.954-74.587 1.595-111.553 1.98-4.424 3.653-8.984 5.469-13.481zM616.881 83.936s-.278 8.687-4.184 22.221c-9.647 33.423-23.369 63.212-46.929 88.645-25.045 27.035-55.642 37.316-91.809 31.649-7.866-1.233-15.622-3.253-23.513-4.218-11.34-1.387-23.033 5.597-26.574 15.214-3.511 9.534.514 20.31 10.306 27.221 2.019 1.425 4.203 2.794 6.517 3.59 6.007 2.067 8.167 6.284 8.825 12.385 3.359 31.173 6.888 62.331 10.691 93.453.835 6.829 1.793 14.108 4.796 20.131 18.531 37.173 74.883 50.229 109.135 26.309 11.52-8.045 16.717-17.657 14.644-31.575-1.612-10.821-2.86-21.72-3.68-32.629-.916-12.178 4.014-21.115 15.694-26.095 9.615-4.099 18.923-8.914 28.503-13.099 13.505-5.901 20.16-15.646 18.268-30.659-1.68-13.335-2.941-26.73-4.947-40.015-2.007-13.292-1.305-24.774 8.977-35.749 11.216-11.971 9.562-25.426-1.742-37.446-3.73-3.967-7.916-7.639-12.374-10.76-10.358-7.252-14.926-16.623-13.497-29.423.934-8.37.952-16.943.343-25.349-.291-16.712-7.45-23.801-7.45-23.801zm519.976-55.103c-2.224-2.224-4.679 4.19-5.366 6.192-3.865 11.265-7.869 22.524-10.865 34.036-6.141 23.598-11.239 47.474-17.699 70.979-2.18 7.932-5.939 16.125-11.157 22.38-10.066 12.068-25.158 11.308-34.475-1.29-4.65-6.288-7.465-13.967-10.883-21.125-2.996-6.273-5.132-13.027-8.719-18.917-1.82-2.988-6.68-6.864-8.957-6.199-3.521 1.028-7.977 5.28-8.545 8.739-1.429 8.71-2.029 17.876-.972 26.619 4.498 37.191 17.06 71.524 38.583 102.37 2.209 3.166 4.893 6.001 7.268 8.882 36.022-9.503 71.002-12.33 105.473 5.617 1.321-7.569 2.273-13.427 3.372-19.257 7.005-37.156 13.866-74.341 21.146-111.443 3.449-17.582 7.91-34.964 11.479-52.525.856-4.21.685-15.427-2.733-13.598s-4.225 6.194-5.577 9.277c-7.392 16.862-12.479 33.858-19.933 50.692-2.263 5.112-5.211 11.485-12.839 14.213.519-4.362.79-7.754 1.342-11.099 3.564-21.601 7.389-43.161 10.651-64.807.805-5.341 1.016-23.274-4.703-17.783s-10.036 19.41-13.385 29.055c-5.544 15.966-9.819 32.37-14.844 48.522-1.463 4.702-1.335 10.972-9.557 12.021 0-5.585-.285-10.492.049-15.357 1.467-21.365 3.258-42.708 4.632-64.078.658-10.254-.562-29.892-2.786-32.116zM116.37 1373.385c2.257.667.516 5.586.353 7.514-2.362 27.998-2.293 55.795 8.099 82.495 2.147 5.517 4.945 10.994 8.525 15.658 2.076 2.706 8.168 5.085 12.059 3.787 3.892-1.297 6.248-5.648 5.838-9.081-.544-4.554-2.451-9.771-3.96-13.456-14.087-34.404-6.373-68.912 13.962-100.821 1.862-2.922 4.228-5.802 6.235-8.187 4.242-5.042 10.531-5.385 14.809-4.188 6.344 1.776 5.27 8.873 3.846 14.205-5.383 20.154-4.396 37.962 3.565 55.922 1.039 2.345 4.486 5.255 8.815 6.16 3.445.72 6.671-1.976 6.709-5.495.035-3.208.138-6.408.304-9.604 1.916-36.958 12.154-73.255 21.035-111.394-37.88 8.521-71.694-3.319-100.755-20.933-3.83-2.321-20.154-16.818-20.154-16.818s-8.289 13.246-9.957 15.698c-10.925 16.06-22.078 31.978-32.514 48.352-16.076 25.223-31.707 50.904-40.998 79.458-5.645 17.35-8.685 31.767-9.658 48.307-.51 8.671 1.575 29.884 7.598 29.097s6.626-10.304 6.95-13.992c2.741-31.241 13.075-59.239 25.77-87.335 1.381-3.056 3.058-5.977 5.085-8.649 3.614-4.763 8.346-9.137 14.366-5.009 5.378 3.687 7.293 9.344 4.116 15.766-1.546 3.123-3.261 6.163-4.81 9.284-13.388 26.976-23.693 54.889-25.169 85.352-.272 5.614.612 15.826 3.97 17.895 3.358 2.07 8.246-5.165 9.676-8.293 3.72-8.135 6.369-16.763 10.145-24.868 11.965-25.685 21.093-51.297 33.544-76.749 2.42-4.947 7.62-11.549 12.601-10.078zm682.973-619.174c6.633 27.257 12.689 59.594 13.245 86.281 23.156-21.165 51.558-48.569 73.627-68.742l-86.872-17.539z"/></svg></g><g transform="translate(1726.0 82.0) rotate(-17.594369169400423 97.0 112.0) scale(0.7706486160104237 0.7673860911270984)"><svg width="251.736" height="291.9" viewBox="0 0 251.736 291.9"><path d="M126.616 3.918c-19.408 0-32.579 11.7-45.542 37.494-13.298 26.462-50.281 101.91-63.826 130.209-1.105 2.31-2.346 4.645-3.66 7.117-4.754 8.947-10.142 19.088-9.541 29.807.654 11.676 6.999 21.722 17.405 27.561 31.598 17.729 58.096 32.131 83.389 45.319 19.49 10.164 32.276 8.5 42.753-5.56 6.192-8.311 85.196-142.433 96.154-175.269 8.907-26.689 3-43.243-20.382-57.13-22.574-13.405-44.668-24.322-65.669-32.446-12.043-4.658-22.215-7.103-31.082-7.103z" fill="#fff"/><path d="M247.543 101.864c9.393-28.144 3.418-46.662-22.133-61.836-21.14-12.554-43.362-23.876-66.269-32.737C118.552-8.411 97.031.753 77.5 39.616 63.866 66.745 26.75 142.504 13.64 169.894 8.41 180.824-.781 193.896.053 208.768c.699 12.464 7.325 24.026 19.442 30.825 27.624 15.5 55.412 30.733 83.497 45.378 17.076 8.904 34.111 11.666 47.81-6.717 5.895-7.91 85.344-142.242 96.741-176.392zm-91.311 139.442c-5.413 9.861-9.576 16.759-16.863 25.387-7.001 8.291-18.488 12.547-27.65 6.753-27.447-17.356-54.752-35.028-81.135-53.938-13.038-9.345-13.907-17.294-6.427-32.111 22.589-44.749 45.471-89.355 68.805-133.72 4.474-8.506 9.329-17.244 15.786-24.492 6.277-7.047 19.089-9.174 28.475-3.738-3.436 13.95 3.491 22.186 14.094 27.779a253.726 253.726 0 0 0 28.89 13.011c23.29 8.77 30.657-9.716 30.657-9.716 13.523 8.176 22.186 21.513 16.842 36.185-8.847 24.292-20.548 48.512-31.636 71.876-12.349 26.02-25.974 51.464-39.838 76.723z"/></svg></g></svg>