<svg width="94" height="184" viewBox="0 0 94 184" fill="none" xmlns="http://www.w3.org/2000/svg">
<g clip-path="url(#clip0_63_294)">
<path d="M87.7 29.5C86.8 21.4 85.3 17.2 82.6 13.8C81.5 14 80.3 13.8 79.3 13.1L69.7 6.09998C68.7 5.39998 68.1 4.19998 67.9 3.09998C67.4 2.89998 67 2.79998 66.5 2.59998V11.5H27.1V2.59998C26.6 2.69998 26.2 2.89998 25.7 3.09998C25.5 4.29998 24.9 5.39998 23.9 6.09998L14.3 13.1C13.3 13.8 12.1 14 11 13.8C8.30004 17.2 6.80004 21.4 5.90004 29.5C3.40004 51 7.60004 84.7 7.50004 93C7.00004 137.3 6.60004 164.2 9.50004 173.6C10.1 175.4 11.4 176.8 13.4 178C13.8 177.8 14.3 177.7 14.9 177.7C18.3 177.7 20 179.9 23.8 179.3C26.3 178.9 27.1 180.9 27.4 182.4C29.6 182.8 31.9 183 34 183.2C34.4 182.7 34.9 182.4 35.6 182.4H57.8C58.4 182.4 59 182.7 59.4 183.2C61 183.1 62.7 182.9 64.3 182.6C64.5 181.1 65.3 178.8 68 179.2C71.8 179.8 73.5 177.6 76.9 177.6C78 177.6 78.7 178 79.2 178.4C81.6 177.1 83.3 175.5 84 173.4C86.9 164.1 86.6 137.1 86 92.8C86 84.7 90.2 51 87.7 29.5Z" fill="url(#paint0_radial_63_294)"/>
<path d="M66.5001 11.5V2.59998C55.3001 -0.900024 38.3001 -0.900024 27.1001 2.59998V11.5H66.5001Z" fill="url(#paint1_linear_63_294)"/>
<path d="M85.2001 30.9C83.7001 17.4 80.6001 15.2 73.0001 8.89995C62.7001 0.299951 30.7001 0.299951 20.5001 8.89995C12.9001 15.2 9.9001 17.5 8.3001 30.9C6.0001 51.5 10.0001 83.9 9.9001 91.9C9.4001 134.5 9.0001 160.5 11.8001 169.5C15.0001 179.9 46.8001 179.3 46.8001 179.3C46.8001 179.3 78.6001 179.9 81.8001 169.5C84.6001 160.5 84.2001 134.6 83.7001 91.9C83.6001 83.9 87.6001 51.5 85.2001 30.9Z" fill="url(#paint2_radial_63_294)"/>
<path d="M31.1004 75.4C24.4004 76.3 19.7004 78.2 17.9004 78.9L18.4004 81.8C18.4004 81.8 23.6004 79.1 31.7004 77.9C38.7004 76.9 54.7004 76.9 61.7004 77.9C69.8004 79.1 75.0004 81.8 75.0004 81.8L75.5004 78.9C73.7004 78.1 69.0004 76.3 62.3004 75.4C55.1004 74.3 38.4004 74.3 31.1004 75.4Z" fill="url(#paint3_linear_63_294)"/>
<path d="M15.9002 53.2C18.5002 52.1 23.0002 50.2 30.0002 48.7C40.1002 46.5 53.5002 46.5 63.6002 48.7C70.6002 50.2 75.1001 52.1 77.7001 53.2C78.8001 53.7 79.5002 54.1 79.9002 54.5V54.4C79.9002 54.4 80.4002 52.3 80.1002 51.7C79.8002 51.2 79.1001 50.7 77.7001 50.1C75.1001 49 70.6002 47.1 63.6002 45.6C53.5002 43.4 40.1002 43.4 30.0002 45.6C23.0002 47.1 18.5002 49 15.9002 50.1C14.5002 50.7 13.8002 51.2 13.5002 51.7C13.2002 52.3 13.7002 54.4 13.7002 54.4V54.5C14.0002 54.1 14.7002 53.7 15.9002 53.2Z" fill="url(#paint4_linear_63_294)"/>
<path d="M31.1003 75.4C38.4003 74.4 55.1003 74.4 62.5003 75.4C69.2003 76.3 73.9003 78.2 75.7003 78.9L80.0003 54.5C79.6003 54.1 78.9003 53.7 77.8003 53.2C75.2003 52.1 70.7003 50.2 63.7003 48.7C53.6003 46.5 40.2003 46.5 30.1003 48.7C23.1003 50.2 18.6003 52.1 16.0003 53.2C14.9003 53.7 14.2003 54.1 13.8003 54.5L18.1003 78.9C19.7003 78.1 24.4003 76.3 31.1003 75.4Z" fill="url(#paint5_linear_63_294)"/>
<path d="M73.5003 145.8C73.3003 144.7 73.0003 143.7 72.7003 142.6C72.7003 142.6 72.3003 142.8 71.6003 143.1C68.8003 144.2 60.8003 146.8 46.8003 146.8C33.9003 146.8 25.0003 144.1 22.0003 143C21.2003 142.7 20.9003 142.6 20.9003 142.6C20.6003 143.6 20.4003 144.6 20.2003 145.7C18.1003 155.7 19.1003 165.3 19.1003 165.3C19.1003 165.3 24.8003 167.8 32.9003 169.3C39.1003 170.4 54.8003 170.4 61.0003 169.3C69.1003 167.8 74.8003 165.3 74.8003 165.3C74.8003 165.3 75.6003 155.8 73.5003 145.8ZM72.6003 162.7C72.6003 162.7 67.3003 165.2 59.8003 166.7C54.0003 167.8 39.5003 167.8 33.7003 166.7C26.2003 165.2 20.9003 162.7 20.9003 162.7C20.9003 162.7 20.1003 154.9 21.4003 146C26.1003 147.2 35.0003 149 46.7003 149C59.3003 149 67.6003 147.3 72.1003 146.1C73.4003 155 72.6003 162.7 72.6003 162.7Z" fill="url(#paint6_linear_63_294)"/>
<path d="M21.4003 146.1C20.1003 155 20.9003 162.8 20.9003 162.8C20.9003 162.8 26.2003 165.3 33.7003 166.8C39.5003 167.9 54.0003 167.9 59.8003 166.8C67.3003 165.3 72.6003 162.8 72.6003 162.8C72.6003 162.8 73.4003 155.1 72.1003 146.3C67.7003 147.5 59.4003 149.2 46.7003 149.2C35.0003 149.1 26.2003 147.3 21.4003 146.1Z" fill="url(#paint7_linear_63_294)"/>
<path d="M12.0002 106.8L17.6003 108.7L16.6003 83.5L11.2002 53.6C11.2002 53.6 10.7002 61.3 11.2002 72.2C11.5002 79.1 12.3002 88.7 12.3002 94.9C12.4002 100.8 12.2002 104.8 12.0002 106.8Z" fill="url(#paint8_linear_63_294)"/>
<path d="M81.6005 106.8L76.0005 108.7L77.0005 83.5L82.4005 53.6C82.4005 53.6 82.9005 61.3 82.4005 72.2C82.0005 79.3 81.1005 88.8 81.2005 95C81.2005 100.8 81.4005 104.9 81.6005 106.8Z" fill="url(#paint9_linear_63_294)"/>
<path d="M11.8002 109.2L17.6002 111.6L18.2002 132.7C18.2002 132.7 17.7002 135.3 15.5002 139.6C13.0002 144.5 11.7002 145.9 11.7002 145.9C11.7002 145.9 11.2002 117.1 11.8002 109.2Z" fill="url(#paint10_linear_63_294)"/>
<path d="M81.7003 109.2L75.9003 111.6L75.3003 132.7C75.3003 132.7 75.8003 135.3 78.0003 139.6C80.5003 144.5 81.8003 145.9 81.8003 145.9C81.8003 145.9 82.4003 117.1 81.7003 109.2Z" fill="url(#paint11_linear_63_294)"/>
<path d="M14.3001 13.2L23.9001 6.19995C24.9001 5.49995 25.5001 4.29995 25.7001 3.19995C23.0001 4.19995 20.6001 5.39995 18.9001 6.79995C15.5001 9.59995 13.0001 11.6 11.1001 14C12.1001 14.1 13.3001 13.9 14.3001 13.2Z" fill="url(#paint12_radial_63_294)"/>
<path d="M69.6999 6.09998L79.2999 13.1C80.2999 13.8 81.4999 14 82.5999 13.8C80.6999 11.4 78.0999 9.29998 74.7999 6.59998C72.9999 5.19998 70.5999 3.99998 67.8999 3.09998C68.0999 4.29998 68.6999 5.39998 69.6999 6.09998Z" fill="url(#paint13_radial_63_294)"/>
<path d="M23.8004 179.3C20.0004 179.9 18.3004 177.7 14.9004 177.7C14.3004 177.7 13.8004 177.8 13.4004 178C16.9004 180.2 22.1004 181.5 27.5004 182.4C27.2004 180.9 26.3004 178.9 23.8004 179.3Z" fill="#93091A"/>
<path d="M68.1004 179.3C65.4004 178.9 64.7004 181.2 64.4004 182.7C69.8004 182 75.4004 180.7 79.3004 178.6C78.8004 178.1 78.1004 177.8 77.0004 177.8C73.5004 177.7 71.9004 179.9 68.1004 179.3Z" fill="#93091A"/>
<path d="M20.1001 44C20.1001 44 26.6001 32.1 27.5001 27.7C28.2001 24.3 27.1001 13.9 27.1001 13.9C27.1001 13.9 26.4001 23.8 25.7001 27C24.7001 31.5 20.1001 44 20.1001 44Z" fill="url(#paint14_linear_63_294)"/>
<path d="M73.6003 44C73.6003 44 67.1003 32.1 66.2003 27.7C65.5003 24.4 66.6003 14 66.6003 14C66.6003 14 67.3003 23.9 68.0003 27.1C68.9003 31.5 73.6003 44 73.6003 44Z" fill="url(#paint15_linear_63_294)"/>
<path d="M77.7003 53.2C75.1003 52.1 70.6003 50.2 63.6003 48.7C61.1003 48.2 58.5003 47.8 55.7003 47.5C48.6003 55.1 40.2003 69 36.8003 74.9C45.1003 74.4 56.7003 74.6 62.5003 75.4C69.2003 76.3 73.9003 78.2 75.7003 78.9L80.0003 54.5C79.6003 54.1 78.8003 53.7 77.7003 53.2Z" fill="url(#paint16_linear_63_294)"/>
<path d="M46.8003 79.9C26.2003 79.4 19.3003 83.2 19.3003 83.2C19.3003 83.2 19.6003 133.1 21.1003 138.1C22.2003 141.5 35.1003 142.9 43.4003 143.6H50.2003C58.4003 143 71.4003 141.5 72.5003 138.1C74.1003 133.1 74.3003 83.2 74.3003 83.2C74.3003 83.2 67.4003 79.4 46.8003 79.9Z" fill="url(#paint17_linear_63_294)"/>
<path d="M50.4002 177.6C70.4002 177 79.2002 171.3 79.2002 171.3L75.2002 166.5C62.7002 173.5 46.7002 172.1 46.7002 172.1C46.7002 172.1 30.7002 173.5 18.2002 166.5L14.2002 171.3C14.2002 171.3 23.1002 177 43.0002 177.6C44.0002 177.6 46.6002 177.7 46.6002 177.7C48.1002 177.7 49.3002 177.7 50.4002 177.6Z" fill="url(#paint18_linear_63_294)"/>
<path d="M23.9001 7.69995C23.9001 7.69995 11.5001 14 10.2001 27.9C8.80011 42.1 9.00011 49.2999 9.00011 49.2999C9.00011 49.2999 13.3001 15.3 23.9001 7.69995Z" fill="url(#paint19_linear_63_294)"/>
<path d="M69.8003 7.69995C69.8003 7.69995 82.2003 14 83.5003 27.9C84.8003 42.1 84.6003 49.2999 84.6003 49.2999C84.6003 49.2999 80.4003 15.3 69.8003 7.69995Z" fill="url(#paint20_linear_63_294)"/>
<path d="M82 55.5C82 55.5 85.2 56.1 85.3 58.9C85.4 61.7 82.1 67.2 82 63.7C82 60.2 81.7 56.6 82 55.5Z" fill="url(#paint21_linear_63_294)"/>
<path d="M93.2001 61.6C92.5001 60.6 86.0001 58.6 86.0001 58.6C84.7001 58.2 84.3001 59.3 84.1001 60.3L93.4001 63.1C93.6001 62.7 93.6001 62.1 93.2001 61.6Z" fill="url(#paint22_linear_63_294)"/>
<path d="M84.2001 60.3C84.1001 60.9 84.1001 61.5 84.1001 61.5L93.2001 63.8C93.2001 63.8 93.3001 63.5 93.4001 63.2L84.2001 60.3Z" fill="url(#paint23_linear_63_294)"/>
<path d="M11.5001 55.4C11.5001 55.4 8.10015 56 8.00015 58.8C7.90015 61.6 11.4001 67.1 11.5001 63.6C11.6001 60 11.8001 56.4 11.5001 55.4Z" fill="url(#paint24_linear_63_294)"/>
<path d="M7.50019 58.4C7.50019 58.4 1.00018 60.4 0.300185 61.4C-0.0998151 62 0.000184901 62.6 0.100185 63.1L9.40018 60.3C9.20018 59.2 8.80018 58 7.50019 58.4Z" fill="url(#paint25_linear_63_294)"/>
<path d="M0.100098 63.0999C0.200098 63.3999 0.300098 63.5999 0.300098 63.5999L9.4001 61.2999C9.4001 61.2999 9.4001 60.8 9.3001 60.2L0.100098 63.0999Z" fill="url(#paint26_linear_63_294)"/>
<path d="M7.6002 91.7C7.1002 91.7 6.7002 92.1 6.7002 92.6V99.7C6.7002 100.2 7.1002 100.6 7.6002 100.6V91.7Z" fill="#595959"/>
<path d="M7.20029 127.2C6.70029 127.2 6.30029 127.6 6.30029 128.1V135.2C6.30029 135.7 6.70029 136.1 7.20029 136.1V127.2Z" fill="#595959"/>
<path d="M86 91.7C86.5 91.7 86.9 92.1 86.9 92.6V99.7C86.9 100.2 86.5 100.6 86 100.6V91.7Z" fill="#595959"/>
<path d="M86.4004 127.2C86.9004 127.2 87.3004 127.6 87.3004 128.1V135.2C87.3004 135.7 86.9004 136.1 86.4004 136.1V127.2Z" fill="#595959"/>
<path d="M28.2 41.4C29.6 41.3 30.3 40.5 31.6 40.4C31.7 40.4 31.8 40.3 31.8 40.2C31.8 40.1 31.7 40 31.6 40C30.2 40.1 29.5 40.9 28.2 41C28.1 41 28 41.1 28 41.2C28 41.4 28.1 41.5 28.2 41.4Z" fill="#9E9E9E"/>
<path d="M31.6 40.9C30.2 41 29.5 41.8 28.2 41.9C28.1 41.9 28 42 28 42.1C28 42.2 28.1 42.3 28.2 42.3C29.6 42.2 30.3 41.4 31.6 41.3C31.7 41.3 31.8 41.2 31.8 41.1C31.8 40.9 31.7 40.8 31.6 40.9Z" fill="#9E9E9E"/>
<path d="M31.6 41.7C30.2 41.8 29.5 42.6 28.2 42.7C28.1 42.7 28 42.8 28 42.9C28 43 28.1 43.1 28.2 43.1C29.6 43 30.3 42.2 31.6 42.1C31.7 42.1 31.8 42 31.8 41.9C31.8 41.7 31.7 41.7 31.6 41.7Z" fill="#9E9E9E"/>
<path d="M65.4003 41.4C64.0003 41.3 63.3003 40.5 62.0003 40.4C61.9003 40.4 61.8003 40.3 61.8003 40.2C61.8003 40.1 61.9003 40 62.0003 40C63.4003 40.1 64.1003 40.9 65.4003 41C65.5003 41 65.6003 41.1 65.6003 41.2C65.6003 41.4 65.5003 41.5 65.4003 41.4Z" fill="#9E9E9E"/>
<path d="M61.9002 40.9C63.3002 41 64.0002 41.8 65.3002 41.9C65.4002 41.9 65.5002 42 65.5002 42.1C65.5002 42.2 65.4002 42.3 65.3002 42.3C63.9002 42.2 63.2002 41.4 61.9002 41.3C61.8002 41.3 61.7002 41.2 61.7002 41.1C61.7002 40.9 61.8002 40.8 61.9002 40.9Z" fill="#9E9E9E"/>
<path d="M61.9002 41.7C63.3002 41.8 64.0002 42.6 65.3002 42.7C65.4002 42.7 65.5002 42.8 65.5002 42.9C65.5002 43 65.4002 43.1 65.3002 43.1C63.9002 43 63.2002 42.2 61.9002 42.1C61.8002 42.1 61.7002 42 61.7002 41.9C61.7002 41.7 61.8002 41.7 61.9002 41.7Z" fill="#9E9E9E"/>
<path d="M57.9001 182.4H35.7001C35.1001 182.4 34.5001 182.7 34.1001 183.2C41.1001 183.8 46.8001 183.7 46.8001 183.7C46.8001 183.7 52.5001 183.8 59.5001 183.2C59.1001 182.7 58.5001 182.4 57.9001 182.4Z" fill="url(#paint27_linear_63_294)"/>
<path d="M72.1002 146.2C67.7002 147.4 59.4002 149.1 46.7002 149.1C44.1002 149.1 41.7002 149 39.4002 148.9C32.2002 152.2 27.8002 162.4 26.7002 165C28.6002 165.6 31.0002 166.3 33.6002 166.8C39.4002 167.9 53.9002 167.9 59.7002 166.8C67.2002 165.3 72.5002 162.8 72.5002 162.8C72.5002 162.8 73.4002 155 72.1002 146.2Z" fill="url(#paint28_linear_63_294)"/>
</g>
<defs>
<radialGradient id="paint0_radial_63_294" cx="0" cy="0" r="1" gradientUnits="userSpaceOnUse" gradientTransform="translate(46.7813 93.2139) scale(51.506 107.277)">
<stop stop-color="#F7F7F7"/>
<stop offset="1" stop-color="#A8ABAA"/>
</radialGradient>
<linearGradient id="paint1_linear_63_294" x1="27.0648" y1="5.76848" x2="66.4971" y2="5.76848" gradientUnits="userSpaceOnUse">
<stop stop-color="#525956"/>
<stop offset="1" stop-color="#2C2E2E"/>
</linearGradient>
<radialGradient id="paint2_radial_63_294" cx="0" cy="0" r="1" gradientUnits="userSpaceOnUse" gradientTransform="translate(46.7814 91.0272) scale(41.1851 158.101)">
<stop stop-color="white"/>
<stop offset="1" stop-color="#D2D6D5"/>
</radialGradient>
<linearGradient id="paint3_linear_63_294" x1="17.9106" y1="78.2257" x2="75.6519" y2="78.2257" gradientUnits="userSpaceOnUse">
<stop/>
<stop offset="1" stop-color="#1B1C1C"/>
</linearGradient>
<linearGradient id="paint4_linear_63_294" x1="13.3506" y1="49.2728" x2="80.212" y2="49.2728" gradientUnits="userSpaceOnUse">
<stop/>
<stop offset="1" stop-color="#1B1C1C"/>
</linearGradient>
<linearGradient id="paint5_linear_63_294" x1="13.6407" y1="62.9824" x2="79.9224" y2="62.9824" gradientUnits="userSpaceOnUse">
<stop stop-color="#363B39"/>
<stop offset="1" stop-color="#1B1C1C"/>
</linearGradient>
<linearGradient id="paint6_linear_63_294" x1="18.7353" y1="156.406" x2="74.8278" y2="156.406" gradientUnits="userSpaceOnUse">
<stop/>
<stop offset="1" stop-color="#1B1C1C"/>
</linearGradient>
<linearGradient id="paint7_linear_63_294" x1="20.6975" y1="156.853" x2="72.8667" y2="156.853" gradientUnits="userSpaceOnUse">
<stop stop-color="#363B39"/>
<stop offset="1" stop-color="#1B1C1C"/>
</linearGradient>
<linearGradient id="paint8_linear_63_294" x1="11.0815" y1="81.2153" x2="17.615" y2="81.2153" gradientUnits="userSpaceOnUse">
<stop stop-color="#363B39"/>
<stop offset="1" stop-color="#1B1C1C"/>
</linearGradient>
<linearGradient id="paint9_linear_63_294" x1="75.9475" y1="81.2153" x2="82.4818" y2="81.2153" gradientUnits="userSpaceOnUse">
<stop stop-color="#363B39"/>
<stop offset="1" stop-color="#1B1C1C"/>
</linearGradient>
<linearGradient id="paint10_linear_63_294" x1="11.5466" y1="127.545" x2="18.302" y2="127.545" gradientUnits="userSpaceOnUse">
<stop stop-color="#363B39"/>
<stop offset="1" stop-color="#1B1C1C"/>
</linearGradient>
<linearGradient id="paint11_linear_63_294" x1="75.2619" y1="127.545" x2="82.0161" y2="127.545" gradientUnits="userSpaceOnUse">
<stop stop-color="#363B39"/>
<stop offset="1" stop-color="#1B1C1C"/>
</linearGradient>
<radialGradient id="paint12_radial_63_294" cx="0" cy="0" r="1" gradientUnits="userSpaceOnUse" gradientTransform="translate(18.3261 8.52405) scale(6.3582 6.65894)">
<stop stop-color="white"/>
<stop offset="1" stop-color="#D2D6D5"/>
</radialGradient>
<radialGradient id="paint13_radial_63_294" cx="0" cy="0" r="1" gradientUnits="userSpaceOnUse" gradientTransform="translate(75.2361 8.52407) scale(6.358 6.65873)">
<stop stop-color="white"/>
<stop offset="1" stop-color="#D2D6D5"/>
</radialGradient>
<linearGradient id="paint14_linear_63_294" x1="21.1954" y1="39.9683" x2="30.4839" y2="10.8368" gradientUnits="userSpaceOnUse">
<stop stop-color="#D2DBDA"/>
<stop offset="1" stop-color="#B5B5B5"/>
</linearGradient>
<linearGradient id="paint15_linear_63_294" x1="71.6187" y1="41.6945" x2="64.2255" y2="12.3325" gradientUnits="userSpaceOnUse">
<stop stop-color="#D2DBDA"/>
<stop offset="1" stop-color="#B5B5B5"/>
</linearGradient>
<linearGradient id="paint16_linear_63_294" x1="46.6516" y1="56.3484" x2="65.2119" y2="69.5459" gradientUnits="userSpaceOnUse">
<stop stop-color="#363B39"/>
<stop offset="1"/>
</linearGradient>
<linearGradient id="paint17_linear_63_294" x1="28.2094" y1="78.6801" x2="100.27" y2="196.959" gradientUnits="userSpaceOnUse">
<stop stop-color="#F7F7F7"/>
<stop offset="1" stop-color="#DBDBDB"/>
</linearGradient>
<linearGradient id="paint18_linear_63_294" x1="37.1516" y1="155.526" x2="71.4844" y2="211.879" gradientUnits="userSpaceOnUse">
<stop stop-color="#F7F7F7"/>
<stop offset="1" stop-color="#DBDBDB"/>
</linearGradient>
<linearGradient id="paint19_linear_63_294" x1="3.38421" y1="-9.08535" x2="21.0812" y2="41.8741" gradientUnits="userSpaceOnUse">
<stop stop-color="#F7F7F7"/>
<stop offset="1" stop-color="#DBDBDB"/>
</linearGradient>
<linearGradient id="paint20_linear_63_294" x1="90.2486" y1="-9.08505" x2="72.5517" y2="41.8739" gradientUnits="userSpaceOnUse">
<stop stop-color="#F7F7F7"/>
<stop offset="1" stop-color="#DBDBDB"/>
</linearGradient>
<linearGradient id="paint21_linear_63_294" x1="81.2975" y1="56.666" x2="88.4261" y2="70.4682" gradientUnits="userSpaceOnUse">
<stop stop-color="#363B39"/>
<stop offset="1" stop-color="#1B1C1C"/>
</linearGradient>
<linearGradient id="paint22_linear_63_294" x1="84.104" y1="60.8194" x2="93.5344" y2="60.8194" gradientUnits="userSpaceOnUse">
<stop stop-color="white"/>
<stop offset="1" stop-color="#D2D6D5"/>
</linearGradient>
<linearGradient id="paint23_linear_63_294" x1="84.105" y1="62.0127" x2="93.5348" y2="62.0127" gradientUnits="userSpaceOnUse">
<stop stop-color="#363B39"/>
<stop offset="1" stop-color="#1B1C1C"/>
</linearGradient>
<linearGradient id="paint24_linear_63_294" x1="9.80315" y1="57.8878" x2="16.0215" y2="71.5378" gradientUnits="userSpaceOnUse">
<stop stop-color="#363B39"/>
<stop offset="1" stop-color="#1B1C1C"/>
</linearGradient>
<linearGradient id="paint25_linear_63_294" x1="0.000184908" y1="60.6926" x2="9.42998" y2="60.6926" gradientUnits="userSpaceOnUse">
<stop stop-color="#D2D6D5"/>
<stop offset="1" stop-color="white"/>
</linearGradient>
<linearGradient id="paint26_linear_63_294" x1="-0.000478366" y1="61.877" x2="9.4289" y2="61.877" gradientUnits="userSpaceOnUse">
<stop stop-color="#363B39"/>
<stop offset="1" stop-color="#1B1C1C"/>
</linearGradient>
<linearGradient id="paint27_linear_63_294" x1="34.0887" y1="183.055" x2="59.4458" y2="183.055" gradientUnits="userSpaceOnUse">
<stop stop-color="#363B39"/>
<stop offset="1" stop-color="#1B1C1C"/>
</linearGradient>
<linearGradient id="paint28_linear_63_294" x1="34.0602" y1="131.957" x2="47.8164" y2="153.052" gradientUnits="userSpaceOnUse">
<stop stop-color="#363B39"/>
<stop offset="1"/>
</linearGradient>
<clipPath id="clip0_63_294">
<rect width="93.5" height="183.7" fill="white"/>
</clipPath>
</defs>
</svg>
