<svg width="315" height="70" viewBox="0 0 315 70" fill="none" xmlns="http://www.w3.org/2000/svg">
<path d="M98.072 50.352C89.404 50.352 82.364 43.312 82.364 34.644C82.364 25.976 89.404 18.892 98.072 18.892C106.696 18.892 113.736 25.932 113.78 34.644C113.78 38.472 112.372 41.992 110.084 44.764L114.968 50H108.632L106.608 47.8C104.144 49.428 101.24 50.352 98.072 50.352ZM98.072 44.808C99.788 44.808 101.372 44.368 102.736 43.62L95.608 36.052H101.988L106.08 40.408C107.224 38.824 107.84 36.8 107.84 34.644C107.84 29.012 103.704 24.392 98.072 24.392C92.484 24.392 88.304 29.012 88.304 34.644C88.304 40.232 92.44 44.808 98.072 44.808ZM127.6 50.396C122.54 50.396 117.876 46.92 117.876 41.068V26.68H123.596V39.572C123.596 42.96 125.972 45.072 128.744 45.072C132.22 45.072 134.508 42.256 134.508 38.692V26.68H140.228V50H134.508V47.36C133.012 49.032 130.724 50.396 127.6 50.396ZM148.116 24.348C146.136 24.348 144.508 22.896 144.508 20.916C144.508 18.936 146.136 17.44 148.116 17.44C150.096 17.44 151.724 18.936 151.724 20.916C151.724 22.896 150.096 24.348 148.116 24.348ZM150.932 50H145.212V26.68H150.932V50ZM167.041 50.352C160.265 50.352 155.029 44.852 155.029 38.34C155.029 31.564 160.485 26.284 167.041 26.284C172.057 26.284 176.281 29.408 178.041 33.896L172.805 35.348C171.793 33.104 169.681 31.432 167.041 31.432C163.301 31.432 160.397 34.644 160.397 38.34C160.397 42.036 163.301 45.204 167.041 45.204C169.725 45.204 171.837 43.576 172.805 41.288L178.041 42.784C176.325 47.184 172.145 50.352 167.041 50.352ZM187.239 50H181.519V19.2H187.239V37.064L196.787 26.68H203.607L193.619 37.328L203.871 50H197.183L190.231 41.024L187.239 44.28V50ZM221.952 50.308C213.284 50.308 206.288 43.268 206.288 34.6C206.288 25.932 213.284 18.848 221.952 18.848C228.332 18.848 233.524 22.72 235.988 28.22L230.356 29.848C228.772 26.724 225.868 24.48 221.952 24.48C216.32 24.48 212.184 28.968 212.184 34.6C212.184 40.232 216.32 44.676 221.952 44.676C225.868 44.676 228.684 42.652 230.224 39.484L235.944 41.024C233.524 46.48 228.376 50.308 221.952 50.308ZM250.133 50.352C243.797 50.352 238.561 44.852 238.561 38.34C238.561 31.564 243.797 26.284 250.133 26.284C253.081 26.284 255.457 27.472 257.129 29.232V26.68H262.849V50H257.129V47.492C255.457 49.208 253.081 50.352 250.133 50.352ZM250.705 45.16C254.401 45.16 257.481 42.036 257.481 38.34C257.481 34.644 254.445 31.476 250.705 31.476C246.833 31.476 243.929 34.644 243.929 38.34C243.929 42.036 246.833 45.16 250.705 45.16ZM280.386 50.352C277.438 50.352 275.062 49.208 273.434 47.492V50H267.714V19.2H273.434V29.276C275.062 27.472 277.482 26.328 280.386 26.284C286.942 26.196 291.958 31.564 291.958 38.34C291.958 44.852 287.162 50.352 280.386 50.352ZM279.858 45.16C283.554 45.16 286.634 42.036 286.634 38.34C286.634 34.644 283.598 31.476 279.858 31.476C276.074 31.476 273.038 34.644 273.038 38.34C273.038 42.036 276.118 45.16 279.858 45.16ZM305.101 50.352C302.065 50.352 298.853 49.516 295.597 47.536V41.772C297.313 43.136 301.493 45.38 305.101 45.38C306.949 45.38 308.797 44.72 308.797 43.268C308.797 41.816 306.905 41.068 303.121 40.276C297.665 39.132 294.937 37.24 294.937 33.412C294.937 28.88 299.029 26.284 304.573 26.284C307.961 26.284 311.217 27.208 313.549 28.572V33.984C309.193 31.696 306.333 31.168 304.573 31.168C302.197 31.168 300.833 32.136 300.833 33.368C300.833 35.172 303.737 35.348 307.169 36.184C312.493 37.548 314.649 39.968 314.649 43.356C314.649 48.636 309.501 50.352 305.101 50.352Z" fill="#323942"/>
<g clip-path="url(#clip0_49_12)">
<rect width="70" height="70" rx="12" fill="#C1F11D"/>
<path d="M34.5 9C20.4 9 9 20.4 9 34.5C9 48.6 20.4 60 34.5 60C48.6 60 60 48.6 60 34.5C60 20.4 48.6 9 34.5 9ZM34.5 58.5C21.225 58.5 10.5 47.775 10.5 34.5C10.5 21.225 21.225 10.5 34.5 10.5C47.775 10.5 58.5 21.225 58.5 34.5C58.5 47.775 47.775 58.5 34.5 58.5Z" fill="#323942"/>
<path d="M41 34.5C41 30.8721 38.0523 28 34.5 28C30.9477 28 28 30.9477 28 34.5C28 38.0523 30.9477 41 34.5 41C38.1279 41 41 38.1279 41 34.5ZM34.5 39.4884C31.7035 39.4884 29.5116 37.2965 29.5116 34.5C29.5116 31.7035 31.7035 29.5116 34.5 29.5116C37.2965 29.5116 39.4884 31.7035 39.4884 34.5C39.4884 37.2965 37.2965 39.4884 34.5 39.4884Z" fill="#323942"/>
<path d="M54.4324 39.497C46.6088 37.4062 38.6361 42.1106 36.4753 49.8767C36.0282 51.5942 35.8792 53.5358 36.1027 55.3279C36.1772 55.7013 36.4753 56 36.8478 56H36.9223C45.5656 55.0292 52.6442 48.8313 54.954 40.4678C55.103 40.0198 54.8795 39.5717 54.4324 39.497ZM47.5029 49.8021C44.6715 52.1916 41.3185 53.8344 37.6674 54.4318C37.2949 47.1885 42.8087 40.9159 50.0363 40.5425C51.154 40.4678 52.2716 40.5425 53.4638 40.7665C52.1971 44.2762 50.1853 47.3378 47.5029 49.8021Z" fill="#323942"/>
<path d="M14.5371 39.5061C14.1637 39.581 13.9396 40.0309 14.0143 40.4057C16.2547 48.8776 23.4238 55.0254 32.0865 56H32.1612C32.5346 56 32.8333 55.7001 32.908 55.3253C33.8041 47.2282 28.0539 39.9559 19.9886 39.0562C18.1216 38.9063 16.2547 39.0562 14.5371 39.5061ZM31.4144 54.4256C24.0212 53.301 17.8229 47.978 15.5826 40.7056C22.677 39.2812 29.6968 43.8545 31.1157 50.9768C31.4144 52.1014 31.4891 53.301 31.4144 54.4256Z" fill="#323942"/>
<path d="M49.5123 19.2067C41.0632 10.8188 27.5596 10.97 19.186 19.4334C15.2632 23.3628 13.0754 28.6524 13 34.2443C13 34.6222 13.3018 35 13.7544 35C13.9807 35 14.207 34.9244 14.3579 34.6977C18.8842 29.257 26.3526 25.9321 34.5 25.9321C42.6474 25.9321 50.1158 29.1814 54.6421 34.6977C54.8684 35 55.3965 35.0756 55.6982 34.7733C55.8491 34.6222 56 34.3955 56 34.1688C55.7737 28.5013 53.5105 23.1361 49.5123 19.2067ZM34.4246 24.4207C26.6544 24.4207 19.4877 27.2923 14.6596 32.0529C15.9421 21.0958 25.9 13.3125 36.8386 14.6727C45.8912 15.7306 53.0579 22.985 54.1895 32.0529C49.3614 27.2923 42.1947 24.4207 34.4246 24.4207Z" fill="#323942"/>
</g>
<defs>
<clipPath id="clip0_49_12">
<rect width="70" height="70" fill="white"/>
</clipPath>
</defs>
</svg>
