<svg width="314" height="70" viewBox="0 0 314 70" fill="none" xmlns="http://www.w3.org/2000/svg">
<path d="M113.472 35.248C113.472 37.5947 113.193 39.736 112.636 41.672C112.079 43.608 111.228 45.2947 110.084 46.732C108.94 48.14 107.488 49.24 105.728 50.032L113.296 58.48H104.76L98.996 51.44C98.908 51.44 98.82 51.44 98.732 51.44C98.6733 51.44 98.6 51.44 98.512 51.44C95.96 51.44 93.7307 51.0587 91.824 50.296C89.9467 49.504 88.392 48.404 87.16 46.996C85.9573 45.5587 85.048 43.8427 84.432 41.848C83.8453 39.8533 83.552 37.6387 83.552 35.204C83.552 31.948 84.08 29.1173 85.136 26.712C86.2213 24.3067 87.864 22.444 90.064 21.124C92.2933 19.7747 95.124 19.1 98.556 19.1C101.959 19.1 104.76 19.7747 106.96 21.124C109.16 22.444 110.788 24.3213 111.844 26.756C112.929 29.1613 113.472 31.992 113.472 35.248ZM90.548 35.248C90.548 37.448 90.8267 39.34 91.384 40.924C91.9413 42.508 92.8067 43.7253 93.98 44.576C95.1533 45.4267 96.664 45.852 98.512 45.852C100.419 45.852 101.944 45.4267 103.088 44.576C104.261 43.7253 105.112 42.508 105.64 40.924C106.197 39.34 106.476 37.448 106.476 35.248C106.476 31.9333 105.86 29.3373 104.628 27.46C103.396 25.5827 101.372 24.644 98.556 24.644C96.6787 24.644 95.1533 25.0693 93.98 25.92C92.8067 26.7707 91.9413 27.988 91.384 29.572C90.8267 31.156 90.548 33.048 90.548 35.248ZM141.496 26.976V51H136.48L135.6 47.92H135.248C134.749 48.7413 134.104 49.416 133.312 49.944C132.549 50.4427 131.698 50.8093 130.76 51.044C129.821 51.308 128.853 51.44 127.856 51.44C126.154 51.44 124.658 51.132 123.368 50.516C122.077 49.9 121.08 48.9467 120.376 47.656C119.672 46.3653 119.32 44.6933 119.32 42.64V26.976H125.876V41.012C125.876 42.7133 126.184 44.004 126.8 44.884C127.416 45.764 128.398 46.204 129.748 46.204C131.097 46.204 132.138 45.896 132.872 45.28C133.634 44.664 134.162 43.7693 134.456 42.596C134.778 41.4227 134.94 39.9853 134.94 38.284V26.976H141.496ZM154.926 26.976V51H148.37V26.976H154.926ZM151.67 17.56C152.638 17.56 153.474 17.7947 154.178 18.264C154.882 18.704 155.234 19.54 155.234 20.772C155.234 21.9747 154.882 22.8107 154.178 23.28C153.474 23.7493 152.638 23.984 151.67 23.984C150.672 23.984 149.822 23.7493 149.118 23.28C148.443 22.8107 148.106 21.9747 148.106 20.772C148.106 19.54 148.443 18.704 149.118 18.264C149.822 17.7947 150.672 17.56 151.67 17.56ZM171.544 51.44C169.168 51.44 167.144 51.0147 165.472 50.164C163.8 49.284 162.524 47.9347 161.644 46.116C160.764 44.2973 160.324 41.9653 160.324 39.12C160.324 36.1867 160.822 33.796 161.82 31.948C162.817 30.1 164.196 28.736 165.956 27.856C167.745 26.976 169.798 26.536 172.116 26.536C173.758 26.536 175.181 26.6973 176.384 27.02C177.616 27.3427 178.686 27.724 179.596 28.164L177.66 33.224C176.633 32.8133 175.665 32.476 174.756 32.212C173.876 31.948 172.996 31.816 172.116 31.816C170.972 31.816 170.018 32.0947 169.256 32.652C168.493 33.18 167.921 33.9867 167.54 35.072C167.188 36.128 167.012 37.4627 167.012 39.076C167.012 40.66 167.202 41.98 167.584 43.036C167.994 44.0627 168.581 44.84 169.344 45.368C170.106 45.8667 171.03 46.116 172.116 46.116C173.494 46.116 174.712 45.94 175.768 45.588C176.824 45.2067 177.85 44.6933 178.848 44.048V49.636C177.85 50.2813 176.794 50.736 175.68 51C174.594 51.2933 173.216 51.44 171.544 51.44ZM190.933 32.52C190.933 33.4293 190.889 34.3387 190.801 35.248C190.743 36.128 190.669 37.0227 190.581 37.932H190.669C190.963 37.5213 191.256 37.1107 191.549 36.7C191.872 36.2893 192.195 35.8787 192.517 35.468C192.84 35.0573 193.177 34.6613 193.529 34.28L200.261 26.976H207.653L198.105 37.404L208.225 51H200.657L193.749 41.276L190.933 43.52V51H184.377V17.56H190.933V32.52ZM225.83 23.236C224.276 23.236 222.882 23.5147 221.65 24.072C220.418 24.6 219.362 25.392 218.482 26.448C217.632 27.504 216.972 28.78 216.502 30.276C216.062 31.772 215.842 33.4587 215.842 35.336C215.842 37.8 216.209 39.9413 216.942 41.76C217.676 43.5493 218.776 44.928 220.242 45.896C221.709 46.864 223.557 47.348 225.786 47.348C227.136 47.348 228.426 47.2307 229.658 46.996C230.92 46.732 232.196 46.3947 233.486 45.984V50.076C232.254 50.5453 230.993 50.8827 229.702 51.088C228.412 51.3227 226.916 51.44 225.214 51.44C222.017 51.44 219.348 50.78 217.206 49.46C215.094 48.14 213.51 46.2627 212.454 43.828C211.398 41.3933 210.87 38.548 210.87 35.292C210.87 32.916 211.193 30.7453 211.838 28.78C212.513 26.7853 213.481 25.0693 214.742 23.632C216.004 22.1947 217.558 21.0947 219.406 20.332C221.284 19.54 223.44 19.144 225.874 19.144C227.458 19.144 229.013 19.32 230.538 19.672C232.064 19.9947 233.442 20.464 234.674 21.08L232.914 25.04C231.888 24.5707 230.773 24.16 229.57 23.808C228.397 23.4267 227.15 23.236 225.83 23.236ZM248.922 26.844C251.914 26.844 254.144 27.504 255.61 28.824C257.077 30.1147 257.81 32.1533 257.81 34.94V51H254.51L253.586 47.7H253.41C252.736 48.5507 252.032 49.2547 251.298 49.812C250.594 50.3693 249.773 50.78 248.834 51.044C247.925 51.308 246.81 51.44 245.49 51.44C244.082 51.44 242.806 51.1907 241.662 50.692C240.548 50.164 239.668 49.372 239.022 48.316C238.377 47.2307 238.054 45.8813 238.054 44.268C238.054 41.8627 238.964 40.0293 240.782 38.768C242.63 37.5067 245.432 36.8173 249.186 36.7L253.234 36.568V35.248C253.234 33.488 252.838 32.256 252.046 31.552C251.254 30.848 250.14 30.496 248.702 30.496C247.47 30.496 246.297 30.672 245.182 31.024C244.068 31.376 243.012 31.8013 242.014 32.3L240.518 28.912C241.633 28.3253 242.909 27.8413 244.346 27.46C245.813 27.0493 247.338 26.844 248.922 26.844ZM250.022 39.692C247.324 39.8093 245.446 40.264 244.39 41.056C243.364 41.8187 242.85 42.904 242.85 44.312C242.85 45.544 243.217 46.4387 243.95 46.996C244.713 47.5533 245.666 47.832 246.81 47.832C248.658 47.832 250.184 47.3187 251.386 46.292C252.589 45.2653 253.19 43.7253 253.19 41.672V39.604L250.022 39.692ZM269.656 25.612C269.656 26.58 269.627 27.504 269.568 28.384C269.539 29.2347 269.495 29.9093 269.436 30.408H269.656C270.331 29.4107 271.24 28.5747 272.384 27.9C273.528 27.2253 275.009 26.888 276.828 26.888C279.673 26.888 281.961 27.9147 283.692 29.968C285.452 32.0213 286.332 35.072 286.332 39.12C286.332 41.848 285.936 44.1213 285.144 45.94C284.352 47.7587 283.237 49.1373 281.8 50.076C280.363 50.9853 278.691 51.44 276.784 51.44C274.936 51.44 273.455 51.1173 272.34 50.472C271.225 49.7973 270.331 49.0053 269.656 48.096H269.304L268.424 51H264.992V17.56H269.656V25.612ZM275.728 30.672C274.203 30.672 273 30.9653 272.12 31.552C271.24 32.1387 270.609 33.0333 270.228 34.236C269.847 35.4387 269.656 36.964 269.656 38.812V39.164C269.656 41.892 270.096 43.9893 270.976 45.456C271.856 46.8933 273.469 47.612 275.816 47.612C277.693 47.612 279.116 46.8787 280.084 45.412C281.052 43.9453 281.536 41.8333 281.536 39.076C281.536 36.2893 281.052 34.192 280.084 32.784C279.116 31.376 277.664 30.672 275.728 30.672ZM308.029 44.312C308.029 45.8667 307.648 47.172 306.885 48.228C306.122 49.284 305.022 50.0907 303.585 50.648C302.148 51.176 300.417 51.44 298.393 51.44C296.721 51.44 295.284 51.308 294.081 51.044C292.908 50.8093 291.822 50.4573 290.825 49.988V45.896C291.881 46.3947 293.098 46.8493 294.477 47.26C295.856 47.6413 297.205 47.832 298.525 47.832C300.285 47.832 301.546 47.5533 302.309 46.996C303.101 46.4387 303.497 45.6907 303.497 44.752C303.497 44.224 303.35 43.7547 303.057 43.344C302.764 42.904 302.206 42.464 301.385 42.024C300.593 41.5547 299.42 41.0267 297.865 40.44C296.369 39.824 295.093 39.2227 294.037 38.636C292.981 38.02 292.174 37.3013 291.617 36.48C291.06 35.6293 290.781 34.544 290.781 33.224C290.781 31.1707 291.602 29.6013 293.245 28.516C294.917 27.4013 297.117 26.844 299.845 26.844C301.282 26.844 302.632 26.9907 303.893 27.284C305.184 27.548 306.43 27.9587 307.633 28.516L306.093 32.08C305.418 31.7573 304.714 31.4933 303.981 31.288C303.277 31.0533 302.558 30.8627 301.825 30.716C301.121 30.5693 300.388 30.496 299.625 30.496C298.217 30.496 297.146 30.716 296.413 31.156C295.68 31.596 295.313 32.212 295.313 33.004C295.313 33.5613 295.474 34.0453 295.797 34.456C296.149 34.8667 296.75 35.2773 297.601 35.688C298.452 36.0987 299.61 36.5973 301.077 37.184C302.544 37.7413 303.79 38.3133 304.817 38.9C305.873 39.4867 306.665 40.2053 307.193 41.056C307.75 41.9067 308.029 42.992 308.029 44.312Z" fill="#323942"/>
<g clip-path="url(#clip0_49_12)">
<rect width="70" height="70" rx="12" fill="#C1F11D"/>
<path d="M34.5 9C20.4 9 9 20.4 9 34.5C9 48.6 20.4 60 34.5 60C48.6 60 60 48.6 60 34.5C60 20.4 48.6 9 34.5 9ZM34.5 58.5C21.225 58.5 10.5 47.775 10.5 34.5C10.5 21.225 21.225 10.5 34.5 10.5C47.775 10.5 58.5 21.225 58.5 34.5C58.5 47.775 47.775 58.5 34.5 58.5Z" fill="#323942"/>
<path d="M41 34.5C41 30.8721 38.0523 28 34.5 28C30.9477 28 28 30.9477 28 34.5C28 38.0523 30.9477 41 34.5 41C38.1279 41 41 38.1279 41 34.5ZM34.5 39.4884C31.7035 39.4884 29.5116 37.2965 29.5116 34.5C29.5116 31.7035 31.7035 29.5116 34.5 29.5116C37.2965 29.5116 39.4884 31.7035 39.4884 34.5C39.4884 37.2965 37.2965 39.4884 34.5 39.4884Z" fill="#323942"/>
<path d="M54.4324 39.497C46.6088 37.4062 38.6361 42.1106 36.4753 49.8767C36.0282 51.5942 35.8792 53.5358 36.1027 55.3279C36.1772 55.7013 36.4753 56 36.8478 56H36.9223C45.5656 55.0292 52.6442 48.8313 54.954 40.4678C55.103 40.0198 54.8795 39.5717 54.4324 39.497ZM47.5029 49.8021C44.6715 52.1916 41.3185 53.8345 37.6674 54.4318C37.2949 47.1885 42.8087 40.9159 50.0363 40.5425C51.154 40.4678 52.2716 40.5425 53.4638 40.7665C52.1971 44.2762 50.1853 47.3378 47.5029 49.8021Z" fill="#323942"/>
<path d="M14.5371 39.5061C14.1637 39.581 13.9396 40.0309 14.0143 40.4057C16.2547 48.8776 23.4238 55.0254 32.0865 56H32.1612C32.5346 56 32.8333 55.7001 32.908 55.3253C33.8041 47.2282 28.0539 39.9559 19.9886 39.0562C18.1216 38.9063 16.2547 39.0562 14.5371 39.5061ZM31.4144 54.4256C24.0212 53.301 17.8229 47.978 15.5826 40.7056C22.677 39.2812 29.6968 43.8545 31.1157 50.9768C31.4144 52.1014 31.4891 53.301 31.4144 54.4256Z" fill="#323942"/>
<path d="M49.5123 19.2067C41.0632 10.8188 27.5596 10.97 19.186 19.4334C15.2632 23.3628 13.0754 28.6524 13 34.2443C13 34.6222 13.3018 35 13.7544 35C13.9807 35 14.207 34.9244 14.3579 34.6977C18.8842 29.257 26.3526 25.9321 34.5 25.9321C42.6474 25.9321 50.1158 29.1814 54.6421 34.6977C54.8684 35 55.3965 35.0756 55.6982 34.7733C55.8491 34.6222 56 34.3955 56 34.1688C55.7737 28.5013 53.5105 23.1361 49.5123 19.2067ZM34.4246 24.4207C26.6544 24.4207 19.4877 27.2923 14.6596 32.0529C15.9421 21.0958 25.9 13.3125 36.8386 14.6727C45.8912 15.7306 53.0579 22.985 54.1895 32.0529C49.3614 27.2923 42.1947 24.4207 34.4246 24.4207Z" fill="#323942"/>
</g>
<defs>
<clipPath id="clip0_49_12">
<rect width="70" height="70" fill="white"/>
</clipPath>
</defs>
</svg>
