<svg width="181" height="1147" viewBox="0 0 181 1147" fill="none" xmlns="http://www.w3.org/2000/svg">
<g clip-path="url(#clip0_50_14)">
<path d="M115.773 0H70.2272L0 1147H181L115.773 0Z" fill="url(#paint0_linear_50_14)"/>
<path d="M129.116 867.271C130.395 867.446 130.714 868.407 130.831 869.456C130.947 870.563 130.627 871.583 129.552 872.165C129.464 872.223 129.377 872.253 129.29 872.282C126.878 873.01 125.976 874.933 125.657 877.176C125.192 880.672 125.337 884.168 125.511 887.693C125.628 890.082 126.035 892.441 125.599 894.888C125.308 896.52 125.831 898.297 126.006 900.016C126.035 900.307 126.238 900.627 126.122 900.861C124.901 903.512 126.064 906.163 126.006 908.785C125.947 910.853 126.587 912.98 125.715 915.048C125.337 915.922 125.337 916.912 125.337 917.903C125.366 921.982 125.279 926.06 125.366 930.139C125.424 932.178 124.901 934.188 125.046 936.227C125.366 940.16 125.163 944.093 125.366 947.997C125.453 949.919 124.436 951.347 123.68 952.833C123.186 953.765 122.895 954.61 123.041 955.542C123.448 958.514 122.023 960.407 119.756 962.097C118.71 962.883 117.78 963.874 116.675 964.631C113.623 966.671 109.99 966.671 106.618 967.486C102.054 968.593 97.3164 968.681 92.6366 968.652C88.2185 968.622 83.7712 968.652 79.353 967.894C76.7079 967.428 74.0047 967.137 71.5049 966.263C68.9761 965.36 66.0404 964.69 64.9067 961.631C64.7614 961.223 64.2963 960.873 63.8894 960.611C63.1046 960.058 62.6686 959.271 62.6977 958.397C62.7267 957.057 62.2907 955.892 61.564 954.901C60.7502 953.823 60.5176 952.658 60.6339 951.347C60.663 951.027 60.7211 950.56 60.5467 950.356C59.0352 948.608 59.7038 946.365 59.2096 944.384C58.919 943.219 59.4712 942.112 59.4712 940.918C59.4422 920.583 59.4712 900.249 59.4422 879.914C59.4422 878.72 59.2678 877.496 59.0934 876.331C58.9771 875.545 58.5992 874.933 57.8144 874.496C56.2157 873.622 54.8786 872.486 54.181 870.709C53.5997 869.223 54.4426 866.95 55.6344 866.776C55.9251 867.067 56.2448 867.387 56.5355 867.679C57.0296 868.698 57.7563 869.601 57.9888 870.767C58.0469 871.087 58.4248 871.408 58.6864 871.67C59.2968 872.282 60.1979 872.165 60.8664 872.107C61.4478 872.02 61.128 871.116 61.1571 870.563C61.1862 869.223 61.1571 867.854 61.128 866.484L61.2152 866.426L61.3315 866.455C61.3606 873.389 61.3896 880.322 61.3896 887.256C61.3896 904.415 61.3896 921.574 61.3606 938.762C61.3606 940.481 61.7675 942.199 61.4768 943.947C61.3896 943.685 61.5931 943.365 61.2443 943.073C61.2443 944.093 60.9536 945.171 61.3024 945.928C62.0582 947.501 61.9129 949.133 62.0873 950.764C62.2326 952.075 62.7267 953.386 63.279 954.493C65.0521 958.135 67.6681 961.223 70.8364 963.786C70.9817 963.903 71.1561 964.02 71.3305 964.049C73.0746 964.34 74.7314 965.039 76.5626 964.981C77.5509 964.952 78.7136 965.01 79.4693 965.505C80.5157 966.204 81.6493 966.292 82.7539 966.35C85.7478 966.467 88.7417 966.408 91.7646 966.379C96.8513 966.321 101.967 966.554 107.054 965.855C109.176 965.564 111.152 964.894 113.129 964.282C113.826 964.049 114.757 964.02 115.222 963.495C116.355 962.213 118.245 961.835 118.913 959.97C119.465 958.484 121.239 957.465 120.599 955.455C120.541 955.309 120.89 954.988 121.093 954.785C122.983 952.978 123.244 950.56 123.622 948.172C123.942 946.103 123.593 943.976 124.145 941.908C124.261 941.5 124.232 941.121 123.68 941.034C123.709 940.684 123.738 940.335 123.767 939.985C123.884 940.044 124 940.102 124.116 940.16C124.291 939.665 124.291 939.228 123.796 938.907C123.651 938.179 123.651 937.451 123.796 936.752C124.436 935.907 124.436 935.091 123.796 934.246C123.738 933.664 123.651 933.081 123.651 932.527C123.651 913.184 123.651 893.84 123.651 874.496C123.651 873.971 123.738 873.447 123.796 872.923C125.831 871.408 128.825 870.767 128.883 867.387C128.941 867.271 129.028 867.242 129.116 867.271Z" fill="#C1F11D"/>
<path d="M123.535 862.231C123.564 862.085 123.593 861.94 123.593 861.794C123.477 853.2 124.436 844.577 123.564 835.983C123.244 832.836 122.517 829.807 121.5 826.806C122.721 827.709 122.634 829.282 123.331 830.448C123.767 831.176 123.913 832.05 124.436 832.778C125.366 834.089 125.773 835.546 125.598 837.148C125.569 837.381 125.569 837.643 125.657 837.876C126.325 839.77 126.761 841.605 126.267 843.732C125.976 845.014 126.587 846.5 125.918 847.898C125.628 848.51 125.889 849.325 126.18 849.995C126.848 851.452 126.645 852.88 126.093 854.307C126.034 854.482 125.86 854.744 125.918 854.831C127.081 856.667 125.657 858.444 125.86 860.25C125.976 861.241 126.093 862.173 127.313 862.435C127.662 862.493 127.895 862.755 127.866 863.163C126.558 862.581 125.104 862.173 123.535 862.231Z" fill="#C1F11D"/>
<path d="M64.1217 825.903C63.1044 827.855 62.3195 829.923 61.9417 832.108C60.9243 838.109 60.9243 844.169 61.215 850.199C61.4185 854.161 61.4766 858.123 61.3313 862.085C60.5755 861.852 59.907 862.406 59.1803 862.289C59.7907 861.095 59.4128 859.813 59.4128 858.619C59.4419 855.094 59.7326 851.569 59.2385 848.044C59.0931 847.024 59.064 845.917 59.4128 844.897C60.1395 842.741 59.8198 840.469 59.9361 838.284C60.0233 836.42 60.9825 834.876 61.0697 833.04C61.1859 830.622 62.523 828.525 63.1916 826.223C63.3369 825.699 63.5404 825.32 64.1508 825.32C64.1508 825.524 64.1217 825.728 64.1217 825.903Z" fill="#C1F11D"/>
<path d="M91.4446 740.458C91.4446 739.817 91.4737 739.205 91.4446 738.564C91.3865 737.748 91.5609 737.341 92.5201 737.341C93.5084 737.341 93.6246 737.748 93.5956 738.564C93.5374 739.962 93.5665 741.39 93.5956 742.788C93.6246 743.604 93.1886 743.72 92.491 743.72C91.8225 743.72 91.3574 743.604 91.4155 742.788C91.4737 742.002 91.4446 741.215 91.4446 740.458Z" fill="white"/>
<path d="M91.4445 793.012C91.4445 792.342 91.4735 791.672 91.4445 790.973C91.4154 790.245 91.5026 789.779 92.4327 789.808C93.2757 789.808 93.6535 790.041 93.6245 790.944C93.5663 792.401 93.5663 793.828 93.6245 795.285C93.6535 796.13 93.2175 796.217 92.549 796.188C91.9386 796.159 91.3863 796.188 91.4445 795.314C91.4735 794.556 91.4445 793.77 91.4445 793.012Z" fill="white"/>
<path d="M93.5958 1134.36C93.5958 1135 93.5668 1135.61 93.5958 1136.25C93.654 1137.12 93.4214 1137.53 92.4041 1137.53C91.3286 1137.53 91.4158 1136.89 91.4449 1136.22C91.4449 1134.82 91.4739 1133.42 91.4449 1132.03C91.4158 1131.12 91.939 1131.18 92.5494 1131.15C93.218 1131.12 93.683 1131.21 93.6249 1132.06C93.5377 1132.81 93.5958 1133.57 93.5958 1134.36Z" fill="white"/>
<path d="M91.4447 556.807C91.4447 556.195 91.4738 555.554 91.4447 554.943C91.4157 554.156 91.3866 553.603 92.5202 553.573C93.6538 553.573 93.6248 554.156 93.5957 554.914C93.5666 556.254 93.5666 557.623 93.5957 558.963C93.6248 559.866 93.1306 559.953 92.433 559.953C91.7063 559.953 91.3866 559.72 91.4447 558.963C91.4738 558.235 91.4447 557.506 91.4447 556.807Z" fill="white"/>
<path d="M93.5955 609.275C93.5955 609.915 93.5665 610.527 93.5955 611.168C93.6246 611.896 93.6246 612.45 92.5782 612.45C91.5608 612.45 91.3864 612.071 91.4155 611.168C91.4736 609.77 91.4736 608.371 91.4155 606.973C91.3864 606.128 91.8225 606.041 92.491 606.041C93.1595 606.041 93.6246 606.128 93.5955 606.944C93.5665 607.731 93.5955 608.517 93.5955 609.275Z" fill="white"/>
<path d="M93.5664 635.552C93.5664 636.193 93.5373 636.805 93.5664 637.446C93.6245 638.261 93.4501 638.669 92.4909 638.669C91.5317 638.669 91.3864 638.261 91.4154 637.446C91.4736 636.047 91.4736 634.62 91.4154 633.221C91.3864 632.377 91.8224 632.289 92.4909 632.289C93.1595 632.289 93.6245 632.406 93.5664 633.221C93.5373 634.008 93.5664 634.795 93.5664 635.552Z" fill="white"/>
<path d="M91.4447 1003.12C91.4447 1002.45 91.4738 1001.78 91.4447 1001.11C91.4157 1000.38 91.4157 999.823 92.4621 999.823C93.5085 999.823 93.6247 1000.32 93.6247 1001.16C93.5957 1002.56 93.5666 1003.96 93.6247 1005.36C93.6538 1006.23 93.1306 1006.2 92.5202 1006.23C91.8517 1006.23 91.3866 1006.17 91.4447 1005.33C91.4738 1004.57 91.4447 1003.84 91.4447 1003.12Z" fill="white"/>
<path d="M93.5663 1108.08C93.5663 1108.72 93.5373 1109.33 93.5663 1109.97C93.5954 1110.73 93.5373 1111.25 92.5199 1111.25C91.4154 1111.28 91.3863 1110.73 91.4154 1109.91C91.4444 1108.6 91.4735 1107.29 91.4154 1105.98C91.3863 1105.2 91.5898 1104.87 92.4618 1104.87C93.3629 1104.85 93.6826 1105.17 93.5954 1106.04C93.5373 1106.74 93.5663 1107.41 93.5663 1108.08Z" fill="white"/>
<path d="M91.4448 582.881C91.4448 582.269 91.4739 581.628 91.4448 581.016C91.3867 580.2 91.5611 579.793 92.5203 579.822C93.4795 579.822 93.6248 580.288 93.5958 581.074C93.5667 582.473 93.5376 583.871 93.5958 585.27C93.6248 586.202 93.1016 586.231 92.404 586.26C91.6483 586.289 91.3867 585.998 91.4157 585.24C91.4739 584.425 91.4448 583.638 91.4448 582.881Z" fill="white"/>
<path d="M91.4447 976.721C91.4447 976.109 91.4738 975.469 91.4447 974.857C91.4157 974.129 91.4157 973.575 92.4621 973.575C93.5085 973.575 93.6538 974.041 93.6247 974.886C93.5957 976.226 93.5666 977.595 93.6247 978.935C93.6538 979.78 93.2759 979.984 92.5202 979.984C91.7063 979.984 91.4157 979.722 91.4738 978.906C91.4738 978.178 91.4447 977.45 91.4447 976.721Z" fill="white"/>
<path d="M93.5955 766.822C93.5955 767.551 93.5664 768.279 93.5955 768.978C93.6536 769.91 93.0723 769.91 92.4037 769.94C91.6189 769.969 91.4155 769.648 91.4445 768.92C91.4736 767.463 91.5027 766.036 91.4445 764.579C91.4155 763.705 91.7933 763.56 92.5491 763.53C93.392 763.501 93.6536 763.851 93.6246 764.637C93.5374 765.395 93.5664 766.123 93.5955 766.822C93.5664 766.822 93.5664 766.822 93.5955 766.822Z" fill="white"/>
<path d="M91.4445 714.209C91.4445 713.569 91.4735 712.957 91.4445 712.316C91.3863 711.5 91.5607 711.092 92.5199 711.092C93.4791 711.092 93.6245 711.5 93.5664 712.316C93.5082 713.656 93.5373 715.025 93.5954 716.365C93.6245 717.21 93.3048 717.443 92.4909 717.443C91.7061 717.443 91.3573 717.181 91.4154 716.336C91.4735 715.637 91.4445 714.909 91.4445 714.209Z" fill="white"/>
<path d="M93.5955 1029.19C93.5955 1029.86 93.5665 1030.53 93.5955 1031.23C93.6246 1032.01 93.4793 1032.45 92.5201 1032.45C91.5608 1032.45 91.3864 1032.07 91.4446 1031.26C91.5027 1029.95 91.5027 1028.64 91.4446 1027.35C91.3864 1026.39 91.7352 1026.1 92.6654 1026.1C93.6246 1026.1 93.6246 1026.62 93.5665 1027.32C93.5083 1027.94 93.5665 1028.58 93.5665 1029.19C93.5374 1029.19 93.5665 1029.19 93.5955 1029.19Z" fill="white"/>
<path d="M93.5958 1081.77C93.5958 1082.44 93.5667 1083.14 93.5958 1083.81C93.6248 1084.54 93.5086 1085.01 92.6075 1085.01C91.7645 1085.01 91.3867 1084.77 91.4157 1083.84C91.4739 1082.44 91.4739 1081.04 91.4157 1079.62C91.3867 1078.8 91.7355 1078.63 92.4331 1078.66C93.1016 1078.66 93.5667 1078.77 93.5086 1079.59C93.4504 1080.32 93.5086 1081.04 93.5086 1081.77C93.5376 1081.77 93.5667 1081.77 93.5958 1081.77Z" fill="white"/>
<path d="M91.4447 661.596C91.4447 660.955 91.4738 660.344 91.4447 659.703C91.3866 658.945 91.5901 658.537 92.4621 658.537C93.305 658.537 93.5376 658.829 93.5376 659.644C93.5085 661.043 93.5376 662.47 93.6248 663.869C93.6538 664.626 93.4213 664.917 92.6365 664.888C91.9679 664.859 91.3575 664.917 91.4447 663.927C91.4738 663.169 91.4447 662.383 91.4447 661.596Z" fill="white"/>
<path d="M93.5668 425.478C93.5668 426.119 93.5377 426.731 93.5668 427.343C93.5958 428.129 93.5958 428.683 92.4622 428.683C91.2995 428.683 91.3867 428.042 91.4158 427.314C91.4449 425.974 91.4449 424.604 91.4158 423.264C91.3867 422.478 91.7065 422.274 92.4332 422.274C93.1889 422.274 93.6249 422.42 93.5668 423.293C93.5377 424.022 93.5668 424.75 93.5668 425.478Z" fill="white"/>
<path d="M93.5959 189.244C93.5959 189.885 93.5669 190.497 93.5959 191.108C93.6541 191.953 93.4797 192.449 92.4333 192.419C91.3869 192.419 91.4159 191.866 91.4159 191.138C91.445 189.739 91.4741 188.341 91.4159 186.943C91.3869 186.098 91.8229 186.01 92.4914 186.039C93.1018 186.039 93.6541 186.039 93.5959 186.913C93.5378 187.671 93.5959 188.457 93.5959 189.244Z" fill="white"/>
<path d="M91.4449 241.624C91.4449 240.983 91.4739 240.371 91.4449 239.73C91.3867 238.973 91.474 238.478 92.4913 238.478C93.4214 238.478 93.6249 238.856 93.6249 239.701C93.5958 241.1 93.5668 242.498 93.6249 243.896C93.654 244.829 93.1889 244.887 92.4913 244.887C91.7937 244.887 91.3867 244.741 91.4449 243.925C91.4739 243.168 91.4449 242.411 91.4449 241.624Z" fill="white"/>
<path d="M93.5665 267.989C93.5665 268.63 93.5374 269.241 93.5665 269.882C93.5955 270.611 93.5665 271.135 92.5491 271.164C91.4737 271.164 91.3865 270.698 91.4155 269.853C91.4737 268.484 91.4737 267.144 91.4155 265.775C91.3865 264.988 91.7062 264.784 92.4329 264.784C93.1886 264.784 93.6537 264.93 93.5955 265.833C93.5374 266.532 93.5665 267.26 93.5665 267.989Z" fill="white"/>
<path d="M93.5666 373.011C93.5666 373.623 93.5376 374.264 93.5666 374.876C93.6248 375.72 93.4504 376.216 92.404 376.186C91.3866 376.186 91.3866 375.633 91.3866 374.905C91.4157 373.506 91.4448 372.108 91.3866 370.71C91.3576 369.865 91.7936 369.777 92.4621 369.806C93.1016 369.806 93.6248 369.806 93.5666 370.68C93.5376 371.467 93.5666 372.224 93.5666 373.011Z" fill="white"/>
<path d="M91.4446 451.668C91.4446 451.028 91.4737 450.416 91.4446 449.775C91.4155 449.017 91.4446 448.493 92.491 448.493C93.4212 448.493 93.6537 448.872 93.6246 449.717C93.5665 451.086 93.5665 452.426 93.6246 453.795C93.6537 454.611 93.3921 454.902 92.5492 454.873C91.7934 454.844 91.3574 454.756 91.4446 453.853C91.4737 453.125 91.4446 452.397 91.4446 451.668Z" fill="white"/>
<path d="M91.4446 399.201C91.4446 398.56 91.4446 397.948 91.4446 397.307C91.4446 396.608 91.3283 395.996 92.4038 395.996C93.4211 395.996 93.6246 396.375 93.5955 397.278C93.5374 398.618 93.5664 399.988 93.5955 401.328C93.6246 402.143 93.3339 402.435 92.52 402.435C91.7352 402.435 91.3574 402.231 91.4155 401.386C91.4736 400.658 91.4446 399.929 91.4446 399.201Z" fill="white"/>
<path d="M91.4446 215.347C91.4446 214.735 91.4737 214.094 91.4446 213.482C91.3865 212.696 91.5318 212.259 92.5201 212.259C93.4793 212.259 93.6537 212.666 93.6246 213.482C93.5956 214.88 93.5665 216.279 93.6246 217.677C93.6537 218.58 93.1886 218.668 92.462 218.668C91.7353 218.668 91.4156 218.435 91.4737 217.677C91.4737 216.891 91.4446 216.133 91.4446 215.347Z" fill="white"/>
<path d="M93.5959 294.237C93.5959 294.878 93.5668 295.49 93.5959 296.131C93.654 296.917 93.5087 297.383 92.5204 297.354C91.5902 297.354 91.3868 297.005 91.4158 296.16C91.474 294.849 91.503 293.538 91.4158 292.256C91.3577 291.295 91.7065 291.003 92.6367 291.003C93.5959 291.003 93.5959 291.499 93.5377 292.227C93.4796 292.897 93.5377 293.567 93.5377 294.266C93.5377 294.237 93.5668 294.237 93.5959 294.237Z" fill="white"/>
<path d="M93.5957 346.821C93.5957 347.491 93.5666 348.19 93.5957 348.86C93.6538 349.705 93.276 349.938 92.4912 349.938C91.6482 349.938 91.4157 349.618 91.4447 348.802C91.5029 347.404 91.5029 345.976 91.4447 344.578C91.4157 343.791 91.7064 343.587 92.4621 343.587C93.2469 343.587 93.6248 343.791 93.5376 344.665C93.4794 345.394 93.5376 346.122 93.5376 346.85C93.5376 346.821 93.5666 346.821 93.5957 346.821Z" fill="white"/>
<path d="M91.4449 530.472C91.4449 529.831 91.474 529.219 91.4449 528.578C91.3868 527.82 91.5031 527.325 92.4913 527.325C93.5087 527.325 93.5377 527.85 93.5377 528.578C93.5087 529.918 93.5377 531.287 93.5668 532.627C93.5959 533.472 93.218 533.705 92.4332 533.676C91.6775 533.647 91.4159 533.356 91.4449 532.627C91.474 531.928 91.4449 531.2 91.4449 530.472Z" fill="white"/>
<path d="M93.5956 504.194C93.5956 504.864 93.5374 505.563 93.5956 506.233C93.6828 507.136 93.334 507.399 92.4329 507.399C91.5609 507.399 91.3865 507.02 91.4155 506.262C91.4446 504.922 91.4737 503.553 91.4155 502.213C91.3574 501.193 91.8806 501.164 92.6364 501.135C93.4502 501.135 93.6246 501.456 93.5374 502.184C93.4793 502.854 93.5084 503.524 93.5084 504.223C93.5374 504.194 93.5665 504.194 93.5956 504.194Z" fill="white"/>
<path d="M91.4448 478.033C91.4448 477.363 91.4739 476.693 91.4448 475.994C91.4158 475.295 91.4739 474.8 92.404 474.77C93.3342 474.741 93.5667 475.091 93.5667 475.936C93.5086 477.392 93.5086 478.82 93.5377 480.276C93.5667 481.209 92.9272 481.063 92.375 481.092C91.7064 481.15 91.4158 480.888 91.4448 480.189C91.4739 479.461 91.4448 478.762 91.4448 478.033Z" fill="white"/>
<path d="M91.4448 320.398C91.4448 319.757 91.4739 319.145 91.4448 318.504C91.4157 317.805 91.4739 317.339 92.404 317.31C93.3341 317.31 93.5667 317.659 93.5376 318.504C93.5085 319.844 93.5376 321.214 93.5667 322.554C93.5958 323.399 93.1888 323.573 92.404 323.573C91.6483 323.573 91.3867 323.282 91.4157 322.554C91.4739 321.855 91.4448 321.126 91.4448 320.398Z" fill="white"/>
<path d="M93.6249 110.237C93.6249 110.878 93.5958 111.49 93.6249 112.101C93.6539 112.888 93.6539 113.441 92.5203 113.441C91.3576 113.441 91.4448 112.801 91.4739 112.072C91.503 110.732 91.503 109.363 91.4739 108.023C91.4448 107.236 91.7646 107.032 92.4913 107.032C93.247 107.032 93.683 107.178 93.6249 108.052C93.5958 108.78 93.6249 109.509 93.6249 110.237Z" fill="white"/>
<path d="M93.6248 57.7695C93.6248 58.3813 93.5957 59.0222 93.6248 59.634C93.6829 60.4788 93.5085 60.9741 92.4621 60.945C91.4447 60.945 91.4447 60.3914 91.4447 59.6631C91.4738 58.2648 91.5029 56.8664 91.4447 55.4681C91.4157 54.6232 91.8517 54.5358 92.5202 54.565C93.1597 54.565 93.6829 54.565 93.6248 55.4389C93.5957 56.2255 93.6248 56.983 93.6248 57.7695Z" fill="white"/>
<path d="M91.4739 136.427C91.4739 135.786 91.503 135.174 91.4739 134.533C91.4448 133.776 91.4739 133.252 92.5203 133.252C93.4505 133.252 93.683 133.63 93.6539 134.475C93.5958 135.844 93.5958 137.184 93.6539 138.554C93.683 139.369 93.4214 139.661 92.5785 139.632C91.8227 139.602 91.3867 139.515 91.4739 138.612C91.532 137.884 91.4739 137.155 91.4739 136.427Z" fill="white"/>
<path d="M91.4739 83.9596C91.4739 83.3187 91.4739 82.7069 91.4739 82.066C91.4739 81.3668 91.3576 80.755 92.4331 80.755C93.4504 80.755 93.6539 81.1337 93.6248 82.0368C93.5667 83.3769 93.5957 84.7461 93.6248 86.0862C93.6539 86.9019 93.3632 87.1933 92.5493 87.1933C91.7645 87.1933 91.3867 86.9893 91.4448 86.1445C91.532 85.4162 91.4739 84.6879 91.4739 83.9596Z" fill="white"/>
<path d="M93.625 31.5795C93.625 32.2496 93.5959 32.9487 93.625 33.6188C93.6831 34.4636 93.3053 34.6967 92.5204 34.6967C91.6775 34.6967 91.445 34.3762 91.474 33.5605C91.5322 32.1622 91.5322 30.7347 91.474 29.3363C91.445 28.5498 91.7356 28.3458 92.4914 28.3458C93.2762 28.3458 93.6541 28.5498 93.5669 29.4237C93.5087 30.152 93.5669 30.8803 93.5669 31.6087C93.5669 31.5795 93.5959 31.5795 93.625 31.5795Z" fill="white"/>
<path d="M91.4737 215.23C91.4737 214.589 91.5028 213.977 91.4737 213.336C91.4156 212.579 91.5319 212.084 92.5201 212.084C93.5375 212.084 93.5665 212.608 93.5665 213.336C93.5375 214.677 93.5665 216.046 93.5956 217.386C93.6247 218.231 93.2468 218.464 92.462 218.435C91.7063 218.405 91.4447 218.114 91.4737 217.386C91.5028 216.687 91.4737 215.958 91.4737 215.23Z" fill="white"/>
<path d="M93.6249 188.953C93.6249 189.623 93.5667 190.322 93.6249 190.992C93.7121 191.895 93.3633 192.157 92.4622 192.157C91.5902 192.157 91.4158 191.778 91.4448 191.021C91.4739 189.681 91.503 188.312 91.4448 186.972C91.3867 185.952 91.9099 185.923 92.6656 185.894C93.4795 185.894 93.6539 186.214 93.5667 186.943C93.5086 187.613 93.5377 188.283 93.5377 188.982C93.5958 188.953 93.6249 188.953 93.6249 188.953Z" fill="white"/>
<path d="M91.4736 162.792C91.4736 162.122 91.5027 161.452 91.4736 160.752C91.4446 160.053 91.5027 159.558 92.4329 159.529C93.363 159.5 93.5955 159.849 93.5955 160.694C93.5374 162.151 93.5374 163.578 93.5665 165.035C93.5955 165.967 92.9561 165.821 92.4038 165.851C91.7352 165.909 91.4446 165.647 91.4736 164.948C91.5027 164.248 91.4736 163.52 91.4736 162.792Z" fill="white"/>
<path d="M91.4741 5.15645C91.4741 4.51554 91.5032 3.90376 91.4741 3.26285C91.445 2.56367 91.5032 2.09755 92.4333 2.06842C93.3634 2.06842 93.596 2.41801 93.5669 3.26285C93.5378 4.60294 93.5669 5.97216 93.596 7.31225C93.625 8.15709 93.2181 8.33188 92.4333 8.33188C91.6776 8.33188 91.416 8.04056 91.445 7.31225C91.5032 6.61307 91.4741 5.88476 91.4741 5.15645Z" fill="white"/>
<path d="M94.1859 895.169C94.1859 895.809 94.1568 896.421 94.1859 897.033C94.215 897.82 94.215 898.373 93.0814 898.373C91.9187 898.373 92.0059 897.732 92.0349 897.004C92.064 895.664 92.064 894.295 92.0349 892.954C92.0059 892.168 92.3256 891.964 93.0523 891.964C93.808 891.964 94.244 892.11 94.1859 892.984C94.1568 893.712 94.1859 894.44 94.1859 895.169Z" fill="white"/>
<path d="M94.1858 842.701C94.1858 843.313 94.1567 843.954 94.1858 844.566C94.2439 845.41 94.0695 845.906 93.0231 845.877C92.0058 845.877 92.0058 845.323 92.0058 844.595C92.0348 843.196 92.0639 841.798 92.0058 840.4C91.9767 839.555 92.4127 839.467 93.0812 839.497C93.7207 839.497 94.2439 839.497 94.1858 840.371C94.1567 841.157 94.1858 841.915 94.1858 842.701Z" fill="white"/>
<path d="M92.0349 921.359C92.0349 920.718 92.064 920.106 92.0349 919.465C92.0059 918.707 92.0349 918.183 93.0814 918.183C94.0115 918.183 94.244 918.562 94.215 919.407C94.1568 920.776 94.1568 922.116 94.215 923.485C94.244 924.301 93.9824 924.592 93.1395 924.563C92.3837 924.534 91.9477 924.447 92.0349 923.543C92.0931 922.815 92.0349 922.087 92.0349 921.359Z" fill="white"/>
<path d="M92.0349 868.891C92.0349 868.25 92.0349 867.638 92.0349 866.998C92.0349 866.298 91.9186 865.687 92.9941 865.687C94.0114 865.687 94.2149 866.065 94.1858 866.968C94.1277 868.308 94.1568 869.678 94.1858 871.018C94.2149 871.833 93.9242 872.125 93.1104 872.125C92.3256 872.125 91.9477 871.921 92.0058 871.076C92.093 870.348 92.0349 869.619 92.0349 868.891Z" fill="white"/>
<path d="M94.186 816.511C94.186 817.181 94.157 817.88 94.186 818.55C94.2442 819.395 93.8663 819.628 93.0815 819.628C92.2385 819.628 92.006 819.308 92.0351 818.492C92.0932 817.094 92.0932 815.666 92.0351 814.268C92.006 813.481 92.2967 813.277 93.0524 813.277C93.8372 813.277 94.2151 813.481 94.1279 814.355C94.0698 815.084 94.1279 815.812 94.1279 816.54C94.1279 816.511 94.157 816.511 94.186 816.511Z" fill="white"/>
<path d="M92.0348 1000.16C92.0348 999.521 92.0638 998.909 92.0348 998.268C91.9766 997.511 92.0929 997.015 93.0812 997.015C94.0985 997.015 94.1276 997.54 94.1276 998.268C94.0985 999.608 94.1276 1000.98 94.1566 1002.32C94.1857 1003.16 93.8078 1003.4 93.023 1003.37C92.2673 1003.34 92.0057 1003.05 92.0348 1002.32C92.0638 1001.62 92.0348 1000.89 92.0348 1000.16Z" fill="white"/>
<path d="M94.1859 973.884C94.1859 974.554 94.1278 975.253 94.1859 975.923C94.2731 976.827 93.9243 977.089 93.0232 977.089C92.1512 977.089 91.9768 976.71 92.0059 975.953C92.0349 974.613 92.064 973.243 92.0059 971.903C91.9477 970.884 92.4709 970.854 93.2267 970.825C94.0406 970.825 94.215 971.146 94.1278 971.874C94.0696 972.544 94.0987 973.214 94.0987 973.913C94.1568 973.884 94.1859 973.884 94.1859 973.884Z" fill="white"/>
<path d="M92.0347 947.723C92.0347 947.053 92.0637 946.383 92.0347 945.684C92.0056 944.985 92.0637 944.49 92.9939 944.461C93.924 944.431 94.1566 944.781 94.1566 945.626C94.0984 947.082 94.0984 948.51 94.1275 949.967C94.1566 950.899 93.5171 950.753 92.9648 950.782C92.2963 950.841 92.0056 950.578 92.0347 949.879C92.0637 949.18 92.0347 948.452 92.0347 947.723Z" fill="white"/>
<path d="M92.0351 790.088C92.0351 789.447 92.0642 788.835 92.0351 788.194C92.0061 787.495 92.0642 787.029 92.9943 787C93.9245 787 94.157 787.35 94.1279 788.194C94.0989 789.535 94.1279 790.904 94.157 792.244C94.1861 793.089 93.7791 793.263 92.9943 793.263C92.2386 793.263 91.977 792.972 92.0061 792.244C92.0642 791.545 92.0351 790.816 92.0351 790.088Z" fill="white"/>
<path d="M91.4447 1055.44C91.4447 1054.8 91.4738 1054.18 91.4447 1053.54C91.3866 1052.79 91.5901 1052.41 92.4621 1052.41C93.276 1052.41 93.5376 1052.7 93.5376 1053.51C93.5085 1054.91 93.5376 1056.31 93.5666 1057.71C93.5957 1058.61 93.0725 1058.64 92.3749 1058.67C91.561 1058.7 91.4157 1058.29 91.4447 1057.59C91.4738 1056.86 91.4447 1056.14 91.4447 1055.44Z" fill="white"/>
<path d="M91.4447 687.99C91.4447 687.349 91.4447 686.738 91.4447 686.097C91.4447 685.427 91.3865 684.873 92.3748 684.873C93.2468 684.873 93.5956 685.106 93.5665 686.009C93.5084 687.466 93.5084 688.893 93.5375 690.35C93.5375 691.166 93.0143 691.107 92.462 691.137C91.8807 691.137 91.4156 691.107 91.4447 690.321C91.4737 689.534 91.4447 688.748 91.4447 687.99Z" fill="white"/>
<path d="M69.0924 885.013C68.2494 884.692 68.2494 884.313 68.9761 883.847C69.0052 884.255 69.0342 884.634 69.0924 885.013Z" fill="#77828E"/>
<path d="M108.507 878.341C108.943 877.875 109.234 877.992 109.379 878.574C109.059 878.633 108.739 878.633 108.507 878.341Z" fill="#A5ADB2"/>
<path d="M70.226 871.349C70.226 871.67 70.2842 871.99 69.9644 872.223C69.6738 871.961 69.6738 871.67 69.8191 871.32C69.9354 871.32 70.0807 871.32 70.226 871.349Z" fill="#98A0A8"/>
<path d="M109.96 878.662C110.338 878.196 110.484 878.487 110.571 878.866C110.309 878.895 110.106 878.866 109.96 878.662Z" fill="#A5ADB2"/>
<path d="M70.0223 872.777C70.3711 872.864 70.6328 873.01 70.2258 873.36C70.0223 873.243 69.9642 873.039 70.0223 872.777Z" fill="#98A0A8"/>
<path d="M115.744 867.533C115.425 867.3 115.483 867.125 115.803 866.95C115.774 867.154 115.774 867.358 115.744 867.533Z" fill="#77828E"/>
<path d="M70.1966 919.971C70.1675 919.913 70.1094 919.826 70.1094 919.767C70.1094 919.767 70.1675 919.709 70.2256 919.68C70.2256 919.797 70.2256 919.884 70.1966 919.971Z" fill="#9099A2"/>
<path d="M68.8596 882.944C68.8014 882.857 68.7724 882.769 68.8014 882.653C68.8305 882.711 68.8886 882.769 68.9177 882.828C68.9177 882.857 68.8596 882.886 68.8596 882.944Z" fill="#77828E"/>
<path d="M123.767 872.835C123.738 872.777 123.767 872.719 123.825 872.66C123.883 871.349 124.087 870.009 123.709 868.728C123.709 868.145 123.709 867.533 123.709 866.95C123.796 866.776 123.854 866.572 123.942 866.397C125.598 866.572 127.139 867.446 128.854 867.3C128.825 870.679 125.802 871.32 123.767 872.835Z" fill="#C1F11D"/>
<path d="M56.5933 867.591C58.1629 867.3 59.5581 866.455 61.1858 866.397C61.1858 867.766 61.244 869.106 61.2149 870.476C61.2149 871 61.5056 871.932 60.9242 872.02C60.2557 872.107 59.3546 872.194 58.7442 871.583C58.4826 871.32 58.1047 871.029 58.0466 870.679C57.8141 869.514 57.0583 868.611 56.5933 867.591Z" fill="#C1F11D"/>
<path d="M123.767 936.664C123.593 935.819 123.593 935.004 123.767 934.159C124.407 935.004 124.407 935.819 123.767 936.664Z" fill="#C1F11D"/>
<path d="M123.738 939.898C123.738 939.548 123.738 939.17 123.767 938.82C124.232 939.141 124.261 939.577 124.087 940.073C123.971 940.014 123.855 939.956 123.738 939.898Z" fill="#C1F11D"/>
<path d="M123.709 868.728C124.087 870.038 123.884 871.349 123.825 872.66C123.418 871.379 123.622 870.038 123.709 868.728Z" fill="#C1F11D"/>
<path d="M70.2549 942.403C70.3712 942.432 70.4874 942.433 70.6037 942.462C70.5165 942.52 70.4293 942.578 70.313 942.607C70.313 942.549 70.2839 942.462 70.2549 942.403Z" fill="#838E97"/>
</g>
<defs>
<linearGradient id="paint0_linear_50_14" x1="91" y1="193.5" x2="90.5" y2="1147" gradientUnits="userSpaceOnUse">
<stop offset="0.0859998" stop-color="#C1F11D" stop-opacity="0.4"/>
<stop offset="0.456" stop-color="#C1F11D"/>
</linearGradient>
<clipPath id="clip0_50_14">
<rect width="181" height="1147" fill="white"/>
</clipPath>
</defs>
</svg>
