<svg xmlns="http://www.w3.org/2000/svg" viewBox="0 0 3000 3000" width="3000" height="3000"><g transform="translate(2832.0 1780.8) rotate(0.0 -511.80000000000007 455.9999999999999) scale(-1.2001224040435543 1.2013800062440143)"><svg width="852.913" height="759.127" viewBox="0 0 852.913 759.127"><path d="M842.909 532.548 549.59 743.861c-12.048 8.679-31.545 6.099-43.627-5.775L13.953 254.588c-8.626-8.477-11.108-19.417-7.399-28.132l-3.886 9.13c-3.71 8.715-1.228 19.655 7.399 28.132l492.01 483.499c12.082 11.873 31.58 14.454 43.628 5.774l293.319-211.313c3.417-2.462 5.862-5.569 7.335-9.028l3.886-9.13c-1.474 3.459-3.919 6.567-7.336 9.028z" fill="#111"/><path d="M528.687 759.093c-9.665 0-19.886-3.867-27.311-11.164L9.366 264.431c-8.593-8.444-11.583-19.921-7.618-29.237l3.885-9.13a1 1 0 0 1 1.841.783c-3.697 8.686-.946 19.042 7.18 27.027l492.011 483.498c11.713 11.511 30.707 14.058 42.341 5.677l293.319-211.313c3.192-2.3 5.547-5.196 7-8.608a.999.999 0 1 1 1.84.784l-3.886 9.13c-1.597 3.753-4.178 6.932-7.67 9.448l-293.32 211.312c-4.956 3.571-11.156 5.291-17.602 5.291zM3.911 235.218l-.323.759c-3.697 8.686-.946 19.043 7.179 27.027l492.01 483.499c11.715 11.512 30.708 14.057 42.342 5.676l293.319-211.313c3.192-2.3 5.546-5.196 6.999-8.608l.311-.731a24.683 24.683 0 0 1-2.255 1.832L550.175 744.673c-12.389 8.924-32.537 6.29-44.912-5.873L13.252 255.301c-5.924-5.821-9.185-13.081-9.341-20.083zm838.998 297.33h.01z" fill="#111"/><path d="M842.846 495.389c12.082 11.873 12.076 28.505.063 37.159L549.59 743.861c-12.048 8.679-31.545 6.099-43.627-5.774L13.953 254.588c-12.048-11.839-12.11-28.48-.062-37.159L307.209 6.116c12.013-8.654 31.579-6.065 43.627 5.775z" fill="#3658c1"/><path d="M532.573 749.964c-9.665 0-19.886-3.867-27.311-11.163l-492.01-483.5c-6.503-6.391-9.893-14.517-9.299-22.295.503-6.586 3.824-12.406 9.353-16.389L306.625 5.304c12.388-8.924 32.536-6.29 44.912 5.873l492.011 483.499c6.502 6.391 9.892 14.514 9.299 22.288-.503 6.59-3.825 12.413-9.353 16.396L550.175 744.672c-4.956 3.571-11.156 5.292-17.602 5.292zM324.245 1.989c-6.034 0-11.825 1.605-16.451 4.938L14.475 218.24c-5.042 3.633-8.071 8.931-8.528 14.919-.549 7.189 2.625 14.739 8.707 20.716l492.01 483.499c11.714 11.511 30.707 14.057 42.342 5.676l293.319-211.313c5.042-3.632 8.07-8.933 8.528-14.925.548-7.185-2.625-14.733-8.707-20.709L350.135 12.604c-7.055-6.933-16.752-10.615-25.89-10.615z" fill="#111"/><path d="m255.06 265.839-80.213-78.825c-2.113-2.076-5.57-2.532-7.675-1.016l-22.3 16.065c-2.141 1.542-2.136 4.485-.023 6.561l80.213 78.825c2.147 2.11 5.568 2.534 7.708.992l22.3-16.065c2.106-1.517 2.137-4.428-.01-6.537" fill="#fff"/><path d="M229.717 290.369a7.726 7.726 0 0 1-5.355-2.206l-80.213-78.826c-1.311-1.288-1.992-2.951-1.869-4.562.108-1.418.821-2.669 2.008-3.524l22.3-16.065c2.489-1.794 6.509-1.294 8.96 1.114l80.213 78.825c1.32 1.298 2.007 2.962 1.884 4.568-.107 1.406-.814 2.647-1.99 3.494l-22.3 16.065c-1.043.752-2.322 1.117-3.638 1.117zm-59.561-104.266c-.89 0-1.737.229-2.399.706l-22.3 16.065c-.71.512-1.119 1.222-1.183 2.053-.078 1.022.387 2.109 1.276 2.983l80.213 78.825c1.787 1.756 4.668 2.157 6.423.893l22.3-16.065c.7-.504 1.103-1.204 1.165-2.023.078-1.016-.394-2.105-1.292-2.989l-80.213-78.825c-1.074-1.056-2.587-1.623-3.99-1.623z" fill="#111"/><path d="m373.736 382.461-80.213-78.826c-2.113-2.076-5.57-2.532-7.675-1.016l-22.3 16.065c-2.141 1.542-2.136 4.485-.023 6.561l80.213 78.826c2.111 2.075 5.568 2.534 7.708.992l22.3-16.065c2.106-1.517 2.101-4.462-.01-6.537" fill="#fff"/><path d="M348.418 406.966c-1.918 0-3.928-.753-5.38-2.181l-80.213-78.826c-1.311-1.288-1.992-2.95-1.869-4.562.108-1.418.821-2.669 2.008-3.524l22.3-16.065c2.489-1.794 6.509-1.294 8.96 1.114l80.213 78.825c1.312 1.29 1.995 2.957 1.871 4.574-.108 1.408-.81 2.647-1.977 3.487l-22.3 16.065c-1.021.737-2.296 1.093-3.613 1.093zm-59.586-104.241c-.891 0-1.737.229-2.399.706l-22.3 16.065c-.71.512-1.119 1.222-1.183 2.053-.078 1.022.387 2.109 1.276 2.983l80.213 78.826c1.758 1.727 4.699 2.136 6.423.893l22.3-16.065c.69-.498 1.089-1.195 1.152-2.017.079-1.027-.388-2.119-1.279-2.995l-80.213-78.825c-1.075-1.056-2.587-1.624-3.99-1.624z" fill="#111"/><path d="m492.375 499.048-80.213-78.826c-2.111-2.075-5.57-2.532-7.675-1.016l-22.3 16.065c-2.141 1.542-2.134 4.487-.023 6.561l80.213 78.825c2.147 2.11 5.568 2.534 7.708.992l22.3-16.065c2.106-1.515 2.137-4.426-.01-6.536" fill="#fff"/><path d="M467.032 523.578a7.726 7.726 0 0 1-5.355-2.206l-80.213-78.826c-1.311-1.287-1.991-2.95-1.868-4.562.108-1.418.821-2.669 2.007-3.524l22.3-16.065c2.49-1.794 6.509-1.294 8.96 1.114l80.213 78.825c1.32 1.298 2.007 2.962 1.884 4.568-.107 1.406-.814 2.647-1.99 3.494l-22.3 16.065c-1.043.753-2.322 1.117-3.638 1.117zm-59.561-104.266c-.891 0-1.737.229-2.399.706l-22.3 16.065c-.709.511-1.118 1.221-1.182 2.053-.078 1.023.387 2.11 1.275 2.983l80.213 78.826c1.788 1.757 4.669 2.157 6.423.893l22.3-16.065c.7-.504 1.103-1.204 1.165-2.023.078-1.016-.394-2.105-1.292-2.989l-80.213-78.825c-1.075-1.056-2.587-1.624-3.99-1.624z" fill="#111"/><path d="m611.05 615.671-80.213-78.826c-2.147-2.11-5.57-2.532-7.675-1.016l-22.3 16.065c-2.141 1.542-2.17 4.451-.023 6.561l80.213 78.826c2.111 2.075 5.568 2.534 7.708.992l22.3-16.065c2.107-1.517 2.102-4.463-.01-6.537" fill="#fff"/><path d="M585.733 640.175c-1.918 0-3.928-.753-5.38-2.181l-80.213-78.826c-1.318-1.295-2.004-2.956-1.882-4.556.108-1.415.826-2.669 2.021-3.529l22.3-16.065c2.532-1.824 6.468-1.335 8.96 1.114l80.213 78.825c1.312 1.29 1.995 2.957 1.871 4.574-.108 1.408-.81 2.647-1.977 3.488l-22.3 16.065c-1.021.736-2.296 1.091-3.613 1.091zm-59.565-104.258c-.892 0-1.742.235-2.42.723l-22.3 16.065c-.719.518-1.132 1.23-1.195 2.059-.077 1.011.393 2.097 1.289 2.978l80.213 78.826c1.757 1.727 4.699 2.136 6.423.893l22.3-16.065c.69-.497 1.089-1.195 1.152-2.017.079-1.028-.388-2.119-1.279-2.995l-80.213-78.826c-1.09-1.07-2.58-1.641-3.97-1.641z" fill="#111"/><path d="m341.526 179.019-60.653-59.604c-4.951-4.865-13.004-5.96-17.941-2.403l-39.18 28.226c-4.97 3.581-4.925 10.445.026 15.31l60.653 59.604c4.985 4.899 13.005 5.96 17.975 2.379l39.18-28.226c4.936-3.557 4.925-10.388-.06-15.286z" fill="#b0c3ff"/><g fill="#111"><path d="M295.4 225.626c-4.137 0-8.502-1.648-11.67-4.761l-60.653-59.604c-2.802-2.754-4.261-6.272-4.003-9.652.22-2.889 1.674-5.44 4.094-7.183l39.18-28.226c5.308-3.824 13.932-2.701 19.227 2.502l60.653 59.604c2.812 2.764 4.278 6.284 4.021 9.658-.22 2.877-1.667 5.417-4.077 7.153l-39.18 28.226c-2.141 1.54-4.816 2.283-7.592 2.283zm-25.486-109.72c-2.352 0-4.602.623-6.398 1.917l-39.18 28.226c-1.933 1.393-3.094 3.421-3.269 5.712-.213 2.791 1.03 5.734 3.411 8.073l60.653 59.604c4.631 4.551 12.119 5.574 16.69 2.281l39.18-28.226c1.923-1.386 3.078-3.404 3.252-5.682.212-2.785-1.037-5.729-3.428-8.079l-60.653-59.604c-2.805-2.756-6.65-4.222-10.258-4.222z"/><path d="M241.018 178.489a1 1 0 0 1-.585-1.812l57.095-41.133a1 1 0 0 1 1.169 1.623L241.602 178.3a.994.994 0 0 1-.584.189zm26.207 25.754a1 1 0 0 1-.585-1.812l57.096-41.133a1 1 0 0 1 1.169 1.623l-57.096 41.133a1 1 0 0 1-.584.189z"/><path d="M331.506 202.566a.995.995 0 0 1-.701-.287l-78.654-77.293a1 1 0 1 1 1.401-1.426l78.654 77.293a1 1 0 0 1-.7 1.713zm-19.021 13.703a.995.995 0 0 1-.701-.287l-78.655-77.294a1 1 0 1 1 1.402-1.426l78.654 77.294a1 1 0 0 1-.7 1.713z"/></g></svg></g><g transform="translate(1854.0 366.0) rotate(-3.3590164241031446 204.5999999999999 273.59999999999997) scale(1.1802711277761748 1.1839030722630894)"><svg width="346.7" height="462.2" viewBox="0 0 346.7 462.2"><linearGradient id="a" gradientTransform="matrix(.9944 .1055 .1055 -.9944 530.0102 862.8249)" gradientUnits="userSpaceOnUse" x1="-289.756" x2="-511.345" y1="692.185" y2="429.815"><stop offset="0" stop-color="#3658c1"/><stop offset="1" stop-color="#111"/></linearGradient><path d="M205.7 111.6 238 147c-8-8.7-18.5-14.7-30.1-17.1-33.9-7.4-70.2 14.7-81.1 49.2-6.9 22.1-1.8 43.9 11.7 58.7l-32.2-35.3c-13.5-14.8-18.7-36.7-11.7-58.7 10.8-34.5 47.2-56.6 81.1-49.2 11.5 2.4 22 8.3 30 17" fill="#111"/><path d="M138.5 238.8c-.3 0-.5-.1-.7-.3l-32.2-35.3c-14.3-15.7-18.8-38-11.9-59.7 11-35 47.9-57.3 82.3-49.9 11.8 2.5 22.4 8.5 30.6 17.4l32.2 35.3c.4.4.3 1-.1 1.4s-1 .3-1.4-.1c-7.9-8.6-18.1-14.4-29.6-16.8-33.4-7.2-69.3 14.5-79.9 48.5-6.6 21-2.3 42.6 11.5 57.8.4.4.3 1-.1 1.4-.2.3-.5.3-.7.3zm23.9-144.7c-29.2 0-57.6 20.3-66.9 49.9-6.6 21-2.3 42.6 11.5 57.8l22.1 24.3c-7.2-14-8.5-30.8-3.3-47.3 11-35 47.9-57.3 82.3-49.9 6.9 1.4 13.3 4.1 19.1 7.7L205 112.3c-7.9-8.6-18.1-14.4-29.5-16.8-4.4-.9-8.8-1.4-13.1-1.4z" fill="#111"/><path d="m309.6 81.5-32.2-35.3c33 36.1 45.5 89.5 28.6 143.4-26.5 84.3-224 228.6-234.4 236.2l32.2 35.3c10.4-7.6 208-152 234.4-236.2 17-53.9 4.4-107.2-28.6-143.4z" fill="url(#a)"/><path d="M103.8 462.2c-.3 0-.5-.1-.7-.3l-32.2-35.3c-.2-.2-.3-.5-.3-.8s.2-.5.4-.7C92.3 409.6 279.4 271 305.1 189.4c16.3-51.8 5.7-105-28.3-142.3l-.1-.1c-.4-.4-.3-1 .1-1.4s1-.3 1.4.1l.1.1 32.2 35.3C345 119 355.8 173 339.3 225.5c-25.9 82-213.6 220.9-234.9 236.5-.2.1-.4.2-.6.2zM73.1 426l30.9 33.9c24.4-17.9 208-154.4 233.3-235.2 16.3-51.8 5.7-105.1-28.4-142.4l-16.4-18C315.4 100.2 321 145.6 307 190 281.5 271.1 98.3 407.5 73.1 426z" fill="#111"/><path d="M203.9 4.5c82.8 18 128.5 100.8 102.1 185.1S82 418.2 71.6 425.8C67 415-20.5 208.9 6 124.6S121.1-13.5 203.9 4.5zm-67.5 215.1c33.9 7.4 70.2-14.7 81.1-49.2s-7.9-68.5-41.8-75.8-70.2 14.7-81.1 49.2 7.8 68.4 41.8 75.8" fill="#b0c3ff"/><path d="M71.6 426.8h-.3c-.3-.1-.5-.3-.7-.6C61.2 404-20.8 206.5 5 124.3 31.6 39.6 120.9-14.6 204.1 3.5c39.2 8.5 71.6 31.7 91.2 65.5 20.8 35.8 24.9 78.7 11.7 120.9-25.9 82.2-213.5 221.2-234.8 236.7-.2.2-.4.2-.6.2zM171.6 2C99.7 2 29.8 52 6.9 124.9-18.3 205.2 60.6 397.2 72 424.3c25.6-18.8 207.8-154.5 233.1-235 13.1-41.7 9-84.1-11.5-119.3-19.3-33.2-51.2-56.1-89.8-64.5C193.1 3.1 182.3 2 171.6 2zm-22 220c-4.5 0-8.9-.5-13.4-1.4h-.1c-16.2-3.5-29.6-13.1-37.7-27.1-8.6-14.8-10.3-32.6-4.8-50 11-35 47.9-57.3 82.3-49.9 16.2 3.5 29.6 13.1 37.7 27.1 8.6 14.8 10.3 32.6 4.8 50-9.6 30.4-38.7 51.3-68.8 51.3zm-13.1-3.4c33.5 7.3 69.3-14.5 80-48.5 5.3-16.9 3.7-34.1-4.7-48.4-7.8-13.5-20.8-22.8-36.4-26.1-33.4-7.2-69.3 14.5-79.9 48.5-5.3 16.9-3.7 34.1 4.6 48.4 7.8 13.4 20.8 22.7 36.4 26.1z" fill="#111"/></svg></g><g transform="translate(696.0 358.8) rotate(0.0 762.5999999999999 1034.3999999999999) scale(1.2014159883166784 1.2017657033216436)"><svg width="1269.502" height="1721.467" viewBox="0 0 1269.502 1721.467"><linearGradient id="b" gradientUnits="userSpaceOnUse" x1="282.953" x2="857.561" y1="128.802" y2="1668.446"><stop offset="0" stop-color="#111"/><stop offset=".31" stop-color="#3658c1"/><stop offset=".761" stop-color="#3658c1"/><stop offset="1" stop-color="#111"/></linearGradient><path d="M775.3 27.458c17.622-2.476 36.3 10.674 41.72 29.374l424.427 1463.941c5.423 18.7-4.466 35.865-22.088 38.342l-680.046 95.574c-17.665 2.483-36.34-10.666-41.763-29.368L73.122 161.38c-5.421-18.7 4.465-35.865 22.131-38.347zM543.536 141.281c13.272-1.866 20.787-14.91 16.7-29s-18.273-24.072-31.546-22.207l-171.3 24.074c-13.271 1.866-20.786 14.91-16.7 28.993s18.278 24.079 31.549 22.214l171.3-24.074" fill="#fff"/><path d="M535.019 1655.987c-16.7 0-33.335-12.815-38.43-30.387L72.162 161.659c-2.83-9.761-1.643-19.7 3.257-27.27a27.607 27.607 0 0 1 19.7-12.347L775.16 26.468c18.064-2.539 37.274 10.958 42.82 30.086L1242.407 1520.5c2.831 9.764 1.643 19.708-3.259 27.281a27.548 27.548 0 0 1-19.65 12.329l-680.046 95.574a31.849 31.849 0 0 1-4.433.303zM775.3 27.458l.139.991-680.047 95.574A25.634 25.634 0 0 0 77.1 135.476c-4.584 7.083-5.683 16.423-3.015 25.626L498.51 1625.043c5.28 18.21 23.521 31.066 40.663 28.656l680.046-95.574a25.579 25.579 0 0 0 18.25-11.436c4.587-7.086 5.686-16.43 3.017-25.637L816.059 57.111c-5.28-18.211-23.5-31.069-40.621-28.662zM369.005 166.579c-12.717 0-25.391-9.768-29.274-23.159-2.153-7.426-1.232-15.013 2.525-20.818a21.049 21.049 0 0 1 15-9.444l171.3-24.074c13.776-1.935 28.423 8.347 32.649 22.923 2.153 7.426 1.233 15.015-2.525 20.819a21.047 21.047 0 0 1-15 9.445l-.139-.991.139.991-171.3 24.074a24.309 24.309 0 0 1-3.375.234zm162.948-75.731a22.428 22.428 0 0 0-3.124.217l-171.3 24.074a19.074 19.074 0 0 0-13.6 8.55c-3.442 5.317-4.274 12.306-2.283 19.174 3.96 13.659 17.618 23.3 30.448 21.5L543.4 140.29a19.075 19.075 0 0 0 13.6-8.551c3.442-5.317 4.274-12.306 2.283-19.175-3.643-12.552-15.483-21.716-27.33-21.716z" fill="#111"/><path d="M528.692 90.075c13.271-1.866 27.465 8.128 31.548 22.212s-3.431 27.128-16.7 28.994l-171.3 24.074c-13.272 1.865-27.466-8.129-31.549-22.213s3.432-27.128 16.7-28.993z" fill="#b0c3ff"/><path d="M369.006 166.579c-12.717 0-25.392-9.768-29.274-23.158-2.153-7.426-1.233-15.013 2.524-20.818a21.043 21.043 0 0 1 15-9.444l171.3-24.075.139.991-.139-.991c13.776-1.937 28.422 8.348 32.648 22.924 2.153 7.426 1.232 15.014-2.525 20.818a21.047 21.047 0 0 1-15 9.445l-171.3 24.074a24.32 24.32 0 0 1-3.373.234zm162.948-75.731a22.4 22.4 0 0 0-3.123.217l-171.3 24.074a19.077 19.077 0 0 0-13.6 8.551c-3.442 5.317-4.274 12.306-2.283 19.174 3.64 12.553 15.474 21.716 27.326 21.717a22.4 22.4 0 0 0 3.123-.217L543.4 140.29a19.076 19.076 0 0 0 13.6-8.55c3.442-5.318 4.274-12.306 2.283-19.175-3.643-12.553-15.477-21.717-27.329-21.717z" fill="#111"/><path d="m1226.876 1585.044-680.091 95.58c-31.068 4.367-64.053-18.857-73.625-51.874L48.732 164.808c-6.549-22.592-.442-43.917 14.034-56.533L17.655 147.59C3.179 160.206-2.928 181.532 3.622 204.124l424.427 1463.941c9.573 33.017 42.557 56.241 73.626 51.875l680.09-95.581a47.692 47.692 0 0 0 24.971-11.171l45.11-39.316a47.686 47.686 0 0 1-24.97 11.172z" fill="url(#b)"/><path d="M494.114 1721.464c-29.1 0-58.121-22.407-67.025-53.121L2.661 204.4c-6.434-22.193-.94-44.251 14.337-57.566l45.111-39.315a1 1 0 1 1 1.314 1.507c-14.684 12.8-19.945 34.065-13.73 55.5L474.12 1628.471c8.662 29.875 36.845 51.678 65.077 51.68a53.46 53.46 0 0 0 7.449-.517l680.091-95.58a46.966 46.966 0 0 0 24.452-10.936 1 1 0 0 1 1.314 1.508l-45.11 39.315a48.956 48.956 0 0 1-25.488 11.408l-680.091 95.581a55.377 55.377 0 0 1-7.7.534zM53.155 117.977l-34.843 30.367c-14.684 12.8-19.945 34.064-13.73 55.5L429.01 1667.786c9.424 32.508 41.959 55.457 72.526 51.163l680.09-95.58a46.968 46.968 0 0 0 24.453-10.935l34.915-30.43a50.952 50.952 0 0 1-13.979 4.03l-680.09 95.58c-31.513 4.427-65.035-19.161-74.726-52.586L47.772 165.087c-4.956-17.095-2.835-34.109 5.383-47.11z" fill="#111"/><path d="M767.781 1.529c31.113-4.373 64.1 18.851 73.672 51.87L1265.88 1517.34c9.573 33.018-7.892 63.331-39 67.7l-680.09 95.58c-31.069 4.367-64.054-18.857-73.626-51.874L48.732 164.808c-9.572-33.019 7.891-63.332 39-67.7zm473.666 1519.245L817.02 56.833c-5.422-18.7-24.1-31.851-41.721-29.375L95.254 123.033c-17.666 2.482-27.554 19.646-22.132 38.348l424.427 1463.941c5.422 18.7 24.1 31.851 41.765 29.368l680.045-95.574c17.622-2.477 27.51-19.642 22.088-38.342" fill="#b0c3ff"/><path d="M539.225 1682.149c-29.1 0-58.121-22.407-67.026-53.121L47.772 165.087c-4.936-17.027-2.872-34.356 5.665-47.544A47.886 47.886 0 0 1 87.6 96.113L767.642.539c31.538-4.434 65.081 19.155 74.771 52.582l424.428 1463.94c4.936 17.026 2.871 34.355-5.666 47.543a47.886 47.886 0 0 1-34.16 21.43l-680.09 95.581a55.388 55.388 0 0 1-7.7.534zM767.781 1.529l.14.99L87.876 98.093a45.918 45.918 0 0 0-32.76 20.537c-8.221 12.7-10.2 29.43-5.423 45.9L474.12 1628.471c8.661 29.874 36.845 51.678 65.077 51.68a53.45 53.45 0 0 0 7.449-.517l680.091-95.58a45.916 45.916 0 0 0 32.759-20.537c8.222-12.7 10.2-29.43 5.424-45.9L840.493 53.677c-9.425-32.508-41.98-55.457-72.572-51.158zM535.02 1655.988c-16.7 0-33.337-12.817-38.431-30.387L72.162 161.659c-2.83-9.76-1.643-19.7 3.257-27.269a27.607 27.607 0 0 1 19.7-12.348L775.16 26.468c18.066-2.538 37.274 10.958 42.82 30.086L1242.407 1520.5c2.831 9.764 1.643 19.707-3.259 27.281a27.548 27.548 0 0 1-19.65 12.329l-680.045 95.57a31.838 31.838 0 0 1-4.433.308zM779.609 28.159a29.917 29.917 0 0 0-4.171.29L95.393 124.023a25.632 25.632 0 0 0-18.3 11.454c-4.585 7.082-5.684 16.422-3.016 25.625L498.51 1625.043c5.279 18.211 23.522 31.067 40.665 28.657l680.045-95.574a25.579 25.579 0 0 0 18.249-11.436c4.587-7.086 5.687-16.431 3.018-25.638L816.059 57.111c-4.852-16.735-20.638-28.952-36.45-28.952z" fill="#111"/></svg></g><g transform="translate(838.8 620.4) rotate(0.0 644.4 741.0) scale(1.2017029719956958 1.2019562202450953)"><svg width="1072.478" height="1232.99" viewBox="0 0 1072.478 1232.99"><path d="M1 105.548 744.899 1l326.579 1126.442-743.899 104.548z" fill="#b0c3ff"/><path d="M327.578 1232.99a.998.998 0 0 1-.959-.722L.039 105.826a.998.998 0 0 1 .821-1.268L744.76.01a.997.997 0 0 1 1.1.712l326.579 1126.441a1.003 1.003 0 0 1-.821 1.268l-743.899 104.548a.951.951 0 0 1-.14.01zM2.282 106.378l326.017 1124.501 741.897-104.268L744.179 2.112z" fill="#111"/><path d="m1048.641 1048.673-30.787-106.19L840.128 926.4 735.996 389.91l127.574 20.414-31.341-108.104-116.882-18.711-52.58-270.966-98.13 13.791 46.685 240.535-249.535-39.917c-4.334-59.284-7.985-117.305-10.809-170.59L250.562 70.475a9312.48 9312.48 0 0 0 9.035 140.165L20.375 172.377l31.341 108.104 216.005 34.533c.217 2.64.431 5.28.648 7.917 5.676 66.426 11.496 123.414 17.224 172.358l-172.264-2.291 30.354 104.698 155.886 2.117c21.762 142.744 41.184 181.172 49.265 197.219 12.565 24.88 29.489 55.651 48.827 89.385l-174.856-15.809 30.787 106.191 208.396 18.858c44.738 74.332 91.178 148.859 123.415 200.098l102.917-14.464c-24.098-38.161-65.541-104.121-108.868-175.009l469.188 42.392zM386.643 496.618c-6.091-52.241-11.61-108.351-16.528-165.223l261.856 41.875 24.641 126.954-170.139-2.271zm51.468 265.395c-13.723-27.145-26.416-85.594-37.726-160.885l276.538 3.702 60.587 312.306-223.884-20.226c-30.655-51.946-57.954-100.042-75.515-134.897z" fill="#fff"/><path d="M585.405 1196.755c-.34 0-.662-.174-.847-.468-31.318-49.779-78.085-124.794-123.164-199.681l-207.89-18.812a1 1 0 0 1-.871-.718l-30.787-106.191a1 1 0 0 1 .189-.914.974.974 0 0 1 .862-.36l172.943 15.637c-20.106-35.115-36.216-64.635-47.898-87.766-8.267-16.416-27.528-54.658-49.233-196.682l-155.04-2.105a1 1 0 0 1-.947-.722l-30.354-104.697a1 1 0 0 1 .165-.884c.192-.253.481-.417.809-.395l171.125 2.276c-6.089-52.147-11.841-109.761-17.096-171.259l-.583-7.139-215.23-34.409a1 1 0 0 1-.803-.709L19.414 172.653a.999.999 0 0 1 1.118-1.265l237.976 38.063a9268.43 9268.43 0 0 1-8.945-138.922 1 1 0 0 1 .859-1.047L350.839 55.37a1 1 0 0 1 1.138.938c2.893 54.591 6.509 111.709 10.75 169.78l247.341 39.566-46.412-239.131a.996.996 0 0 1 .842-1.18l98.13-13.791a1 1 0 0 1 1.121.8l52.446 270.278 116.192 18.602a1 1 0 0 1 .802.709l31.343 108.104a.998.998 0 0 1-1.119 1.265l-126.162-20.188 103.717 534.349 176.978 16.015c.41.037.756.322.871.718l30.786 106.19c.093.317.021.659-.188.914s-.521.4-.861.36l-467.208-42.213c32.692 53.465 68.963 111.762 107.824 173.3a1 1 0 0 1-.706 1.524l-102.917 14.465a.929.929 0 0 1-.139.01zM254.364 975.864 462.08 994.66c.317.029.602.207.767.48 44.986 74.744 91.687 149.662 123.06 199.534l100.743-14.159c-38.966-61.717-75.314-120.155-108.05-173.713a1.002 1.002 0 0 1 .943-1.518l467.73 42.26-30.189-104.128-177.046-16.021a1 1 0 0 1-.892-.806l-104.132-536.49a.999.999 0 0 1 1.14-1.178l126.017 20.165-30.727-105.979-116.256-18.612a1 1 0 0 1-.824-.797L661.966 13.665 565.82 27.178l46.483 239.5a.999.999 0 0 1-1.139 1.178l-249.535-39.917a1 1 0 0 1-.839-.914c-4.238-57.972-7.855-114.997-10.752-169.521l-98.425 13.832a9249.509 9249.509 0 0 0 8.982 139.23 1.003 1.003 0 0 1-1.155 1.06L21.775 173.614l30.726 105.979 215.378 34.434a.999.999 0 0 1 .839.905l.647 7.917c5.291 61.921 11.085 119.899 17.221 172.324a1 1 0 0 1-.25.786 1.041 1.041 0 0 1-.756.33l-170.914-2.273 29.771 102.689 155.146 2.107a1 1 0 0 1 .975.85c21.709 142.395 40.929 180.558 49.136 196.854 11.883 23.528 28.302 53.586 48.834 89.403a1.001 1.001 0 0 1-.958 1.493l-173.397-15.678 30.189 104.129zm483.146-57.729c-.03 0-.06 0-.09-.004l-223.884-20.226a.999.999 0 0 1-.771-.488c-34.262-58.059-59.681-103.467-75.546-134.954-12.848-25.413-25.573-79.645-37.822-161.188-.043-.29.042-.585.235-.806a.963.963 0 0 1 .767-.343l276.538 3.701a1 1 0 0 1 .968.81l60.588 312.307a.998.998 0 0 1-.982 1.19zm-223.283-22.176 222.048 20.061-60.179-310.202-274.547-3.675c12.164 80.686 24.764 134.315 37.455 159.418 15.804 31.369 41.114 76.588 75.223 134.398zm142.385-394.736h-.013l-269.969-3.605a1 1 0 0 1-.98-.884c-5.755-49.354-11.316-104.952-16.531-165.253a1.002 1.002 0 0 1 1.154-1.073l261.856 41.874a1 1 0 0 1 .824.797l24.641 126.954a.999.999 0 0 1-.982 1.19zm-269.078-5.594 267.862 3.577-24.273-125.061-259.901-41.562c5.15 59.436 10.637 114.278 16.313 163.045z" fill="#111"/><path d="M634.048 1191.918a2.997 2.997 0 0 1-2.526-1.377c-2.039-3.169-204.422-318.202-245.803-430.371-36.46-98.83-44.436-207.267-44.512-208.351a3 3 0 0 1 .808-2.267 2.98 2.98 0 0 1 2.213-.944l142.291 1.323-9.082-80.524a3 3 0 0 1 2.645-3.317 2.991 2.991 0 0 1 3.317 2.646l9.461 83.892a3 3 0 0 1-.753 2.345c-.575.639-1.411 1.03-2.255.991l-142.395-1.324c1.623 18.711 11.257 114.996 43.891 203.455 41.155 111.556 243.184 426.037 245.22 429.201a3 3 0 0 1-2.52 4.624z" fill="#111"/><path d="M429.364 292.976c-21.822 3.067-36.565 19.906-39.323 41.607-1.04 8.188-.379 17.067 2.258 26.165 14.094 48.612 73.807 97.174 85.954 106.661 1.395 1.089 2.164 1.663 2.164 1.663s.344-.775.943-2.218c5.107-12.27 28.981-72.732 21.589-114.215a70.38 70.38 0 0 0-1.665-7.208c-9.626-33.203-41.818-56.686-71.921-52.455" fill="#3658c1"/><path d="M480.418 470.072a.997.997 0 0 1-.597-.198s-.776-.578-2.183-1.676c-11.922-9.312-72.112-58.24-86.299-107.171-2.614-9.017-3.384-17.956-2.29-26.569 2.895-22.777 18.665-39.448 40.175-42.472 30.521-4.284 63.277 19.562 73.021 53.167a71.338 71.338 0 0 1 1.689 7.311c7.454 41.831-16.728 102.948-21.65 114.775-.605 1.456-.952 2.238-.952 2.238a1.001 1.001 0 0 1-.914.595zm-50.915-176.105c-20.592 2.895-35.692 18.887-38.469 40.743-1.06 8.341-.311 17.008 2.227 25.761 14.015 48.34 73.772 96.906 85.609 106.151.444.347.824.641 1.136.88.124-.292.268-.636.432-1.031 4.886-11.737 28.885-72.375 21.529-113.655a69.492 69.492 0 0 0-1.641-7.105c-9.477-32.686-41.254-55.896-70.821-51.743z" fill="#111"/><path d="M453.485 375.543c-14.722 2.069-30.354-8.935-34.883-24.558-4.53-15.624 3.76-29.942 18.483-32.011 14.72-2.069 30.293 8.896 34.822 24.519 4.53 15.624-3.702 29.981-18.422 32.05" fill="#fff"/><path d="M449.907 376.791c-14.016 0-27.986-10.768-32.266-25.528-2.374-8.188-1.374-16.53 2.743-22.89 3.702-5.719 9.584-9.409 16.562-10.39 15.153-2.129 31.271 9.188 35.922 25.231 2.383 8.218 1.383 16.587-2.743 22.961-3.691 5.702-9.551 9.381-16.5 10.357a26.628 26.628 0 0 1-3.717.258zm3.578-1.248h.01zm-12.8-55.819c-1.156 0-2.311.078-3.461.24-6.395.898-11.779 4.271-15.161 9.496-3.801 5.872-4.712 13.616-2.5 21.246 4.392 15.148 19.548 25.844 33.784 23.847 6.366-.896 11.729-4.256 15.1-9.464 3.81-5.887 4.722-13.656 2.5-21.317-4.03-13.901-17.136-24.048-30.262-24.048z" fill="#111"/><path d="m500.364 970.899 21.93 108.454 21.315-35.806 43.48 3.74z" fill="#3658c1"/><path d="M522.294 1080.353a1 1 0 0 1-.98-.802l-21.93-108.454a1 1 0 0 1 1.641-.948l86.725 76.389a.999.999 0 0 1 .258 1.143.99.99 0 0 1-1.005.604l-42.855-3.687-20.994 35.268a1.001 1.001 0 0 1-.859.488zm-20.361-106.739 20.827 103.001 19.989-33.579a.986.986 0 0 1 .945-.484l40.455 3.479z" fill="#111"/></svg></g><g transform="translate(193.2 1490.3999999999999) rotate(0.0 418.19999999999993 307.80000000000007) scale(1.1984147225621198 1.1981875369810973)"><svg width="697.922" height="513.776" viewBox="0 0 697.922 513.776"><path d="m696.922 329.797-11.963 31.331-138.303 3.766 11.963-31.331z" fill="#3658c1"/><path d="M546.656 365.893a.998.998 0 0 1-.934-1.357l11.963-31.331c.145-.378.503-.632.907-.644l138.303-3.766c.352.021.65.15.843.422s.238.623.119.935l-11.963 31.331a1.004 1.004 0 0 1-.907.644l-138.303 3.766h-.027zm12.658-31.35-11.19 29.31 136.14-3.707 11.19-29.31z" fill="#111"/><path d="m558.619 333.563-11.963 31.331c-24.679 36.823-60.147 70.338-105.21 96.69-139.978 81.857-319.382 63.591-400.716-40.81C-2.828 364.863-9.426 295.595 15.338 230.74l11.963-31.331C2.537 264.265 9.135 333.532 52.693 389.444c81.334 104.401 260.738 122.667 400.716 40.81 45.063-26.352 80.531-59.867 105.21-96.69" fill="#3658c1"/><path d="M254.25 513.801a348.19 348.19 0 0 1-35.255-1.779c-75.959-7.735-139.548-39.923-179.054-90.633-21.406-27.477-34.366-58.482-38.521-92.155-4.013-32.522.355-65.78 12.982-98.85l11.963-31.331a1 1 0 0 1 1.869.713C2.723 266.578 11.925 335.489 53.481 388.829c39.167 50.275 102.268 82.192 177.679 89.871 75.476 7.685 154.225-9.826 221.743-49.311 43.344-25.346 79.611-58.675 104.884-96.384a1.002 1.002 0 0 1 1.766.913l-11.963 31.331a1 1 0 0 1-.104.2c-25.44 37.959-61.935 71.5-105.537 96.997-57.425 33.581-122.936 51.354-187.7 51.354zM17.395 228.154l-1.123 2.942C-9.238 297.908-.036 366.819 41.519 420.16c39.167 50.275 102.268 82.192 177.679 89.871 75.475 7.688 154.224-9.825 221.742-49.311 43.307-25.324 79.553-58.62 104.822-96.29l8.976-23.509c-25.146 35.162-59.846 66.23-100.824 90.194-67.883 39.696-147.069 57.304-222.956 49.574-75.959-7.735-139.548-39.923-179.054-90.633-21.406-27.477-34.366-58.482-38.521-92.155-2.836-22.99-1.484-46.349 4.012-69.748z" fill="#111"/><path d="M158.879 52.191C298.856-29.666 478.26-11.4 559.601 93.01c37.012 47.51 47.318 104.67 34.383 160.576l102.938 76.211-138.303 3.766c-24.679 36.823-60.147 70.338-105.21 96.69-139.978 81.857-319.382 63.591-400.716-40.81-81.341-104.41-33.792-255.395 106.186-337.252z" fill="#fff"/><g fill="#111"><path d="M266.213 482.47c-11.794 0-23.563-.589-35.255-1.779-75.959-7.735-139.548-39.923-179.054-90.633-17.355-22.277-29.232-47.09-35.301-73.748-5.863-25.756-6.184-52.615-.952-79.83C29.646 163.67 81.667 96.185 158.374 51.328l.505.863-.505-.863C226.256 11.631 305.432-5.978 381.33 1.756c75.96 7.735 139.552 39.926 179.061 90.64 35.626 45.729 47.942 102.803 34.715 160.776l102.411 75.821a1 1 0 0 1-.568 1.803l-137.787 3.751c-25.427 37.781-61.811 71.167-105.248 96.568-57.425 33.581-122.936 51.354-187.701 51.354zM346.068 1.974c-64.414 0-129.563 17.676-186.685 51.08C83.175 97.62 31.502 164.614 17.615 236.856c-10.532 54.793 2.206 108.765 35.867 151.973 39.167 50.275 102.268 82.192 177.679 89.871a345.988 345.988 0 0 0 35.055 1.77c64.415.002 129.566-17.676 186.688-51.08 43.344-25.346 79.611-58.675 104.884-96.384a.997.997 0 0 1 .804-.443l135.406-3.687L593.39 254.39a1 1 0 0 1-.38-1.029c13.327-57.595 1.182-114.323-34.197-159.736-39.171-50.279-102.273-82.199-177.685-89.88a346.102 346.102 0 0 0-35.06-1.771z"/><path d="m202.003 366.821 47.286 60.697c1.196 1.535 3.465 2.013 5.064 1.078l29.04-16.982c1.599-.935 1.926-2.932.73-4.466l-23.646-30.353-19.146 11.196c-8.667 5.069-20.936 2.438-27.407-5.869l-11.92-15.301"/><path d="M252.511 430.082a5.114 5.114 0 0 1-4.011-1.95l-47.286-60.696a1 1 0 1 1 1.578-1.228l11.921 15.301c6.164 7.913 17.879 10.433 26.113 5.62l19.146-11.196a1 1 0 0 1 1.294.249l23.646 30.353c.767.984 1.081 2.201.862 3.339-.211 1.096-.878 2.021-1.877 2.604l-29.039 16.982a4.642 4.642 0 0 1-2.348.623zm-32.147-41.32 29.715 38.142c.881 1.13 2.609 1.508 3.771.829l29.039-16.982c.495-.289.822-.735.923-1.256.111-.58-.058-1.195-.477-1.732l-23.108-29.662-18.39 10.755c-6.423 3.757-14.757 3.474-21.473-.093zm265.489-165.661c6.472 8.307 4.689 19.154-3.969 24.217l-19.155 11.202 23.646 30.353c1.196 1.535 3.464 2.013 5.063 1.078l29.04-16.982c1.599-.935 1.936-2.938.74-4.472l-35.366-45.396"/><path d="M489.597 291.436a5.118 5.118 0 0 1-4.011-1.949l-23.646-30.353a1.002 1.002 0 0 1 .285-1.478l19.155-11.202c3.794-2.219 6.318-5.701 7.107-9.806.849-4.414-.365-9.005-3.417-12.927l-.006-.007a1 1 0 1 1 1.578-1.228l35.366 45.396c.764.98 1.077 2.195.858 3.333-.212 1.101-.88 2.03-1.883 2.617l-29.04 16.981a4.634 4.634 0 0 1-2.347.622zm-25.377-32.63 22.944 29.452c.879 1.128 2.604 1.51 3.77.829l29.04-16.981c.497-.291.827-.741.929-1.268.111-.58-.057-1.193-.473-1.728l-29.996-38.502c.415 2.121.427 4.285.017 6.418-.899 4.679-3.763 8.641-8.062 11.154l-18.169 10.625z"/></g><path d="m158.121 299.881-1.971 1.153-5.422 3.171-7.839-10.063c-.802-1.029-2.308-1.352-3.381-.725l-25.965 15.184c-2.567 1.501-3.101 4.716-1.175 7.188l7.195 9.235c1.926 2.473 5.567 3.245 8.134 1.744l15.516-9.074 10.449-6.111 5.086-2.974 4.243-2.481-4.868-6.249z" fill="#b0c3ff"/><path d="M124.788 328.524c-2.259 0-4.568-1.025-6.017-2.885l-7.194-9.235c-1.142-1.465-1.592-3.198-1.269-4.881.306-1.591 1.274-2.935 2.729-3.784l25.965-15.185c1.511-.881 3.563-.454 4.675.974l7.302 9.372 6.638-3.882a.998.998 0 0 1 1.294.249l4.868 6.248a1.002 1.002 0 0 1-.285 1.478l-35.294 20.64c-1.033.604-2.216.892-3.412.892zm15.938-34.426c-.254 0-.502.059-.714.183l-25.965 15.185c-.949.555-1.579 1.419-1.774 2.435-.213 1.108.101 2.271.883 3.275l7.194 9.235c1.622 2.082 4.693 2.752 6.841 1.495l34.308-20.063-3.628-4.657-6.638 3.883a1.002 1.002 0 0 1-1.294-.249l-7.84-10.063a1.772 1.772 0 0 0-1.373-.658z" fill="#111"/><path d="m460.018 125.93-7.195-9.235c-1.926-2.472-5.557-3.251-8.134-1.744l-25.956 15.179c-1.073.627-1.3 1.964-.498 2.994l7.839 10.062-5.419 3.169-1.975 1.155 4.868 6.249 4.251-2.486 5.087-2.975 25.956-15.178c2.576-1.507 3.101-4.715 1.175-7.188z" fill="#b0c3ff"/><path d="M423.551 154.758a1 1 0 0 1-.79-.386l-4.868-6.249a1.002 1.002 0 0 1 .285-1.478l6.408-3.747-7.138-9.161c-.57-.732-.804-1.642-.639-2.496.16-.831.665-1.533 1.421-1.975l25.956-15.18c3.034-1.772 7.175-.897 9.428 1.994l7.194 9.235c1.144 1.468 1.595 3.202 1.271 4.883-.305 1.588-1.274 2.931-2.73 3.782l-35.294 20.64a.99.99 0 0 1-.504.137zm-3.378-6.962 3.628 4.656 34.538-20.197c.951-.556 1.582-1.42 1.776-2.433.213-1.107-.102-2.271-.886-3.277l-7.194-9.235c-1.621-2.08-4.689-2.753-6.84-1.496l-25.956 15.18c-.256.149-.417.365-.467.626-.057.292.033.607.253.89l7.84 10.063a1.002 1.002 0 0 1-.285 1.478l-6.408 3.747z" fill="#111"/><path d="m485.853 223.101-48.295-61.992a58.95 58.95 0 0 0-9.757-9.838l-7.144-4.917a62.12 62.12 0 0 0-3.092-1.71l-85.413-44.285c-11.585-6.013-25.334-5.998-35.649.034l-143.11 83.689c-10.315 6.032-15.473 17.074-13.379 28.637l15.457 85.194c.189 1.045.416 2.086.678 3.122l2.597 7.577c1.755 4.029 4.064 7.901 6.882 11.519l48.295 61.992c6.472 8.307 18.74 10.937 27.407 5.869l240.553-140.673c8.658-5.063 10.44-15.91 3.969-24.217z" fill="#b0c3ff"/><path d="M231.495 391.555c-6.886 0-13.935-3.138-18.36-8.819l-48.296-61.992c-2.856-3.666-5.215-7.614-7.01-11.733l-2.626-7.652a47.226 47.226 0 0 1-.716-3.267l-15.457-85.194c-2.179-12.035 3.132-23.406 13.858-29.679L295.997 99.53c10.653-6.229 24.682-6.251 36.614-.058l85.412 44.285a64.022 64.022 0 0 1 3.141 1.736l7.203 4.954c3.784 3.015 7.122 6.381 9.979 10.048l48.295 61.992c3.416 4.384 4.769 9.547 3.81 14.538-.899 4.68-3.763 8.642-8.063 11.156L241.835 388.854c-3.129 1.83-6.713 2.701-10.341 2.701zm82.39-294.716c-6 0-11.841 1.472-16.877 4.416l-143.109 83.689c-9.982 5.836-14.925 16.41-12.899 27.596l15.457 85.193c.183 1.012.406 2.039.663 3.055l2.573 7.498c1.698 3.891 3.971 7.693 6.725 11.229l48.296 61.992c6.164 7.913 17.879 10.433 26.113 5.62L481.38 246.454c3.795-2.219 6.319-5.702 7.107-9.807.85-4.417-.366-9.01-3.423-12.933l-48.295-61.992a57.966 57.966 0 0 0-9.591-9.67l-7.089-4.875a63.38 63.38 0 0 0-2.983-1.646l-85.414-44.286c-5.661-2.938-11.813-4.407-17.807-4.407z" fill="#111"/><path d="m299.731 110.37-136.865 80.037c-8.409 4.917-12.657 13.889-11.029 23.316l10.809 62.619c1.074 6.193 8.99 9.751 14.516 6.519l216.187-126.423c5.517-3.226 4.669-10.917-1.558-14.097l-62.988-32.106c-9.482-4.835-20.674-4.777-29.073.135" fill="#fff"/><path d="M172.546 285.079c-1.624 0-3.286-.363-4.857-1.094-3.223-1.497-5.476-4.29-6.027-7.473l-10.809-62.62c-1.706-9.87 2.704-19.2 11.509-24.349l136.864-80.037c8.721-5.101 20.228-5.161 30.032-.162l62.988 32.105c3.461 1.767 5.673 5.028 5.771 8.512.088 3.066-1.43 5.741-4.163 7.339L177.666 283.724c-1.541.901-3.308 1.354-5.121 1.354zm127.689-173.846L163.371 191.27c-8.066 4.716-12.107 13.254-10.548 22.282l10.809 62.619c.439 2.535 2.271 4.779 4.898 6 2.731 1.268 5.769 1.204 8.127-.174l216.188-126.424c2.083-1.218 3.24-3.242 3.174-5.555-.078-2.753-1.872-5.354-4.682-6.788l-62.987-32.105c-9.204-4.691-19.977-4.65-28.114.107z" fill="#111"/><path d="M182.392 312.849c-1.474.862-2.079 2.574-1.452 4.226 2.419 6.343 9.559 11.197 15.722 14.347 5.69 2.919 12.358 3.086 17.665.504l46.338-22.604c.092-.044.18-.092.266-.142 2.347-1.372 2.239-4.619-.295-6.248l-9.683-6.256c-6.125-3.962-13.823-4.877-20.219-2.422l-47.777 18.323c-.2.077-.389.168-.565.271" fill="#fff"/><path d="M206.19 334.757c-3.375 0-6.814-.818-9.985-2.445-5.963-3.049-13.616-8.105-16.2-14.88-.794-2.095-.021-4.333 1.882-5.446 0 0 .002 0 .003-.002a5.08 5.08 0 0 1 .708-.339l47.778-18.322c6.669-2.562 14.761-1.597 21.12 2.515l9.684 6.256c1.561 1.004 2.473 2.612 2.437 4.301-.032 1.529-.827 2.859-2.18 3.65a5.507 5.507 0 0 1-.339.181l-46.332 22.601c-2.65 1.29-5.588 1.932-8.575 1.932zm-23.296-21.044c-1.058.62-1.468 1.829-1.021 3.008 2.357 6.179 9.591 10.921 15.243 13.811 5.424 2.783 11.692 2.969 16.772.496l46.338-22.604c.074-.036.14-.071.203-.108.746-.437 1.169-1.135 1.187-1.964.021-.988-.548-1.952-1.521-2.578l-9.686-6.257c-5.832-3.771-13.233-4.662-19.317-2.327l-47.777 18.322a3.14 3.14 0 0 0-.421.201z" fill="#111"/><path d="M423.494 171.856a3.62 3.62 0 0 0-.501.353L385.5 203.751c-5.021 4.221-6.911 10.743-4.961 17.146l3.065 10.126c.806 2.64 4.241 3.941 6.579 2.574.085-.05.169-.103.25-.16l41.527-28.779c4.749-3.299 7.074-8.725 6.078-14.389-1.077-6.125-3.601-13.678-9.477-17.999-1.534-1.122-3.593-1.276-5.067-.414" fill="#fff"/><path d="M388.073 235.142a5.898 5.898 0 0 1-2.135-.406c-1.621-.634-2.82-1.881-3.29-3.422l-3.066-10.128c-2.059-6.762-.037-13.736 5.274-18.202l37.493-31.542c.201-.168.414-.317.637-.448 0 0 .002 0 .003-.002 1.836-1.073 4.31-.883 6.162.47 6.261 4.605 8.823 12.675 9.872 18.634 1.052 5.976-1.436 11.871-6.492 15.383l-41.528 28.779c-.1.069-.205.137-.313.2a5.174 5.174 0 0 1-2.616.685zm35.928-62.425c-.128.075-.251.16-.365.257l-37.492 31.541c-4.688 3.941-6.469 10.106-4.647 16.09l3.065 10.127c.29.95 1.058 1.731 2.105 2.142 1.04.405 2.165.354 3.012-.142.061-.035.121-.073.18-.115l41.533-28.782c4.474-3.107 6.591-8.114 5.662-13.393-.985-5.6-3.36-13.157-9.086-17.367-1.196-.876-2.828-1.023-3.967-.357zm-67.257 59.313-84.983 49.697c-2.701 1.58-2.533 5.267.326 7.112l13.185 8.514c3.259 2.107 7.445 2.308 10.528.505l69.228-40.483c3.074-1.798 4.424-5.236 3.388-8.643l-4.182-13.779c-.905-2.988-4.789-4.502-7.49-2.922" fill="#111"/><path d="M291.093 300.095c-2.18 0-4.41-.639-6.362-1.901l-13.185-8.515c-1.737-1.121-2.75-2.909-2.709-4.782.037-1.686.919-3.155 2.42-4.033l84.982-49.696c1.559-.91 3.491-1.023 5.299-.315 1.802.707 3.134 2.097 3.653 3.812l4.183 13.778c1.167 3.834-.376 7.771-3.84 9.797l-69.228 40.483c-1.571.918-3.375 1.373-5.214 1.373zm66.156-67.201-84.982 49.696c-.9.526-1.409 1.361-1.431 2.351-.025 1.173.646 2.316 1.794 3.059l13.187 8.515c2.926 1.893 6.735 2.086 9.48.481l69.228-40.483c2.689-1.573 3.842-4.513 2.936-7.489l-4.183-13.779c-.336-1.109-1.259-2.055-2.47-2.529-1.221-.478-2.55-.41-3.559.18zM226.696 106.973l-40.159 23.484c-5.833 3.411-7.028 10.718-2.668 16.314L194.3 160.16l61.297-35.846-10.431-13.389c-4.36-5.596-12.628-7.369-18.47-3.953" fill="#111"/><path d="M194.301 161.16a1 1 0 0 1-.79-.386l-10.431-13.389c-2.361-3.031-3.296-6.604-2.632-10.062.624-3.244 2.606-5.989 5.584-7.73l40.158-23.484c6.247-3.652 15.114-1.77 19.765 4.202l10.431 13.389a1.002 1.002 0 0 1-.285 1.478l-61.297 35.846a.99.99 0 0 1-.504.137zm39.05-54.93c-2.16 0-4.29.518-6.15 1.605l-40.158 23.484c-2.473 1.445-4.116 3.712-4.629 6.382-.555 2.883.243 5.885 2.245 8.455l9.893 12.698 59.555-34.827-9.729-12.488c-2.663-3.419-6.898-5.31-11.026-5.31zm-6.655.742h.01z" fill="#111"/><path d="m246.433 112.552-12.259 7.169 9.163 11.762 12.26-7.169z" fill="#fff"/><path d="M243.338 132.483a1 1 0 0 1-.79-.386l-9.163-11.763a1.002 1.002 0 0 1 .285-1.478l12.26-7.169a.998.998 0 0 1 1.294.249l9.163 11.763a1.002 1.002 0 0 1-.285 1.478l-12.26 7.169a.99.99 0 0 1-.504.137zm-7.673-12.477 7.923 10.172 10.518-6.15-7.923-10.172z" fill="#111"/><path d="m225.01 107.958-12.259 7.169 9.163 11.763 12.26-7.169z" fill="#fff"/><path d="M221.915 127.89a1 1 0 0 1-.79-.386l-9.163-11.763a1.002 1.002 0 0 1 .285-1.478l12.259-7.17a.998.998 0 0 1 1.294.249l9.164 11.763a1.002 1.002 0 0 1-.285 1.478l-12.26 7.17a.99.99 0 0 1-.504.137zm-7.673-12.477 7.923 10.171 10.518-6.15-7.924-10.171z" fill="#111"/><path d="m221.914 126.89-12.259 7.169 9.163 11.763 12.26-7.17z" fill="#fff"/><path d="M218.819 146.822a1 1 0 0 1-.79-.386l-9.164-11.763a1.002 1.002 0 0 1 .285-1.478l12.26-7.169a.998.998 0 0 1 1.294.249l9.164 11.762a1.002 1.002 0 0 1-.285 1.478l-12.26 7.17a.99.99 0 0 1-.504.137zm-7.674-12.477 7.924 10.172 10.518-6.151-7.924-10.171z" fill="#111"/><path d="m200.491 122.297-12.259 7.169 9.163 11.762 12.26-7.169z" fill="#fff"/><path d="M197.396 142.228a1 1 0 0 1-.79-.386l-9.164-11.763a1.002 1.002 0 0 1 .285-1.478l12.26-7.169a.999.999 0 0 1 1.294.249l9.163 11.763a1.002 1.002 0 0 1-.285 1.478l-12.259 7.169a.99.99 0 0 1-.504.137zm-7.674-12.477 7.924 10.172 10.517-6.15-7.923-10.172z" fill="#111"/><path d="m197.395 141.228-12.259 7.169 9.163 11.763 12.26-7.169z" fill="#fff"/><path d="M194.301 161.16a1 1 0 0 1-.79-.386l-9.164-11.763a1.002 1.002 0 0 1 .285-1.478l12.26-7.169a1 1 0 0 1 1.294.249l9.163 11.763a1.002 1.002 0 0 1-.285 1.478l-12.259 7.169a.99.99 0 0 1-.504.137zm-7.674-12.477 7.924 10.172 10.517-6.15-7.923-10.172z" fill="#111"/></svg></g></svg>